<?xml version="1.0" encoding="UTF-8"?>
<!DOCTYPE svg PUBLIC "-//W3C//DTD SVG 1.1//EN" "http://www.w3.org/Graphics/SVG/1.1/DTD/svg11.dtd">
<svg xmlns="http://www.w3.org/2000/svg" version="1.1" width="1254px" height="1254px" style="shape-rendering:geometricPrecision; text-rendering:geometricPrecision; image-rendering:optimizeQuality; fill-rule:evenodd; clip-rule:evenodd" xmlns:xlink="http://www.w3.org/1999/xlink">
<g><path style="opacity:1" fill="#f3f3f2" d="M 1017.5,-0.5 C 1026.83,-0.5 1036.17,-0.5 1045.5,-0.5C 1045.5,9.16667 1045.5,18.8333 1045.5,28.5C 1036.17,28.5 1026.83,28.5 1017.5,28.5C 1017.5,18.8333 1017.5,9.16667 1017.5,-0.5 Z"/></g>
<g><path style="opacity:1" fill="#f2f3f2" d="M 1187.5,-0.5 C 1196.83,-0.5 1206.17,-0.5 1215.5,-0.5C 1215.5,9.16667 1215.5,18.8333 1215.5,28.5C 1206.17,28.5 1196.83,28.5 1187.5,28.5C 1187.5,18.8333 1187.5,9.16667 1187.5,-0.5 Z"/></g>
<g><path style="opacity:1" fill="#f3f2f2" d="M 254.5,28.5 C 263.833,28.5 273.167,28.5 282.5,28.5C 282.5,37.8333 282.5,47.1667 282.5,56.5C 273.167,56.5 263.833,56.5 254.5,56.5C 254.5,47.1667 254.5,37.8333 254.5,28.5 Z"/></g>
<g><path style="opacity:1" fill="#d3b78e" d="M 600.5,52.5 C 600.586,53.4959 600.252,54.3292 599.5,55C 600.381,55.7083 601.047,56.5416 601.5,57.5C 598.5,58.1667 595.5,58.8333 592.5,59.5C 592.611,58.8826 592.944,58.3826 593.5,58C 590.893,55.8951 587.893,55.0617 584.5,55.5C 587.39,54.7552 590.39,54.0885 593.5,53.5C 595.903,53.552 598.236,53.2186 600.5,52.5 Z"/></g>
<g><path style="opacity:1" fill="#c9a87a" d="M 655.5,53.5 C 655.833,53.5 656.167,53.5 656.5,53.5C 660.167,54.1667 663.833,54.8333 667.5,55.5C 663.71,55.0077 663.044,55.841 665.5,58C 664.833,58.3333 664.167,58.6667 663.5,59C 664.737,59.2321 665.737,59.7321 666.5,60.5C 661.57,59.3517 656.57,58.685 651.5,58.5C 652.952,57.6981 654.618,57.1981 656.5,57C 655.663,55.9887 655.33,54.8221 655.5,53.5 Z"/></g>
<g><path style="opacity:1" fill="#f9f8f8" d="M 734.5,28.5 C 734.5,37.8333 734.5,47.1667 734.5,56.5C 753.167,56.5 771.833,56.5 790.5,56.5C 791.084,66.4874 790.417,76.3208 788.5,86C 788.833,87 789.167,88 789.5,89C 787.57,92.0012 786.237,94.8345 785.5,97.5C 780.821,97.3342 776.155,97.5008 771.5,98C 769.333,99.5 767.167,101 765,102.5C 757.907,96.2328 750.407,90.5661 742.5,85.5C 739.899,84.1993 737.232,82.866 734.5,81.5C 733.609,80.7387 732.942,79.7387 732.5,78.5C 735.73,66.1258 731.396,57.6258 719.5,53C 714.463,52.3369 709.463,52.5036 704.5,53.5C 704.062,53.5654 703.728,53.3988 703.5,53C 705.099,51.2137 705.933,49.047 706,46.5C 706.499,40.5092 706.666,34.5092 706.5,28.5C 715.833,28.5 725.167,28.5 734.5,28.5 Z"/></g>
<g><path style="opacity:1" fill="#bb9457" d="M 584.5,55.5 C 587.893,55.0617 590.893,55.8951 593.5,58C 592.944,58.3826 592.611,58.8826 592.5,59.5C 585.698,60.2009 579.031,61.5342 572.5,63.5C 571.167,63.5 569.833,63.5 568.5,63.5C 568.5,62.1667 568.5,60.8333 568.5,59.5C 570.306,58.9759 571.972,58.3092 573.5,57.5C 577.112,56.5778 580.779,55.9111 584.5,55.5 Z"/></g>
<g><path style="opacity:1" fill="#bd9357" d="M 667.5,55.5 C 671.978,55.8816 676.311,56.8816 680.5,58.5C 680.611,59.1174 680.944,59.6174 681.5,60C 680.1,61.4381 678.433,62.2714 676.5,62.5C 673.097,62.1489 669.763,61.4822 666.5,60.5C 665.737,59.7321 664.737,59.2321 663.5,59C 664.167,58.6667 664.833,58.3333 665.5,58C 663.044,55.841 663.71,55.0077 667.5,55.5 Z"/></g>
<g><path style="opacity:1" fill="#f8f7f7" d="M 601.5,57.5 C 608.593,76.7086 621.593,82.2086 640.5,74C 645.904,70.0913 649.571,64.9246 651.5,58.5C 656.57,58.685 661.57,59.3517 666.5,60.5C 669.763,61.4822 673.097,62.1489 676.5,62.5C 681.801,64.2713 687.134,66.2713 692.5,68.5C 692.847,78.8716 697.514,86.5383 706.5,91.5C 706.639,98.6395 706.305,105.806 705.5,113C 696.506,113.5 687.506,113.666 678.5,113.5C 678.14,104.133 677.807,94.9664 677.5,86C 675.567,85.7489 673.734,85.2489 672,84.5C 664.587,85.4808 657.087,85.8142 649.5,85.5C 649.5,94.8333 649.5,104.167 649.5,113.5C 640.167,113.5 630.833,113.5 621.5,113.5C 621.5,104.167 621.5,94.8333 621.5,85.5C 612.167,85.5 602.833,85.5 593.5,85.5C 593.5,77.5 593.5,69.5 593.5,61.5C 588.809,62.7848 588.476,62.1182 592.5,59.5C 595.5,58.8333 598.5,58.1667 601.5,57.5 Z"/></g>
<g><path style="opacity:1" fill="#cbae80" d="M 568.5,59.5 C 568.5,60.8333 568.5,62.1667 568.5,63.5C 569.833,63.5 571.167,63.5 572.5,63.5C 569.323,64.743 565.99,65.743 562.5,66.5C 562.586,65.5041 562.252,64.6708 561.5,64C 559.256,63.9504 557.589,63.1171 556.5,61.5C 560.605,62.1493 564.605,61.4827 568.5,59.5 Z"/></g>
<g><path style="opacity:1" fill="#c39d64" d="M 637.5,28.5 C 642.5,31.5 646.5,35.5 649.5,40.5C 651.526,44.5813 652.526,48.9146 652.5,53.5C 653.5,53.5 654.5,53.5 655.5,53.5C 655.33,54.8221 655.663,55.9887 656.5,57C 654.618,57.1981 652.952,57.6981 651.5,58.5C 649.571,64.9246 645.904,70.0913 640.5,74C 621.593,82.2086 608.593,76.7086 601.5,57.5C 601.047,56.5416 600.381,55.7083 599.5,55C 600.252,54.3292 600.586,53.4959 600.5,52.5C 601.427,41.9839 606.427,33.9839 615.5,28.5C 622.819,25.8915 630.153,25.8915 637.5,28.5 Z"/></g>
<g><path style="opacity:1" fill="#f6f5f4" d="M 620.5,32.5 C 641.767,32.247 649.6,42.247 644,62.5C 633.21,75.4276 621.877,75.7609 610,63.5C 603.528,49.7017 607.028,39.3684 620.5,32.5 Z"/></g>
<g><path style="opacity:1" fill="#c39c60" d="M 556.5,61.5 C 557.589,63.1171 559.256,63.9504 561.5,64C 562.252,64.6708 562.586,65.5041 562.5,66.5C 561.85,66.8039 561.183,67.1373 560.5,67.5C 559.52,70.0865 559.187,72.7531 559.5,75.5C 559.103,78.4463 558.103,81.113 556.5,83.5C 551.543,89.9442 544.876,92.9442 536.5,92.5C 534.076,91.9695 531.743,91.1362 529.5,90C 527.46,87.6955 525.126,85.8622 522.5,84.5C 519.918,84.9746 517.918,84.3079 516.5,82.5C 518.022,81.5688 519.355,80.4021 520.5,79C 517.724,67.2173 521.724,58.5506 532.5,53C 542.408,50.8006 550.408,53.6339 556.5,61.5 Z"/></g>
<g><path style="opacity:1" fill="#f6f5f3" d="M 537.5,57.5 C 545.002,57.3418 550.502,60.6751 554,67.5C 554.935,81.5654 548.435,87.7321 534.5,86C 526.892,81.614 524.058,75.114 526,66.5C 528.593,61.721 532.427,58.721 537.5,57.5 Z"/></g>
<g><path style="opacity:1" fill="#deceb3" d="M 516.5,82.5 C 517.918,84.3079 519.918,84.9746 522.5,84.5C 519.862,85.7037 517.529,87.3704 515.5,89.5C 514.833,87.5 513.5,86.1667 511.5,85.5C 512.965,84.2632 514.632,83.2632 516.5,82.5 Z"/></g>
<g><path style="opacity:1" fill="#dfcdb4" d="M 734.5,81.5 C 737.232,82.866 739.899,84.1993 742.5,85.5C 739.796,85.6696 738.129,87.0029 737.5,89.5C 734.921,87.3803 731.921,86.047 728.5,85.5C 730.265,84.5386 732.265,84.2053 734.5,84.5C 734.5,83.5 734.5,82.5 734.5,81.5 Z"/></g>
<g><path style="opacity:1" fill="#c29a60" d="M 734.5,81.5 C 734.5,82.5 734.5,83.5 734.5,84.5C 732.265,84.2053 730.265,84.5386 728.5,85.5C 722.546,92.1463 715.212,94.1463 706.5,91.5C 697.514,86.5383 692.847,78.8716 692.5,68.5C 687.134,66.2713 681.801,64.2713 676.5,62.5C 678.433,62.2714 680.1,61.4381 681.5,60C 680.944,59.6174 680.611,59.1174 680.5,58.5C 685.281,59.9043 690.114,61.2377 695,62.5C 697.998,59.3361 701.164,56.3361 704.5,53.5C 709.463,52.5036 714.463,52.3369 719.5,53C 731.396,57.6258 735.73,66.1258 732.5,78.5C 732.942,79.7387 733.609,80.7387 734.5,81.5 Z"/></g>
<g><path style="opacity:1" fill="#d9c8a9" d="M 726.5,65.5 C 727.997,67.2897 728.664,69.4563 728.5,72C 728.492,73.7067 728.158,75.2067 727.5,76.5C 727.448,72.8019 727.114,69.1352 726.5,65.5 Z"/></g>
<g><path style="opacity:1" fill="#f4f3f2" d="M 726.5,65.5 C 727.114,69.1352 727.448,72.8019 727.5,76.5C 721.754,87.5099 713.588,89.5099 703,82.5C 697.179,73.1798 698.679,65.3465 707.5,59C 715.554,56.6652 721.887,58.8319 726.5,65.5 Z"/></g>
<g><path style="opacity:1" fill="#c19a61" d="M 511.5,85.5 C 513.5,86.1667 514.833,87.5 515.5,89.5C 509.663,92.9175 503.996,96.5842 498.5,100.5C 496.596,100.262 495.262,99.2624 494.5,97.5C 499.607,92.7297 505.273,88.7297 511.5,85.5 Z"/></g>
<g><path style="opacity:1" fill="#d4bc96" d="M 494.5,97.5 C 495.262,99.2624 496.596,100.262 498.5,100.5C 496.508,101.83 494.508,103.164 492.5,104.5C 492.5,102.5 491.5,101.5 489.5,101.5C 491.142,100.197 492.809,98.8637 494.5,97.5 Z"/></g>
<g><path style="opacity:1" fill="#c9a978" d="M 492.5,108.5 C 493.926,110.679 494.592,113.179 494.5,116C 494.492,117.707 494.158,119.207 493.5,120.5C 493.664,117.813 493.497,115.146 493,112.5C 492.597,120.348 491.597,120.348 490,112.5C 489.817,115.365 489.317,118.031 488.5,120.5C 488.889,116.586 488.222,112.92 486.5,109.5C 488.315,110.63 490.315,111.296 492.5,111.5C 492.5,110.5 492.5,109.5 492.5,108.5 Z"/></g>
<g><path style="opacity:1" fill="#f8f7f6" d="M 522.5,84.5 C 525.126,85.8622 527.46,87.6955 529.5,90C 531.743,91.1362 534.076,91.9695 536.5,92.5C 538.292,93.3091 540.292,93.8091 542.5,94C 540.5,94.3333 538.5,94.6667 536.5,95C 536.584,100.956 536.584,107.123 536.5,113.5C 527.167,113.5 517.833,113.5 508.5,113.5C 508.5,122.833 508.5,132.167 508.5,141.5C 499.167,141.5 489.833,141.5 480.5,141.5C 480.5,151.167 480.5,160.833 480.5,170.5C 471.167,170.5 461.833,170.5 452.5,170.5C 452.217,162.575 452.217,154.575 452.5,146.5C 455.053,141.443 458.553,137.109 463,133.5C 470.371,137.298 477.871,137.465 485.5,134C 490.371,130.752 493.037,126.252 493.5,120.5C 494.158,119.207 494.492,117.707 494.5,116C 494.592,113.179 493.926,110.679 492.5,108.5C 491.167,107.167 491.167,105.833 492.5,104.5C 494.508,103.164 496.508,101.83 498.5,100.5C 503.996,96.5842 509.663,92.9175 515.5,89.5C 517.529,87.3704 519.862,85.7037 522.5,84.5 Z"/></g>
<g><path style="opacity:1" fill="#f4f3f1" d="M 486.5,109.5 C 488.222,112.92 488.889,116.586 488.5,120.5C 484.716,130.725 477.716,133.891 467.5,130C 457.839,120.816 458.172,112.149 468.5,104C 475.928,101.31 481.928,103.144 486.5,109.5 Z"/></g>
<g><path style="opacity:1" fill="#c39d63" d="M 742.5,85.5 C 750.407,90.5661 757.907,96.2328 765,102.5C 767.167,101 769.333,99.5 771.5,98C 776.155,97.5008 780.821,97.3342 785.5,97.5C 787.118,99.316 789.118,100.649 791.5,101.5C 795.379,104.591 797.712,108.591 798.5,113.5C 798.664,116.187 798.497,118.854 798,121.5C 796.553,124.507 795.553,127.507 795,130.5C 801.564,137.317 807.397,144.65 812.5,152.5C 811.738,154.262 810.404,155.262 808.5,155.5C 802.973,148.312 797.307,141.145 791.5,134C 788.756,134.019 786.089,134.686 783.5,136C 779.179,136.499 774.846,136.666 770.5,136.5C 759.51,129.033 756.51,119.2 761.5,107C 754.067,100.444 746.067,94.611 737.5,89.5C 738.129,87.0029 739.796,85.6696 742.5,85.5 Z"/></g>
<g><path style="opacity:1" fill="#f7f6f4" d="M 775.5,102.5 C 788.529,103.024 794.029,109.691 792,122.5C 789.833,126 787,128.833 783.5,131C 774.535,133.268 768.369,130.101 765,121.5C 763.326,112.174 766.826,105.84 775.5,102.5 Z"/></g>
<g><path style="opacity:1" fill="#e8e5de" d="M 455.5,112.5 C 454.576,118.769 455.909,124.436 459.5,129.5C 457.812,131.854 455.812,133.854 453.5,135.5C 452.658,130.765 452.324,126.098 452.5,121.5C 452.737,118.937 453.237,118.937 454,121.5C 454.181,118.305 454.681,115.305 455.5,112.5 Z"/></g>
<g><path style="opacity:1" fill="#c39b5f" d="M 479.5,97.5 C 481.942,98.7186 484.276,100.219 486.5,102C 487.749,102.74 488.749,102.573 489.5,101.5C 491.5,101.5 492.5,102.5 492.5,104.5C 491.167,105.833 491.167,107.167 492.5,108.5C 492.5,109.5 492.5,110.5 492.5,111.5C 490.315,111.296 488.315,110.63 486.5,109.5C 481.928,103.144 475.928,101.31 468.5,104C 458.172,112.149 457.839,120.816 467.5,130C 477.716,133.891 484.716,130.725 488.5,120.5C 489.317,118.031 489.817,115.365 490,112.5C 491.597,120.348 492.597,120.348 493,112.5C 493.497,115.146 493.664,117.813 493.5,120.5C 493.037,126.252 490.371,130.752 485.5,134C 477.871,137.465 470.371,137.298 463,133.5C 458.553,137.109 455.053,141.443 452.5,146.5C 450.066,149.171 447.733,152.004 445.5,155C 442.35,155.238 441.184,153.738 442,150.5C 444.054,147.953 445.887,145.286 447.5,142.5C 449.727,140.393 451.727,138.06 453.5,135.5C 455.812,133.854 457.812,131.854 459.5,129.5C 455.909,124.436 454.576,118.769 455.5,112.5C 459.251,100.947 467.251,95.9471 479.5,97.5 Z"/></g>
<g><path style="opacity:1" fill="#f8f8f6" d="M 808.5,155.5 C 810.284,157.948 811.618,160.615 812.5,163.5C 810.588,165.657 808.921,167.991 807.5,170.5C 802.167,170.5 796.833,170.5 791.5,170.5C 791.759,160.969 791.425,151.302 790.5,141.5C 781.583,141.698 772.583,141.698 763.5,141.5C 763.337,139.143 763.503,136.81 764,134.5C 765.621,137.321 767.788,137.987 770.5,136.5C 774.846,136.666 779.179,136.499 783.5,136C 786.089,134.686 788.756,134.019 791.5,134C 797.307,141.145 802.973,148.312 808.5,155.5 Z"/></g>
<g><path style="opacity:1" fill="#f3f2f2" d="M 706.5,91.5 C 715.212,94.1463 722.546,92.1463 728.5,85.5C 731.921,86.047 734.921,87.3803 737.5,89.5C 746.067,94.611 754.067,100.444 761.5,107C 756.51,119.2 759.51,129.033 770.5,136.5C 767.788,137.987 765.621,137.321 764,134.5C 763.503,136.81 763.337,139.143 763.5,141.5C 772.583,141.698 781.583,141.698 790.5,141.5C 791.425,151.302 791.759,160.969 791.5,170.5C 796.833,170.5 802.167,170.5 807.5,170.5C 803.892,181.677 806.892,190.677 816.5,197.5C 808.35,198.493 800.017,198.826 791.5,198.5C 790.194,207.705 790.194,216.705 791.5,225.5C 800.81,226.498 810.143,226.832 819.5,226.5C 819.5,236.167 819.5,245.833 819.5,255.5C 810.161,255.334 800.827,255.5 791.5,256C 790.423,265.104 790.423,274.271 791.5,283.5C 800.833,283.5 810.167,283.5 819.5,283.5C 819.5,292.833 819.5,302.167 819.5,311.5C 828.873,311.248 838.207,311.582 847.5,312.5C 847.185,316.371 847.518,320.038 848.5,323.5C 848.494,336.484 854.827,343.817 867.5,345.5C 867.5,353.5 867.5,361.5 867.5,369.5C 860.891,368.577 854.224,368.244 847.5,368.5C 847.666,359.161 847.5,349.827 847,340.5C 837.984,340.421 828.817,340.421 819.5,340.5C 819.5,349.833 819.5,359.167 819.5,368.5C 810.143,368.168 800.81,368.502 791.5,369.5C 790.513,378.243 790.513,387.243 791.5,396.5C 800.833,396.5 810.167,396.5 819.5,396.5C 819.5,405.833 819.5,415.167 819.5,424.5C 829.074,424.883 838.407,424.883 847.5,424.5C 847.016,419.241 847.683,414.241 849.5,409.5C 852.2,415.863 856.866,420.197 863.5,422.5C 862.833,426.167 862.167,429.833 861.5,433.5C 860.454,436.728 859.788,440.061 859.5,443.5C 858.622,447.336 857.956,451.336 857.5,455.5C 852.655,455.904 847.989,457.237 843.5,459.5C 843.389,458.883 843.056,458.383 842.5,458C 843.685,456.647 845.019,455.48 846.5,454.5C 837.525,453.502 828.525,453.168 819.5,453.5C 819.5,462.833 819.5,472.167 819.5,481.5C 823.682,481.67 827.682,481.67 831.5,481.5C 832.971,482.381 833.804,483.714 834,485.5C 834.483,484.552 834.649,483.552 834.5,482.5C 836.705,487.378 840.039,491.378 844.5,494.5C 843.985,496.894 843.319,499.228 842.5,501.5C 839.728,506.142 837.728,511.142 836.5,516.5C 835.497,519.518 834.164,522.518 832.5,525.5C 831.675,526.386 830.675,526.719 829.5,526.5C 815.635,525.361 807.635,531.694 805.5,545.5C 805.762,552.355 808.429,558.022 813.5,562.5C 813.296,564.685 812.63,566.685 811.5,568.5C 807.846,573.796 804.179,579.129 800.5,584.5C 799.519,586.396 798.519,588.396 797.5,590.5C 796.675,591.386 795.675,591.719 794.5,591.5C 790.343,589.938 786.01,589.271 781.5,589.5C 784.287,588.523 787.287,588.19 790.5,588.5C 791.096,581.405 791.43,574.071 791.5,566.5C 782.161,566.334 772.827,566.5 763.5,567C 762.515,576.083 762.182,585.249 762.5,594.5C 753.167,594.5 743.833,594.5 734.5,594.5C 734.5,585.167 734.5,575.833 734.5,566.5C 743.833,566.5 753.167,566.5 762.5,566.5C 762.5,557.167 762.5,547.833 762.5,538.5C 753.167,538.5 743.833,538.5 734.5,538.5C 734.5,529.167 734.5,519.833 734.5,510.5C 725.346,510.406 716.013,510.406 706.5,510.5C 706.5,519.833 706.5,529.167 706.5,538.5C 696.833,538.5 687.167,538.5 677.5,538.5C 677.731,529.07 677.731,519.737 677.5,510.5C 668.188,509.558 658.855,509.558 649.5,510.5C 649.5,519.833 649.5,529.167 649.5,538.5C 640.167,538.5 630.833,538.5 621.5,538.5C 621.5,529.167 621.5,519.833 621.5,510.5C 612.083,510.805 602.75,510.472 593.5,509.5C 593.666,500.494 593.5,491.494 593,482.5C 583.667,481.167 574.333,481.167 565,482.5C 564.5,491.827 564.334,501.161 564.5,510.5C 555.485,509.88 546.152,509.88 536.5,510.5C 536.5,519.833 536.5,529.167 536.5,538.5C 527.167,538.5 517.833,538.5 508.5,538.5C 508.5,547.833 508.5,557.167 508.5,566.5C 499.167,566.5 489.833,566.5 480.5,566.5C 480.804,575.584 480.471,584.584 479.5,593.5C 474.304,589.665 468.637,588.665 462.5,590.5C 461.041,590.433 459.708,590.766 458.5,591.5C 456.983,591.489 455.816,590.823 455,589.5C 454.243,587.685 453.41,586.019 452.5,584.5C 449.402,579.291 446.068,574.291 442.5,569.5C 440.925,567.453 439.925,565.119 439.5,562.5C 447.258,556.178 449.592,548.178 446.5,538.5C 449.045,538.849 451.045,538.016 452.5,536C 452.064,527.909 451.898,519.742 452,511.5C 442.367,509.841 432.867,509.508 423.5,510.5C 423.735,515.459 423.735,520.292 423.5,525C 426.695,525.181 429.695,525.681 432.5,526.5C 429.833,526.5 427.167,526.5 424.5,526.5C 423.022,526.762 421.689,526.429 420.5,525.5C 419.339,523.115 418.339,520.781 417.5,518.5C 415.871,513.265 413.871,508.265 411.5,503.5C 410.302,500.574 409.302,497.574 408.5,494.5C 417.302,488.956 420.802,480.956 419,470.5C 414.653,460.904 407.153,456.237 396.5,456.5C 395.962,454.883 395.629,453.216 395.5,451.5C 396.222,451.918 396.722,452.584 397,453.5C 405.762,452.704 414.595,452.704 423.5,453.5C 423.5,444.167 423.5,434.833 423.5,425.5C 414.23,425.061 404.896,425.061 395.5,425.5C 395.32,429.215 395.654,432.882 396.5,436.5C 396.122,438.717 395.455,440.717 394.5,442.5C 394.167,442.5 393.833,442.5 393.5,442.5C 393.717,439.579 393.051,436.913 391.5,434.5C 391.784,432.585 391.451,430.919 390.5,429.5C 390.552,427.097 390.219,424.764 389.5,422.5C 400.547,418.426 405.547,410.426 404.5,398.5C 404.611,397.883 404.944,397.383 405.5,397C 411.491,396.501 417.491,396.334 423.5,396.5C 423.5,387.167 423.5,377.833 423.5,368.5C 432.833,368.5 442.167,368.5 451.5,368.5C 451.984,359.297 451.984,350.297 451.5,341.5C 442.19,340.502 432.857,340.168 423.5,340.5C 424.188,331.209 424.188,321.875 423.5,312.5C 416.185,311.585 408.852,311.418 401.5,312C 400.944,312.383 400.611,312.883 400.5,313.5C 397.129,310.146 393.129,307.813 388.5,306.5C 388.31,302.968 388.977,299.635 390.5,296.5C 391.315,291.798 392.315,287.131 393.5,282.5C 394.479,279.375 394.813,276.042 394.5,272.5C 393.325,272.719 392.325,272.386 391.5,271.5C 392.689,270.571 394.022,270.238 395.5,270.5C 395.379,274.825 396.046,278.991 397.5,283C 406.16,283.5 414.827,283.666 423.5,283.5C 423.5,274.167 423.5,264.833 423.5,255.5C 421.833,255.5 420.167,255.5 418.5,255.5C 420.317,245.478 416.984,237.811 408.5,232.5C 408.768,229.881 408.435,227.381 407.5,225C 409.119,224.764 410.119,223.931 410.5,222.5C 412.54,217.238 414.706,211.904 417,206.5C 418.174,202.339 416.841,201.005 413,202.5C 410.265,207.299 408.098,212.299 406.5,217.5C 405.91,219.99 405.743,222.657 406,225.5C 404.613,227.047 403.447,228.713 402.5,230.5C 386.04,230.793 378.54,239.126 380,255.5C 382.114,261.123 385.614,265.456 390.5,268.5C 390.445,271.066 389.778,273.733 388.5,276.5C 386.735,281.66 385.735,286.993 385.5,292.5C 384.514,296.97 384.181,301.637 384.5,306.5C 376.974,306.095 371.307,309.095 367.5,315.5C 367.244,313.224 365.91,312.057 363.5,312C 355.534,311.816 347.534,311.649 339.5,311.5C 339.818,302.249 339.485,293.083 338.5,284C 329.173,283.5 319.839,283.334 310.5,283.5C 310.5,274.167 310.5,264.833 310.5,255.5C 301.167,255.5 291.833,255.5 282.5,255.5C 282.5,264.833 282.5,274.167 282.5,283.5C 273.167,283.5 263.833,283.5 254.5,283.5C 254.5,274.167 254.5,264.833 254.5,255.5C 245.161,255.334 235.827,255.5 226.5,256C 225.515,265.083 225.182,274.249 225.5,283.5C 216.167,283.5 206.833,283.5 197.5,283.5C 197.5,274.167 197.5,264.833 197.5,255.5C 206.833,255.5 216.167,255.5 225.5,255.5C 225.5,245.833 225.5,236.167 225.5,226.5C 235.167,226.5 244.833,226.5 254.5,226.5C 254.5,217.167 254.5,207.833 254.5,198.5C 263.833,198.5 273.167,198.5 282.5,198.5C 282.5,207.833 282.5,217.167 282.5,226.5C 291.833,226.5 301.167,226.5 310.5,226.5C 310.5,217.167 310.5,207.833 310.5,198.5C 320.167,198.5 329.833,198.5 339.5,198.5C 339.5,207.833 339.5,217.167 339.5,226.5C 348.833,226.5 358.167,226.5 367.5,226.5C 367.5,217.167 367.5,207.833 367.5,198.5C 376.833,198.5 386.167,198.5 395.5,198.5C 395.5,189.167 395.5,179.833 395.5,170.5C 400.167,170.5 404.833,170.5 409.5,170.5C 406.27,180.868 408.936,189.368 417.5,196C 425.867,199.697 433.867,199.03 441.5,194C 448.831,184.859 449.331,175.359 443,165.5C 437.818,160.606 431.651,158.606 424.5,159.5C 423.229,153.636 423.229,147.802 424.5,142C 431.747,141.815 438.913,141.315 446,140.5C 446.278,141.416 446.778,142.082 447.5,142.5C 445.887,145.286 444.054,147.953 442,150.5C 441.184,153.738 442.35,155.238 445.5,155C 447.733,152.004 450.066,149.171 452.5,146.5C 452.217,154.575 452.217,162.575 452.5,170.5C 461.833,170.5 471.167,170.5 480.5,170.5C 480.5,179.833 480.5,189.167 480.5,198.5C 471.143,198.168 461.81,198.502 452.5,199.5C 452.016,208.297 452.016,217.297 452.5,226.5C 461.833,226.5 471.167,226.5 480.5,226.5C 480.5,236.167 480.5,245.833 480.5,255.5C 471.167,255.5 461.833,255.5 452.5,255.5C 451.297,264.826 451.297,274.16 452.5,283.5C 461.833,283.5 471.167,283.5 480.5,283.5C 480.5,292.833 480.5,302.167 480.5,311.5C 489.833,311.5 499.167,311.5 508.5,311.5C 508.5,302.167 508.5,292.833 508.5,283.5C 517.833,283.5 527.167,283.5 536.5,283.5C 536.5,274.167 536.5,264.833 536.5,255.5C 545.833,255.5 555.167,255.5 564.5,255.5C 564.248,264.873 564.582,274.207 565.5,283.5C 574.833,283.5 584.167,283.5 593.5,283.5C 593.5,292.833 593.5,302.167 593.5,311.5C 602.833,311.5 612.167,311.5 621.5,311.5C 621.5,321.167 621.5,330.833 621.5,340.5C 612.167,340.5 602.833,340.5 593.5,340.5C 593.5,349.833 593.5,359.167 593.5,368.5C 602.833,368.5 612.167,368.5 621.5,368.5C 621.5,377.833 621.5,387.167 621.5,396.5C 630.833,396.5 640.167,396.5 649.5,396.5C 649.5,387.167 649.5,377.833 649.5,368.5C 658.833,368.5 668.167,368.5 677.5,368.5C 677.5,359.167 677.5,349.833 677.5,340.5C 668.167,340.5 658.833,340.5 649.5,340.5C 649.5,330.833 649.5,321.167 649.5,311.5C 658.833,311.5 668.167,311.5 677.5,311.5C 677.938,302.11 677.938,292.777 677.5,283.5C 687.167,283.5 696.833,283.5 706.5,283.5C 706.5,292.833 706.5,302.167 706.5,311.5C 715.833,311.5 725.167,311.5 734.5,311.5C 734.5,302.167 734.5,292.833 734.5,283.5C 743.833,283.5 753.167,283.5 762.5,283.5C 762.5,274.167 762.5,264.833 762.5,255.5C 753.167,255.5 743.833,255.5 734.5,255.5C 734.5,245.833 734.5,236.167 734.5,226.5C 743.833,226.5 753.167,226.5 762.5,226.5C 762.5,217.167 762.5,207.833 762.5,198.5C 771.833,198.5 781.167,198.5 790.5,198.5C 791.132,189.149 791.132,180.149 790.5,171.5C 781.19,170.502 771.857,170.168 762.5,170.5C 762.5,161.167 762.5,151.833 762.5,142.5C 753.195,141.646 743.861,141.313 734.5,141.5C 734.5,151.167 734.5,160.833 734.5,170.5C 725.167,170.5 715.833,170.5 706.5,170.5C 706.666,161.161 706.5,151.827 706,142.5C 696.917,141.515 687.751,141.182 678.5,141.5C 677.949,150.969 677.616,160.635 677.5,170.5C 668.167,170.5 658.833,170.5 649.5,170.5C 649.5,160.833 649.5,151.167 649.5,141.5C 658.833,141.5 668.167,141.5 677.5,141.5C 677.5,132.167 677.5,122.833 677.5,113.5C 668.167,113.5 658.833,113.5 649.5,113.5C 649.5,104.167 649.5,94.8333 649.5,85.5C 657.087,85.8142 664.587,85.4808 672,84.5C 673.734,85.2489 675.567,85.7489 677.5,86C 677.807,94.9664 678.14,104.133 678.5,113.5C 687.506,113.666 696.506,113.5 705.5,113C 706.305,105.806 706.639,98.6395 706.5,91.5 Z"/></g>
<g><path style="opacity:1" fill="#e8e0d3" d="M 812.5,152.5 C 813.81,154.435 815.143,156.435 816.5,158.5C 817.325,159.386 818.325,159.719 819.5,159.5C 817.209,160.765 814.875,162.098 812.5,163.5C 811.618,160.615 810.284,157.948 808.5,155.5C 810.404,155.262 811.738,154.262 812.5,152.5 Z"/></g>
<g><path style="opacity:1" fill="#c49c61" d="M 819.5,159.5 C 829.283,157.701 837.116,160.701 843,168.5C 848.362,188.763 840.528,198.763 819.5,198.5C 818.609,197.89 817.609,197.557 816.5,197.5C 806.892,190.677 803.892,181.677 807.5,170.5C 808.921,167.991 810.588,165.657 812.5,163.5C 814.875,162.098 817.209,160.765 819.5,159.5 Z"/></g>
<g><path style="opacity:1" fill="#c29a5f" d="M 424.5,159.5 C 431.651,158.606 437.818,160.606 443,165.5C 449.331,175.359 448.831,184.859 441.5,194C 433.867,199.03 425.867,199.697 417.5,196C 408.936,189.368 406.27,180.868 409.5,170.5C 412.519,164.149 417.519,160.483 424.5,159.5 Z"/></g>
<g><path style="opacity:1" fill="#f6f5f3" d="M 422.5,164.5 C 433.37,163.393 440.036,168.06 442.5,178.5C 441.285,189.274 435.285,194.107 424.5,193C 414.748,188.073 411.914,180.573 416,170.5C 418.063,168.266 420.229,166.266 422.5,164.5 Z"/></g>
<g><path style="opacity:1" fill="#f7f6f4" d="M 821.5,164.5 C 837.332,165.146 842.499,172.813 837,187.5C 827.444,196.295 819.11,195.295 812,184.5C 809.574,175.023 812.74,168.356 821.5,164.5 Z"/></g>
<g><path style="opacity:1" fill="#f2f3f2" d="M -0.5,170.5 C 8.83333,170.5 18.1667,170.5 27.5,170.5C 27.5,179.833 27.5,189.167 27.5,198.5C 18.1667,198.5 8.83333,198.5 -0.5,198.5C -0.5,189.167 -0.5,179.833 -0.5,170.5 Z"/></g>
<g><path style="opacity:1" fill="#f2f3f2" d="M 282.5,170.5 C 291.833,170.5 301.167,170.5 310.5,170.5C 310.5,179.833 310.5,189.167 310.5,198.5C 301.167,198.5 291.833,198.5 282.5,198.5C 282.5,189.167 282.5,179.833 282.5,170.5 Z"/></g>
<g><path style="opacity:1" fill="#f2f2f3" d="M 677.5,170.5 C 687.167,170.5 696.833,170.5 706.5,170.5C 706.5,179.833 706.5,189.167 706.5,198.5C 696.833,198.5 687.167,198.5 677.5,198.5C 677.5,189.167 677.5,179.833 677.5,170.5 Z"/></g>
<g><path style="opacity:1" fill="#f2f2f3" d="M 1187.5,170.5 C 1196.83,170.5 1206.17,170.5 1215.5,170.5C 1215.5,179.833 1215.5,189.167 1215.5,198.5C 1206.17,198.5 1196.83,198.5 1187.5,198.5C 1187.5,189.167 1187.5,179.833 1187.5,170.5 Z"/></g>
<g><path style="opacity:1" fill="#bc9254" d="M 410.5,222.5 C 407.53,222.254 406.197,220.588 406.5,217.5C 408.098,212.299 410.265,207.299 413,202.5C 416.841,201.005 418.174,202.339 417,206.5C 414.706,211.904 412.54,217.238 410.5,222.5 Z"/></g>
<g><path style="opacity:1" fill="#c2995f" d="M 846.5,215.5 C 846.5,216.167 846.5,216.833 846.5,217.5C 846.631,220.367 845.297,222.033 842.5,222.5C 840.639,216.756 838.472,211.089 836,205.5C 835.196,201.705 836.53,200.371 840,201.5C 842.489,206.137 844.656,210.804 846.5,215.5 Z"/></g>
<g><path style="opacity:1" fill="#dfd3c1" d="M 406.5,217.5 C 406.197,220.588 407.53,222.254 410.5,222.5C 410.119,223.931 409.119,224.764 407.5,225C 408.435,227.381 408.768,229.881 408.5,232.5C 406.858,230.919 404.858,230.253 402.5,230.5C 403.447,228.713 404.613,227.047 406,225.5C 405.743,222.657 405.91,219.99 406.5,217.5 Z"/></g>
<g><path style="opacity:1" fill="#e2d8c8" d="M 846.5,217.5 C 847.553,220.608 848.886,223.608 850.5,226.5C 850.5,227.833 850.5,229.167 850.5,230.5C 848.486,230.392 846.82,231.058 845.5,232.5C 845.125,230.302 844.458,228.302 843.5,226.5C 843.567,225.041 843.234,223.708 842.5,222.5C 845.297,222.033 846.631,220.367 846.5,217.5 Z"/></g>
<g><path style="opacity:1" fill="#f9f9f8" d="M 819.5,226.5 C 827.639,227.139 835.639,227.139 843.5,226.5C 844.458,228.302 845.125,230.302 845.5,232.5C 836.135,237.916 832.802,245.916 835.5,256.5C 834.469,255.645 833.303,254.978 832,254.5C 827.738,254.854 823.571,255.187 819.5,255.5C 819.5,245.833 819.5,236.167 819.5,226.5 Z"/></g>
<g><path style="opacity:1" fill="#c29b60" d="M 850.5,230.5 C 860.817,229.406 868.317,233.406 873,242.5C 875.791,252.966 872.957,261.299 864.5,267.5C 860.097,269.299 855.43,269.966 850.5,269.5C 843.395,267.737 838.395,263.404 835.5,256.5C 832.802,245.916 836.135,237.916 845.5,232.5C 846.82,231.058 848.486,230.392 850.5,230.5 Z"/></g>
<g><path style="opacity:1" fill="#f4f3f2" d="M 413.5,250.5 C 412.679,255.487 410.346,259.487 406.5,262.5C 389.525,266.358 383.025,259.691 387,242.5C 392.312,236.341 398.812,234.841 406.5,238C 411.204,240.864 413.538,245.031 413.5,250.5 Z"/></g>
<g><path style="opacity:1" fill="#f6f5f3" d="M 848.5,236.5 C 864.058,234.882 870.225,241.549 867,256.5C 859.043,266.62 850.709,266.954 842,257.5C 838.471,248.62 840.637,241.62 848.5,236.5 Z"/></g>
<g><path style="opacity:1" fill="#c69e63" d="M 402.5,230.5 C 404.858,230.253 406.858,230.919 408.5,232.5C 416.984,237.811 420.317,245.478 418.5,255.5C 418.068,256.71 417.401,257.71 416.5,258.5C 416.5,255.833 416.5,253.167 416.5,250.5C 415.5,250.5 414.5,250.5 413.5,250.5C 413.538,245.031 411.204,240.864 406.5,238C 398.812,234.841 392.312,236.341 387,242.5C 383.025,259.691 389.525,266.358 406.5,262.5C 406.389,263.117 406.056,263.617 405.5,264C 406.984,264.662 408.317,265.496 409.5,266.5C 407.819,268.008 405.819,269.008 403.5,269.5C 399.069,269.769 394.735,269.436 390.5,268.5C 385.614,265.456 382.114,261.123 380,255.5C 378.54,239.126 386.04,230.793 402.5,230.5 Z"/></g>
<g><path style="opacity:1" fill="#f9f9f8" d="M 418.5,255.5 C 420.167,255.5 421.833,255.5 423.5,255.5C 423.5,264.833 423.5,274.167 423.5,283.5C 414.827,283.666 406.16,283.5 397.5,283C 396.046,278.991 395.379,274.825 395.5,270.5C 398.385,270.806 401.052,270.473 403.5,269.5C 405.819,269.008 407.819,268.008 409.5,266.5C 413.226,265.047 415.559,262.381 416.5,258.5C 417.401,257.71 418.068,256.71 418.5,255.5 Z"/></g>
<g><path style="opacity:1" fill="#c09553" d="M 413.5,250.5 C 414.5,250.5 415.5,250.5 416.5,250.5C 416.5,253.167 416.5,255.833 416.5,258.5C 415.559,262.381 413.226,265.047 409.5,266.5C 408.317,265.496 406.984,264.662 405.5,264C 406.056,263.617 406.389,263.117 406.5,262.5C 410.346,259.487 412.679,255.487 413.5,250.5 Z"/></g>
<g><path style="opacity:1" fill="#e8ddca" d="M 864.5,267.5 C 863.645,268.531 862.978,269.697 862.5,271C 863.414,272.406 864.08,273.906 864.5,275.5C 863.167,275.5 861.833,275.5 860.5,275.5C 859.491,274.061 859.824,272.728 861.5,271.5C 857.687,270.833 854.021,270.166 850.5,269.5C 855.43,269.966 860.097,269.299 864.5,267.5 Z"/></g>
<g><path style="opacity:1" fill="#e8e2d7" d="M 390.5,268.5 C 394.735,269.436 399.069,269.769 403.5,269.5C 401.052,270.473 398.385,270.806 395.5,270.5C 394.022,270.238 392.689,270.571 391.5,271.5C 392.325,272.386 393.325,272.719 394.5,272.5C 394.813,276.042 394.479,279.375 393.5,282.5C 393.799,280.396 393.466,278.396 392.5,276.5C 391.135,275.193 389.802,275.193 388.5,276.5C 389.778,273.733 390.445,271.066 390.5,268.5 Z"/></g>
<g><path style="opacity:1" fill="#c59d61" d="M 860.5,275.5 C 861.833,275.5 863.167,275.5 864.5,275.5C 866.557,282.341 867.557,289.341 867.5,296.5C 866.022,296.762 864.689,296.429 863.5,295.5C 863.006,293.974 862.339,292.641 861.5,291.5C 861.361,287.25 860.695,283.084 859.5,279C 859.514,277.615 859.848,276.449 860.5,275.5 Z"/></g>
<g><path style="opacity:1" fill="#c69f67" d="M 393.5,282.5 C 392.315,287.131 391.315,291.798 390.5,296.5C 388.958,297.301 387.292,297.634 385.5,297.5C 385.5,295.833 385.5,294.167 385.5,292.5C 385.735,286.993 386.735,281.66 388.5,276.5C 389.802,275.193 391.135,275.193 392.5,276.5C 393.466,278.396 393.799,280.396 393.5,282.5 Z"/></g>
<g><path style="opacity:1" fill="#ccaf81" d="M 861.5,291.5 C 862.339,292.641 863.006,293.974 863.5,295.5C 864.689,296.429 866.022,296.762 867.5,296.5C 867.5,297.5 867.5,298.5 867.5,299.5C 863.14,298.835 861.14,296.168 861.5,291.5 Z"/></g>
<g><path style="opacity:1" fill="#e0d1b9" d="M 385.5,292.5 C 385.5,294.167 385.5,295.833 385.5,297.5C 387.292,297.634 388.958,297.301 390.5,296.5C 388.977,299.635 388.31,302.968 388.5,306.5C 387.167,306.5 385.833,306.5 384.5,306.5C 384.181,301.637 384.514,296.97 385.5,292.5 Z"/></g>
<g><path style="opacity:1" fill="#c49d61" d="M 881.5,310.5 C 882.5,312.167 883.833,313.5 885.5,314.5C 890.516,324.971 888.85,334.305 880.5,342.5C 878.013,343.323 875.679,344.323 873.5,345.5C 873.167,345.5 872.833,345.5 872.5,345.5C 870.833,345.5 869.167,345.5 867.5,345.5C 854.827,343.817 848.494,336.484 848.5,323.5C 849.292,319.922 850.625,316.588 852.5,313.5C 861.32,303.874 870.986,302.874 881.5,310.5 Z"/></g>
<g><path style="opacity:1" fill="#f7f6f4" d="M 862.5,312.5 C 870.59,310.695 877.09,313.028 882,319.5C 884.852,331.814 880.019,338.814 867.5,340.5C 857.357,338.234 853.19,331.901 855,321.5C 856.642,317.7 859.142,314.7 862.5,312.5 Z"/></g>
<g><path style="opacity:1" fill="#c39b61" d="M 384.5,306.5 C 385.833,306.5 387.167,306.5 388.5,306.5C 393.129,307.813 397.129,310.146 400.5,313.5C 403.924,318.271 405.257,323.605 404.5,329.5C 401.869,339.124 395.536,344.457 385.5,345.5C 383.833,345.5 382.167,345.5 380.5,345.5C 368.809,341.489 363.642,333.156 365,320.5C 365.847,318.807 366.68,317.14 367.5,315.5C 371.307,309.095 376.974,306.095 384.5,306.5 Z"/></g>
<g><path style="opacity:1" fill="#f2f0ee" d="M 379.5,311.5 C 393.548,311.043 399.714,317.71 398,331.5C 392.824,340.358 385.657,342.524 376.5,338C 367.806,328.078 368.806,319.245 379.5,311.5 Z"/></g>
<g><path style="opacity:1" fill="#f3f3f2" d="M 404.5,329.5 C 405.391,330.261 406.058,331.261 406.5,332.5C 405.258,334.733 403.924,336.899 402.5,339C 409.385,340.425 416.385,340.925 423.5,340.5C 423.5,349.833 423.5,359.167 423.5,368.5C 414.167,368.5 404.833,368.5 395.5,368.5C 395.5,374.5 395.5,380.5 395.5,386.5C 384.562,381.262 375.229,383.262 367.5,392.5C 367.5,384.5 367.5,376.5 367.5,368.5C 371.167,368.5 374.833,368.5 378.5,368.5C 378.182,363.968 378.515,359.634 379.5,355.5C 379.334,362.175 379.5,368.842 380,375.5C 381.549,378.003 383.216,378.003 385,375.5C 385.5,368.508 385.666,361.508 385.5,354.5C 385.5,351.5 385.5,348.5 385.5,345.5C 395.536,344.457 401.869,339.124 404.5,329.5 Z"/></g>
<g><path style="opacity:1" fill="#f3f3f2" d="M 621.5,340.5 C 630.833,340.5 640.167,340.5 649.5,340.5C 649.5,349.833 649.5,359.167 649.5,368.5C 640.167,368.5 630.833,368.5 621.5,368.5C 621.5,359.167 621.5,349.833 621.5,340.5 Z"/></g>
<g><path style="opacity:1" fill="#e5dbca" d="M 380.5,345.5 C 382.167,345.5 383.833,345.5 385.5,345.5C 385.5,348.5 385.5,351.5 385.5,354.5C 383.5,354.5 381.5,354.5 379.5,354.5C 380.159,351.545 380.492,348.545 380.5,345.5 Z"/></g>
<g><path style="opacity:1" fill="#c29a5e" d="M 873.5,358.5 C 873.5,363.167 873.5,367.833 873.5,372.5C 871.833,372.5 870.167,372.5 868.5,372.5C 868.5,366.833 868.5,361.167 868.5,355.5C 869.833,355.5 871.167,355.5 872.5,355.5C 872.263,356.791 872.596,357.791 873.5,358.5 Z"/></g>
<g><path style="opacity:1" fill="#cdaf81" d="M 867.5,345.5 C 869.167,345.5 870.833,345.5 872.5,345.5C 872.467,349.869 872.8,354.202 873.5,358.5C 872.596,357.791 872.263,356.791 872.5,355.5C 871.167,355.5 869.833,355.5 868.5,355.5C 868.5,361.167 868.5,366.833 868.5,372.5C 870.167,372.5 871.833,372.5 873.5,372.5C 873.737,373.791 873.404,374.791 872.5,375.5C 870.446,375.635 868.779,374.968 867.5,373.5C 867.5,372.167 867.5,370.833 867.5,369.5C 867.5,361.5 867.5,353.5 867.5,345.5 Z"/></g>
<g><path style="opacity:1" fill="#c49d61" d="M 379.5,354.5 C 381.5,354.5 383.5,354.5 385.5,354.5C 385.666,361.508 385.5,368.508 385,375.5C 383.216,378.003 381.549,378.003 380,375.5C 379.5,368.842 379.334,362.175 379.5,355.5C 379.5,355.167 379.5,354.833 379.5,354.5 Z"/></g>
<g><path style="opacity:1" fill="#e5d8c5" d="M 867.5,373.5 C 868.779,374.968 870.446,375.635 872.5,375.5C 872.5,378.167 872.5,380.833 872.5,383.5C 870.833,383.5 869.167,383.5 867.5,383.5C 867.5,380.167 867.5,376.833 867.5,373.5 Z"/></g>
<g><path style="opacity:1" fill="#c49e64" d="M 867.5,383.5 C 869.167,383.5 870.833,383.5 872.5,383.5C 880.425,385.759 885.758,390.759 888.5,398.5C 889.624,413.316 882.957,421.65 868.5,423.5C 866.708,423.634 865.042,423.301 863.5,422.5C 856.866,420.197 852.2,415.863 849.5,409.5C 847.207,395.122 853.207,386.456 867.5,383.5 Z"/></g>
<g><path style="opacity:1" fill="#f4f3f1" d="M 863.5,389.5 C 876.539,388.053 883.039,393.72 883,406.5C 879.927,415.29 873.76,418.79 864.5,417C 856.447,413.394 853.28,407.228 855,398.5C 857.094,394.724 859.927,391.724 863.5,389.5 Z"/></g>
<g><path style="opacity:1" fill="#f9f8f7" d="M 864.5,450.5 C 864.5,449.5 864.5,448.5 864.5,447.5C 865.295,443.524 865.962,439.524 866.5,435.5C 867.294,431.642 867.96,427.642 868.5,423.5C 882.957,421.65 889.624,413.316 888.5,398.5C 890.571,397.191 893.071,396.525 896,396.5C 898.755,396.525 901.422,396.859 904,397.5C 904.599,406.516 904.432,415.516 903.5,424.5C 894.058,425.106 884.725,425.439 875.5,425.5C 875.5,434.833 875.5,444.167 875.5,453.5C 872.813,453.664 870.146,453.497 867.5,453C 865.881,452.764 864.881,451.931 864.5,450.5 Z"/></g>
<g><path style="opacity:1" fill="#c49e66" d="M 395.5,386.5 C 399.301,389.958 402.301,393.958 404.5,398.5C 405.547,410.426 400.547,418.426 389.5,422.5C 387.958,423.301 386.292,423.634 384.5,423.5C 369.154,420.823 362.82,411.823 365.5,396.5C 366.167,395.167 366.833,393.833 367.5,392.5C 375.229,383.262 384.562,381.262 395.5,386.5 Z"/></g>
<g><path style="opacity:1" fill="#f7f6f4" d="M 379.5,389.5 C 393.706,388.204 399.872,394.537 398,408.5C 393.251,416.794 386.418,419.294 377.5,416C 367.584,406.201 368.25,397.367 379.5,389.5 Z"/></g>
<g><path style="opacity:1" fill="#e9e1d4" d="M 389.5,422.5 C 390.219,424.764 390.552,427.097 390.5,429.5C 388.708,429.366 387.042,429.699 385.5,430.5C 385.702,428.05 385.369,425.717 384.5,423.5C 386.292,423.634 387.958,423.301 389.5,422.5 Z"/></g>
<g><path style="opacity:1" fill="#e2d1b9" d="M 863.5,422.5 C 865.042,423.301 866.708,423.634 868.5,423.5C 867.96,427.642 867.294,431.642 866.5,435.5C 866.5,433.833 866.5,432.167 866.5,430.5C 865.167,430.5 863.833,430.5 862.5,430.5C 862.737,431.791 862.404,432.791 861.5,433.5C 862.167,429.833 862.833,426.167 863.5,422.5 Z"/></g>
<g><path style="opacity:1" fill="#f9f9fa" d="M 976.5,424.5 C 980.911,424.814 985.078,425.814 989,427.5C 989.309,436.213 989.309,444.546 989,452.5C 979.917,453.485 970.751,453.818 961.5,453.5C 960.167,444.167 960.167,434.833 961.5,425.5C 966.695,425.821 971.695,425.487 976.5,424.5 Z"/></g>
<g><path style="opacity:1" fill="#c8a779" d="M 390.5,429.5 C 391.451,430.919 391.784,432.585 391.5,434.5C 389.883,435.038 388.216,435.371 386.5,435.5C 385.549,434.081 385.216,432.415 385.5,430.5C 387.042,429.699 388.708,429.366 390.5,429.5 Z"/></g>
<g><path style="opacity:1" fill="#c0985d" d="M 391.5,434.5 C 393.051,436.913 393.717,439.579 393.5,442.5C 393.463,445.702 391.797,447.368 388.5,447.5C 387.962,443.476 387.295,439.476 386.5,435.5C 388.216,435.371 389.883,435.038 391.5,434.5 Z"/></g>
<g><path style="opacity:1" fill="#be9456" d="M 866.5,435.5 C 865.962,439.524 865.295,443.524 864.5,447.5C 862.833,447.5 861.167,447.5 859.5,447.5C 859.5,446.167 859.5,444.833 859.5,443.5C 859.788,440.061 860.454,436.728 861.5,433.5C 862.404,432.791 862.737,431.791 862.5,430.5C 863.833,430.5 865.167,430.5 866.5,430.5C 866.5,432.167 866.5,433.833 866.5,435.5 Z"/></g>
<g><path style="opacity:1" fill="#deceb6" d="M 393.5,442.5 C 393.833,442.5 394.167,442.5 394.5,442.5C 394.508,445.545 394.841,448.545 395.5,451.5C 395.629,453.216 395.962,454.883 396.5,456.5C 394.716,456.893 393.05,457.559 391.5,458.5C 390.877,454.712 389.877,451.045 388.5,447.5C 391.797,447.368 393.463,445.702 393.5,442.5 Z"/></g>
<g><path style="opacity:1" fill="#e0d1b7" d="M 859.5,443.5 C 859.5,444.833 859.5,446.167 859.5,447.5C 861.167,447.5 862.833,447.5 864.5,447.5C 864.5,448.5 864.5,449.5 864.5,450.5C 862.96,452.838 862.294,455.505 862.5,458.5C 861.596,457.791 861.263,456.791 861.5,455.5C 860.167,455.5 858.833,455.5 857.5,455.5C 857.956,451.336 858.622,447.336 859.5,443.5 Z"/></g>
<g><path style="opacity:1" fill="#f2f3f2" d="M 1187.5,453.5 C 1196.83,453.5 1206.17,453.5 1215.5,453.5C 1215.5,462.833 1215.5,472.167 1215.5,481.5C 1206.17,481.5 1196.83,481.5 1187.5,481.5C 1187.5,472.167 1187.5,462.833 1187.5,453.5 Z"/></g>
<g><path style="opacity:1" fill="#c59e64" d="M 857.5,455.5 C 858.833,455.5 860.167,455.5 861.5,455.5C 861.263,456.791 861.596,457.791 862.5,458.5C 867.537,461.238 871.204,465.238 873.5,470.5C 874.816,487.848 866.816,496.515 849.5,496.5C 847.833,495.833 846.167,495.167 844.5,494.5C 840.039,491.378 836.705,487.378 834.5,482.5C 832.207,472.754 835.207,465.087 843.5,459.5C 847.989,457.237 852.655,455.904 857.5,455.5 Z"/></g>
<g><path style="opacity:1" fill="#f6f5f3" d="M 848.5,462.5 C 864.094,461.583 869.927,468.583 866,483.5C 861.096,490.506 854.596,492.339 846.5,489C 836.726,479.365 837.392,470.531 848.5,462.5 Z"/></g>
<g><path style="opacity:1" fill="#c59d63" d="M 396.5,456.5 C 407.153,456.237 414.653,460.904 419,470.5C 420.802,480.956 417.302,488.956 408.5,494.5C 406.374,495.048 404.374,495.715 402.5,496.5C 391.041,496.891 383.541,491.558 380,480.5C 378.827,470.512 382.66,463.179 391.5,458.5C 393.05,457.559 394.716,456.893 396.5,456.5 Z"/></g>
<g><path style="opacity:1" fill="#f6f5f3" d="M 394.5,462.5 C 409.171,461.337 415.338,468.004 413,482.5C 407.966,490.066 401.133,492.233 392.5,489C 385.026,483.138 383.526,475.971 388,467.5C 390.352,465.97 392.519,464.303 394.5,462.5 Z"/></g>
<g><path style="opacity:1" fill="#e2d6c5" d="M 408.5,494.5 C 409.302,497.574 410.302,500.574 411.5,503.5C 409.958,502.699 408.292,502.366 406.5,502.5C 406.5,503.5 406.5,504.5 406.5,505.5C 405.734,503.316 405.067,500.982 404.5,498.5C 405.025,497.808 405.692,497.308 406.5,497C 405.207,496.51 403.873,496.343 402.5,496.5C 404.374,495.715 406.374,495.048 408.5,494.5 Z"/></g>
<g><path style="opacity:1" fill="#e2d6c6" d="M 844.5,494.5 C 846.167,495.167 847.833,495.833 849.5,496.5C 848.49,500.615 847.49,504.615 846.5,508.5C 846.167,508.5 845.833,508.5 845.5,508.5C 847.471,504.781 846.471,502.448 842.5,501.5C 843.319,499.228 843.985,496.894 844.5,494.5 Z"/></g>
<g><path style="opacity:1" fill="#c49f68" d="M 842.5,501.5 C 846.471,502.448 847.471,504.781 845.5,508.5C 844.117,512.934 842.45,517.268 840.5,521.5C 839.167,521.5 837.833,521.5 836.5,521.5C 836.5,519.833 836.5,518.167 836.5,516.5C 837.728,511.142 839.728,506.142 842.5,501.5 Z"/></g>
<g><path style="opacity:1" fill="#f9f9f8" d="M 446.5,538.5 C 443.332,532.659 438.665,528.659 432.5,526.5C 429.695,525.681 426.695,525.181 423.5,525C 423.735,520.292 423.735,515.459 423.5,510.5C 432.867,509.508 442.367,509.841 452,511.5C 451.898,519.742 452.064,527.909 452.5,536C 451.045,538.016 449.045,538.849 446.5,538.5 Z"/></g>
<g><path style="opacity:1" fill="#c19a61" d="M 411.5,503.5 C 413.871,508.265 415.871,513.265 417.5,518.5C 417.833,521.5 416.5,522.833 413.5,522.5C 410.971,516.914 408.638,511.247 406.5,505.5C 406.5,504.5 406.5,503.5 406.5,502.5C 408.292,502.366 409.958,502.699 411.5,503.5 Z"/></g>
<g><path style="opacity:1" fill="#e0d4c0" d="M 417.5,518.5 C 418.339,520.781 419.339,523.115 420.5,525.5C 421.689,526.429 423.022,526.762 424.5,526.5C 421.83,527.248 419.163,528.248 416.5,529.5C 415.695,527.085 414.695,524.751 413.5,522.5C 416.5,522.833 417.833,521.5 417.5,518.5 Z"/></g>
<g><path style="opacity:1" fill="#e2d5bf" d="M 836.5,516.5 C 836.5,518.167 836.5,519.833 836.5,521.5C 837.833,521.5 839.167,521.5 840.5,521.5C 838.722,523.829 837.722,526.496 837.5,529.5C 834.646,528.795 831.979,527.795 829.5,526.5C 830.675,526.719 831.675,526.386 832.5,525.5C 834.164,522.518 835.497,519.518 836.5,516.5 Z"/></g>
<g><path style="opacity:1" fill="#c29b60" d="M 424.5,526.5 C 427.167,526.5 429.833,526.5 432.5,526.5C 438.665,528.659 443.332,532.659 446.5,538.5C 449.592,548.178 447.258,556.178 439.5,562.5C 438.373,563.122 437.373,563.955 436.5,565C 431.845,565.499 427.179,565.666 422.5,565.5C 418.112,564.552 414.612,562.219 412,558.5C 406.1,547.542 407.6,537.876 416.5,529.5C 419.163,528.248 421.83,527.248 424.5,526.5 Z"/></g>
<g><path style="opacity:1" fill="#f3f1ef" d="M 424.5,531.5 C 432.886,530.95 438.719,534.617 442,542.5C 442.116,557.377 434.949,562.877 420.5,559C 410.236,548.014 411.569,538.848 424.5,531.5 Z"/></g>
<g><path style="opacity:1" fill="#faf9f9" d="M 169.5,340.5 C 169.5,349.833 169.5,359.167 169.5,368.5C 160.167,368.5 150.833,368.5 141.5,368.5C 141.5,359.167 141.5,349.833 141.5,340.5C 150.833,340.5 160.167,340.5 169.5,340.5 Z"/></g>
<g><path style="opacity:1" fill="#f2f2f3" d="M 593.5,538.5 C 602.833,538.5 612.167,538.5 621.5,538.5C 621.5,547.833 621.5,557.167 621.5,566.5C 612.167,566.5 602.833,566.5 593.5,566.5C 593.5,557.167 593.5,547.833 593.5,538.5 Z"/></g>
<g><path style="opacity:1" fill="#f3f2f2" d="M 649.5,538.5 C 658.833,538.5 668.167,538.5 677.5,538.5C 678.011,547.749 678.011,557.082 677.5,566.5C 668.167,566.5 658.833,566.5 649.5,566.5C 649.5,557.167 649.5,547.833 649.5,538.5 Z"/></g>
<g><path style="opacity:1" fill="#c39d63" d="M 829.5,526.5 C 831.979,527.795 834.646,528.795 837.5,529.5C 849.38,543.363 847.713,555.363 832.5,565.5C 828.901,566.344 825.234,566.677 821.5,566.5C 821.5,565.833 821.167,565.5 820.5,565.5C 818.066,564.869 815.732,563.869 813.5,562.5C 808.429,558.022 805.762,552.355 805.5,545.5C 807.635,531.694 815.635,525.361 829.5,526.5 Z"/></g>
<g><path style="opacity:1" fill="#f4f3f1" d="M 820.5,531.5 C 838.832,532.341 843.832,540.841 835.5,557C 826.866,562.599 819.366,561.432 813,553.5C 811.637,549.239 811.304,544.905 812,540.5C 814.362,536.973 817.196,533.973 820.5,531.5 Z"/></g>
<g><path style="opacity:1" fill="#f3f2f2" d="M 1017.5,566.5 C 1026.83,566.5 1036.17,566.5 1045.5,566.5C 1045.5,575.833 1045.5,585.167 1045.5,594.5C 1036.17,594.5 1026.83,594.5 1017.5,594.5C 1017.5,585.167 1017.5,575.833 1017.5,566.5 Z"/></g>
<g><path style="opacity:1" fill="#e3d5c0" d="M 439.5,562.5 C 439.925,565.119 440.925,567.453 442.5,569.5C 440.585,569.216 438.919,569.549 437.5,570.5C 436.751,569.469 436.085,568.302 435.5,567C 431.514,566.501 427.514,566.334 423.5,566.5C 422.833,566.5 422.5,566.167 422.5,565.5C 427.179,565.666 431.845,565.499 436.5,565C 437.373,563.955 438.373,563.122 439.5,562.5 Z"/></g>
<g><path style="opacity:1" fill="#dfd1ba" d="M 813.5,562.5 C 815.732,563.869 818.066,564.869 820.5,565.5C 818.011,565.298 815.677,565.798 813.5,567C 816.269,567.835 816.935,569.335 815.5,571.5C 815.306,569.088 813.973,568.088 811.5,568.5C 812.63,566.685 813.296,564.685 813.5,562.5 Z"/></g>
<g><path style="opacity:1" fill="#f9f9f8" d="M 423.5,566.5 C 427.514,566.334 431.514,566.501 435.5,567C 436.085,568.302 436.751,569.469 437.5,570.5C 440.57,576.304 443.903,581.97 447.5,587.5C 449.959,590.087 451.626,593.087 452.5,596.5C 451.5,596.833 450.833,597.5 450.5,598.5C 449.986,597.375 449.653,596.209 449.5,595C 440.84,594.5 432.173,594.334 423.5,594.5C 423.289,585.8 423.623,577.133 424.5,568.5C 427.187,568.664 429.854,568.497 432.5,568C 429.305,567.819 426.305,567.319 423.5,566.5 Z"/></g>
<g><path style="opacity:1" fill="#f1f0ef" d="M 820.5,565.5 C 821.167,565.5 821.5,565.833 821.5,566.5C 820.883,566.611 820.383,566.944 820,567.5C 819.5,576.494 819.334,585.494 819.5,594.5C 813.409,594.789 807.409,594.455 801.5,593.5C 802.441,591.228 803.774,589.228 805.5,587.5C 809.195,582.455 812.528,577.122 815.5,571.5C 816.935,569.335 816.269,567.835 813.5,567C 815.677,565.798 818.011,565.298 820.5,565.5 Z"/></g>
<g><path style="opacity:1" fill="#c69c62" d="M 442.5,569.5 C 446.068,574.291 449.402,579.291 452.5,584.5C 451.514,586.408 449.848,587.408 447.5,587.5C 443.903,581.97 440.57,576.304 437.5,570.5C 438.919,569.549 440.585,569.216 442.5,569.5 Z"/></g>
<g><path style="opacity:1" fill="#c09a5f" d="M 811.5,568.5 C 813.973,568.088 815.306,569.088 815.5,571.5C 812.528,577.122 809.195,582.455 805.5,587.5C 802.715,588.084 801.048,587.084 800.5,584.5C 804.179,579.129 807.846,573.796 811.5,568.5 Z"/></g>
<g><path style="opacity:1" fill="#e2d6c2" d="M 800.5,584.5 C 801.048,587.084 802.715,588.084 805.5,587.5C 803.774,589.228 802.441,591.228 801.5,593.5C 800.662,593.842 800.328,594.508 800.5,595.5C 798.81,593.658 796.81,592.325 794.5,591.5C 795.675,591.719 796.675,591.386 797.5,590.5C 798.519,588.396 799.519,586.396 800.5,584.5 Z"/></g>
<g><path style="opacity:1" fill="#dac29e" d="M 452.5,584.5 C 453.41,586.019 454.243,587.685 455,589.5C 455.816,590.823 456.983,591.489 458.5,591.5C 457.22,592.931 455.553,593.598 453.5,593.5C 453.737,594.791 453.404,595.791 452.5,596.5C 451.626,593.087 449.959,590.087 447.5,587.5C 449.848,587.408 451.514,586.408 452.5,584.5 Z"/></g>
<g><path style="opacity:1" fill="#c49e66" d="M 781.5,589.5 C 786.01,589.271 790.343,589.938 794.5,591.5C 796.81,592.325 798.81,593.658 800.5,595.5C 802.488,597.465 803.988,599.798 805,602.5C 807.541,616.099 802.375,625.099 789.5,629.5C 784.198,629.881 779.198,628.881 774.5,626.5C 773.5,625.5 772.5,624.5 771.5,623.5C 768.343,618.862 766.677,613.695 766.5,608C 766.468,602.566 768.468,598.066 772.5,594.5C 775.339,592.58 778.339,590.913 781.5,589.5 Z"/></g>
<g><path style="opacity:1" fill="#f9f9fa" d="M 961.5,594.5 C 970.525,594.168 979.525,594.502 988.5,595.5C 988.188,604.571 988.522,613.571 989.5,622.5C 982.288,622.219 975.122,622.552 968,623.5C 965.774,623.022 963.608,622.355 961.5,621.5C 961.498,612.503 961.498,603.503 961.5,594.5 Z"/></g>
<g><path style="opacity:1" fill="#f8f8f6" d="M 470.5,595.5 C 481.167,599.517 484.167,606.85 479.5,617.5C 473.455,623.934 466.455,625.101 458.5,621C 456.622,619.457 455.122,617.624 454,615.5C 451.37,601.973 456.87,595.306 470.5,595.5 Z"/></g>
<g><path style="opacity:1" fill="#f4f3f2" d="M 780.5,595.5 C 788.28,593.753 794.447,596.087 799,602.5C 802.201,616.969 796.367,623.803 781.5,623C 773.66,618.849 770.827,612.349 773,603.5C 775.028,600.308 777.528,597.641 780.5,595.5 Z"/></g>
<g><path style="opacity:1" fill="#c29b60" d="M 479.5,593.5 C 479.833,594.5 480.5,595.167 481.5,595.5C 487.828,604.117 488.161,613.117 482.5,622.5C 481.016,624.074 479.349,625.407 477.5,626.5C 476.833,626.5 476.167,626.5 475.5,626.5C 473.24,625.762 473.073,624.762 475,623.5C 475.957,625.709 477.124,625.543 478.5,623C 478.167,622.667 477.833,622.333 477.5,622C 478.582,620.67 479.249,619.17 479.5,617.5C 484.167,606.85 481.167,599.517 470.5,595.5C 467.359,594.679 464.025,594.179 460.5,594C 461.328,593.085 462.328,592.419 463.5,592C 462.944,591.617 462.611,591.117 462.5,590.5C 468.637,588.665 474.304,589.665 479.5,593.5 Z"/></g>
<g><path style="opacity:1" fill="#f1f1f0" d="M 762.5,594.5 C 765.833,594.5 769.167,594.5 772.5,594.5C 768.468,598.066 766.468,602.566 766.5,608C 766.677,613.695 768.343,618.862 771.5,623.5C 769.5,625.5 767.5,627.5 765.5,629.5C 761.141,633.528 756.807,637.528 752.5,641.5C 750.588,643.99 748.255,645.99 745.5,647.5C 742.101,645.801 738.768,644.134 735.5,642.5C 737.85,641.89 737.517,641.556 734.5,641.5C 734.5,635.5 734.5,629.5 734.5,623.5C 743.837,622.731 753.171,622.398 762.5,622.5C 763.569,613.156 763.569,603.822 762.5,594.5 Z"/></g>
<g><path style="opacity:1" fill="#c5a068" d="M 462.5,590.5 C 462.611,591.117 462.944,591.617 463.5,592C 462.328,592.419 461.328,593.085 460.5,594C 464.025,594.179 467.359,594.679 470.5,595.5C 456.87,595.306 451.37,601.973 454,615.5C 455.122,617.624 456.622,619.457 458.5,621C 466.455,625.101 473.455,623.934 479.5,617.5C 479.249,619.17 478.582,620.67 477.5,622C 477.833,622.333 478.167,622.667 478.5,623C 477.124,625.543 475.957,625.709 475,623.5C 473.073,624.762 473.24,625.762 475.5,626.5C 469.804,630.122 463.804,630.455 457.5,627.5C 455.54,625.844 453.54,624.177 451.5,622.5C 446.625,614.669 446.291,606.669 450.5,598.5C 450.833,597.5 451.5,596.833 452.5,596.5C 453.404,595.791 453.737,594.791 453.5,593.5C 455.553,593.598 457.22,592.931 458.5,591.5C 459.708,590.766 461.041,590.433 462.5,590.5 Z"/></g>
<g><path style="opacity:1" fill="#e6d8c3" d="M 482.5,622.5 C 483.787,625.453 485.787,627.786 488.5,629.5C 486.167,629.833 484.833,631.167 484.5,633.5C 482.527,630.861 480.194,628.527 477.5,626.5C 479.349,625.407 481.016,624.074 482.5,622.5 Z"/></g>
<g><path style="opacity:1" fill="#e1d2b8" d="M 771.5,623.5 C 772.5,624.5 773.5,625.5 774.5,626.5C 772.727,629.06 770.727,631.393 768.5,633.5C 768.912,631.027 767.912,629.694 765.5,629.5C 767.5,627.5 769.5,625.5 771.5,623.5 Z"/></g>
<g><path style="opacity:1" fill="#f8f8f7" d="M 774.5,626.5 C 779.198,628.881 784.198,629.881 789.5,629.5C 790.239,629.369 790.906,629.536 791.5,630C 791.583,637.11 791.25,644.277 790.5,651.5C 781.167,651.5 771.833,651.5 762.5,651.5C 762.5,660.833 762.5,670.167 762.5,679.5C 758.098,679.772 753.765,679.439 749.5,678.5C 750.153,676.682 750.153,674.682 749.5,672.5C 749.557,671.391 749.89,670.391 750.5,669.5C 752.023,663.802 751.689,658.136 749.5,652.5C 750.787,649.547 752.787,647.214 755.5,645.5C 760.46,642.208 764.793,638.208 768.5,633.5C 770.727,631.393 772.727,629.06 774.5,626.5 Z"/></g>
<g><path style="opacity:1" fill="#bd985e" d="M 765.5,629.5 C 767.912,629.694 768.912,631.027 768.5,633.5C 764.793,638.208 760.46,642.208 755.5,645.5C 753.738,644.738 752.738,643.404 752.5,641.5C 756.807,637.528 761.141,633.528 765.5,629.5 Z"/></g>
<g><path style="opacity:1" fill="#c29c63" d="M 488.5,629.5 C 492.221,633.888 496.221,637.888 500.5,641.5C 499.878,643.122 498.878,644.455 497.5,645.5C 492.54,642.208 488.207,638.208 484.5,633.5C 484.833,631.167 486.167,629.833 488.5,629.5 Z"/></g>
<g><path style="opacity:1" fill="#dac2a3" d="M 500.5,641.5 C 502.902,643.909 505.569,645.909 508.5,647.5C 506.926,648.984 505.593,650.651 504.5,652.5C 502.521,649.854 500.188,647.521 497.5,645.5C 498.878,644.455 499.878,643.122 500.5,641.5 Z"/></g>
<g><path style="opacity:1" fill="#c59e64" d="M 536.5,648.5 C 538.181,651.203 539.847,653.869 541.5,656.5C 541.818,661.659 541.152,666.659 539.5,671.5C 538.197,673.142 536.864,674.809 535.5,676.5C 533.833,677.833 532.167,679.167 530.5,680.5C 525.683,682.408 520.683,682.908 515.5,682C 502.595,675.441 498.929,665.608 504.5,652.5C 505.593,650.651 506.926,648.984 508.5,647.5C 518.021,640.747 527.354,641.08 536.5,648.5 Z"/></g>
<g><path style="opacity:1" fill="#d8c8b2" d="M 752.5,641.5 C 752.738,643.404 753.738,644.738 755.5,645.5C 752.787,647.214 750.787,649.547 749.5,652.5C 748.407,650.651 747.074,648.984 745.5,647.5C 748.255,645.99 750.588,643.99 752.5,641.5 Z"/></g>
<g><path style="opacity:1" fill="#f4f2f0" d="M 746.5,664.5 C 745.517,668.469 743.517,671.802 740.5,674.5C 727.305,679.739 719.638,675.406 717.5,661.5C 719.7,651.144 726.033,646.977 736.5,649C 743.49,651.814 746.823,656.981 746.5,664.5 Z"/></g>
<g><path style="opacity:1" fill="#f8f7f5" d="M 515.5,648.5 C 530.195,646.724 536.695,653.058 535,667.5C 530.849,675.34 524.349,678.173 515.5,676C 508.156,671.464 505.656,664.964 508,656.5C 510.028,653.308 512.528,650.641 515.5,648.5 Z"/></g>
<g><path style="opacity:1" fill="#c09755" d="M 750.5,669.5 C 749.89,670.391 749.557,671.391 749.5,672.5C 747.477,675.52 744.81,677.854 741.5,679.5C 740.624,679.631 739.957,679.298 739.5,678.5C 739.788,677.139 740.121,675.806 740.5,674.5C 743.517,671.802 745.517,668.469 746.5,664.5C 747.404,663.791 747.737,662.791 747.5,661.5C 750.999,661.259 751.332,662.092 748.5,664C 750.192,665.401 750.859,667.234 750.5,669.5 Z"/></g>
<g><path style="opacity:1" fill="#c49d65" d="M 735.5,642.5 C 738.768,644.134 742.101,645.801 745.5,647.5C 747.074,648.984 748.407,650.651 749.5,652.5C 751.689,658.136 752.023,663.802 750.5,669.5C 750.859,667.234 750.192,665.401 748.5,664C 751.332,662.092 750.999,661.259 747.5,661.5C 747.737,662.791 747.404,663.791 746.5,664.5C 746.823,656.981 743.49,651.814 736.5,649C 726.033,646.977 719.7,651.144 717.5,661.5C 719.638,675.406 727.305,679.739 740.5,674.5C 740.121,675.806 739.788,677.139 739.5,678.5C 739.957,679.298 740.624,679.631 741.5,679.5C 737.307,682.09 732.64,683.09 727.5,682.5C 724.298,681.138 721.298,679.304 718.5,677C 717.072,676.421 715.738,676.588 714.5,677.5C 712.596,677.262 711.262,676.262 710.5,674.5C 711.815,673.524 713.148,672.524 714.5,671.5C 711.88,665.109 711.88,658.776 714.5,652.5C 719.322,644.695 726.322,641.361 735.5,642.5 Z"/></g>
<g><path style="opacity:1" fill="#f9f9f8" d="M 535.5,676.5 C 538.738,677.738 541.738,679.404 544.5,681.5C 549.51,685.007 554.843,688.007 560.5,690.5C 563.833,692.5 567.167,694.5 570.5,696.5C 569.006,697.399 567.506,697.065 566,695.5C 564.985,699.44 564.485,703.44 564.5,707.5C 555.167,707.5 545.833,707.5 536.5,707.5C 536.666,699.16 536.5,690.827 536,682.5C 535.333,678.5 534.667,678.5 534,682.5C 532.887,681.695 531.721,681.028 530.5,680.5C 532.167,679.167 533.833,677.833 535.5,676.5 Z"/></g>
<g><path style="opacity:1" fill="#e4dacb" d="M 539.5,671.5 C 542.833,673.833 546.167,676.167 549.5,678.5C 547.067,678.273 545.401,679.273 544.5,681.5C 541.738,679.404 538.738,677.738 535.5,676.5C 536.864,674.809 538.197,673.142 539.5,671.5 Z"/></g>
<g><path style="opacity:1" fill="#ded1bd" d="M 710.5,674.5 C 711.262,676.262 712.596,677.262 714.5,677.5C 712.45,679.547 710.117,681.214 707.5,682.5C 708.129,679.783 706.796,678.45 703.5,678.5C 705.791,677.235 708.125,675.902 710.5,674.5 Z"/></g>
<g><path style="opacity:1" fill="#c1975a" d="M 549.5,678.5 C 555.535,681.849 561.535,685.182 567.5,688.5C 565.721,690.344 563.388,691.01 560.5,690.5C 554.843,688.007 549.51,685.007 544.5,681.5C 545.401,679.273 547.067,678.273 549.5,678.5 Z"/></g>
<g><path style="opacity:1" fill="#c49d64" d="M 652.5,701.5 C 652.595,703.786 653.262,705.786 654.5,707.5C 655.094,709.41 655.427,711.41 655.5,713.5C 654.289,733.046 643.956,743.046 624.5,743.5C 617.088,743.291 610.755,740.625 605.5,735.5C 599.303,727.563 596.969,718.563 598.5,708.5C 599.677,706.321 600.677,703.987 601.5,701.5C 604.289,696.877 607.955,693.044 612.5,690C 628.983,683.13 642.316,686.963 652.5,701.5 Z"/></g>
<g><path style="opacity:1" fill="#c7a471" d="M 567.5,688.5 C 570.686,689.597 573.686,690.93 576.5,692.5C 573.5,692.167 572.167,693.5 572.5,696.5C 571.833,696.5 571.167,696.5 570.5,696.5C 567.167,694.5 563.833,692.5 560.5,690.5C 563.388,691.01 565.721,690.344 567.5,688.5 Z"/></g>
<g><path style="opacity:1" fill="#c39d62" d="M 703.5,678.5 C 706.796,678.45 708.129,679.783 707.5,682.5C 706.833,682.5 706.5,682.833 706.5,683.5C 695.703,689.213 684.703,694.546 673.5,699.5C 670.577,700.197 667.744,701.197 665,702.5C 663.405,701.644 662.572,700.311 662.5,698.5C 667.315,695.928 672.315,693.594 677.5,691.5C 686.446,687.694 695.112,683.361 703.5,678.5 Z"/></g>
<g><path style="opacity:1" fill="#c39e65" d="M 576.5,692.5 C 581.791,693.741 586.791,695.741 591.5,698.5C 590.393,700.969 588.393,701.969 585.5,701.5C 580.898,700.412 576.564,698.746 572.5,696.5C 572.167,693.5 573.5,692.167 576.5,692.5 Z"/></g>
<g><path style="opacity:1" fill="#e2d8c8" d="M 591.5,698.5 C 592.167,698.5 592.833,698.5 593.5,698.5C 596.007,699.892 598.673,700.892 601.5,701.5C 600.677,703.987 599.677,706.321 598.5,708.5C 598.19,706.856 597.19,705.856 595.5,705.5C 591.97,704.631 588.636,703.297 585.5,701.5C 588.393,701.969 590.393,700.969 591.5,698.5 Z"/></g>
<g><path style="opacity:1" fill="#e9e1d4" d="M 662.5,698.5 C 662.572,700.311 663.405,701.644 665,702.5C 667.744,701.197 670.577,700.197 673.5,699.5C 671.073,701.558 668.407,703.391 665.5,705C 662.867,704.747 660.2,704.747 657.5,705C 655.881,705.236 654.881,706.069 654.5,707.5C 653.262,705.786 652.595,703.786 652.5,701.5C 655.829,700.501 659.162,699.501 662.5,698.5 Z"/></g>
<g><path style="opacity:1" fill="#f9f8f8" d="M 642.5,699.5 C 649.12,705.351 651.286,712.684 649,721.5C 645.925,731.081 639.425,736.414 629.5,737.5C 626.059,737.699 622.726,737.199 619.5,736C 621.132,726.739 622.132,717.239 622.5,707.5C 623.607,708.022 624.774,708.355 626,708.5C 631.51,707.951 637.01,707.285 642.5,706.5C 641.115,705.449 640.115,704.116 639.5,702.5C 640.993,701.859 641.993,700.859 642.5,699.5 Z"/></g>
<g><path style="opacity:1" fill="#f3f2f1" d="M 642.5,699.5 C 641.993,700.859 640.993,701.859 639.5,702.5C 640.115,704.116 641.115,705.449 642.5,706.5C 637.01,707.285 631.51,707.951 626,708.5C 624.774,708.355 623.607,708.022 622.5,707.5C 622.132,717.239 621.132,726.739 619.5,736C 622.726,737.199 626.059,737.699 629.5,737.5C 624.244,739.186 619.244,738.353 614.5,735C 600.202,722.355 599.868,709.355 613.5,696C 622.096,691.503 630.763,691.503 639.5,696C 640.71,697.039 641.71,698.206 642.5,699.5 Z"/></g>
<g><path style="opacity:1" fill="#f9f9fa" d="M 961.5,707.5 C 970.35,707.596 979.35,707.596 988.5,707.5C 988.405,716.375 988.738,725.375 989.5,734.5C 988.975,735.192 988.308,735.692 987.5,736C 978.424,736.913 969.424,736.58 960.5,735C 960.706,726.261 961.04,717.094 961.5,707.5 Z"/></g>
<g><path style="opacity:1" fill="#c29d66" d="M 628.5,769.5 C 627.965,771.446 626.632,772.446 624.5,772.5C 624.5,771.5 624.5,770.5 624.5,769.5C 624.334,763.491 624.501,757.491 625,751.5C 626.011,750.663 627.178,750.33 628.5,750.5C 628.5,756.833 628.5,763.167 628.5,769.5 Z"/></g>
<g><path style="opacity:1" fill="#ccad80" d="M 629.5,769.5 C 629.167,769.5 628.833,769.5 628.5,769.5C 628.5,763.167 628.5,756.833 628.5,750.5C 627.178,750.33 626.011,750.663 625,751.5C 624.501,757.491 624.334,763.491 624.5,769.5C 623.347,763.347 623.18,757.014 624,750.5C 625.312,748.342 626.978,748.009 629,749.5C 629.5,756.158 629.666,762.825 629.5,769.5 Z"/></g>
<g><path style="opacity:1" fill="#dbc8ab" d="M 628.5,769.5 C 628.833,769.5 629.167,769.5 629.5,769.5C 629.5,773.167 629.5,776.833 629.5,780.5C 628.185,778.401 626.518,778.067 624.5,779.5C 624.5,777.167 624.5,774.833 624.5,772.5C 626.632,772.446 627.965,771.446 628.5,769.5 Z"/></g>
<g><path style="opacity:1" fill="#c49e64" d="M 629.5,780.5 C 646.759,786.022 650.926,796.688 642,812.5C 628.954,823.881 617.788,822.214 608.5,807.5C 607.64,803.566 607.307,799.566 607.5,795.5C 609.975,786.765 615.641,781.431 624.5,779.5C 626.518,778.067 628.185,778.401 629.5,780.5 Z"/></g>
<g><path style="opacity:1" fill="#f4f3f2" d="M 620.5,786.5 C 631.62,784.121 638.62,788.287 641.5,799C 639.773,810.727 633.106,815.394 621.5,813C 609.911,804.493 609.578,795.659 620.5,786.5 Z"/></g>
<g><path style="opacity:1" fill="#faf9f9" d="M 706.5,792.5 C 715.833,792.5 725.167,792.5 734.5,792.5C 734.832,801.857 734.498,811.19 733.5,820.5C 724.464,820.682 715.464,821.015 706.5,821.5C 706.5,811.833 706.5,802.167 706.5,792.5 Z"/></g>
<g><path style="opacity:1" fill="#faf9fa" d="M 1102.5,792.5 C 1111.51,792.334 1120.51,792.5 1129.5,793C 1130.82,802.107 1130.82,811.273 1129.5,820.5C 1128.91,820.709 1128.41,821.043 1128,821.5C 1119.8,821.131 1111.3,821.131 1102.5,821.5C 1102.5,811.833 1102.5,802.167 1102.5,792.5 Z"/></g>
<g><path style="opacity:1" fill="#ede2d2" d="M 607.5,795.5 C 607.307,799.566 607.64,803.566 608.5,807.5C 606.452,805.544 605.452,803.044 605.5,800C 605.307,797.992 605.974,796.492 607.5,795.5 Z"/></g>
<g><path style="opacity:1" fill="#faf9f9" d="M 122.5,820.5 C 128.499,821.034 134.499,821.701 140.5,822.5C 140.659,831.418 140.659,840.418 140.5,849.5C 131.134,849.721 121.801,849.387 112.5,848.5C 112.5,839.5 112.5,830.5 112.5,821.5C 116.042,821.813 119.375,821.479 122.5,820.5 Z"/></g>
<g><path style="opacity:1" fill="#faf9f9" d="M 565.5,820.5 C 574.601,821.112 583.934,821.446 593.5,821.5C 593.666,830.506 593.5,839.506 593,848.5C 584.129,849.213 575.129,849.547 566,849.5C 564.193,839.857 564.026,830.19 565.5,820.5 Z"/></g>
<g><path style="opacity:1" fill="#faf9f9" d="M 762.5,849.5 C 752.953,848.731 743.62,848.397 734.5,848.5C 734.5,839.5 734.5,830.5 734.5,821.5C 743.833,821.5 753.167,821.5 762.5,821.5C 762.5,830.833 762.5,840.167 762.5,849.5 Z"/></g>
<g><path style="opacity:1" fill="#caa573" d="M 624.5,826.5 C 625.833,826.5 627.167,826.5 628.5,826.5C 629.452,832.075 629.786,837.741 629.5,843.5C 628.704,845.836 627.038,847.169 624.5,847.5C 623.2,840.47 623.2,833.47 624.5,826.5 Z"/></g>
<g><path style="opacity:1" fill="#f9f8f8" d="M 624.5,826.5 C 623.2,833.47 623.2,840.47 624.5,847.5C 624.5,850.5 624.5,853.5 624.5,856.5C 611.953,859.873 605.953,868.206 606.5,881.5C 605.479,881.101 605.146,879.767 605.5,877.5C 601.5,877.5 597.5,877.5 593.5,877.5C 593.5,868.167 593.5,858.833 593.5,849.5C 602.506,849.666 611.506,849.5 620.5,849C 621.484,845.769 622.151,842.436 622.5,839C 620.252,832.755 620.419,826.588 623,820.5C 623.505,822.518 624.005,824.518 624.5,826.5 Z"/></g>
<g><path style="opacity:1" fill="#e2d5c2" d="M 629.5,843.5 C 629.5,844.833 629.5,846.167 629.5,847.5C 628.888,850.304 628.888,853.304 629.5,856.5C 627.833,856.5 626.167,856.5 624.5,856.5C 624.5,853.5 624.5,850.5 624.5,847.5C 627.038,847.169 628.704,845.836 629.5,843.5 Z"/></g>
<g><path style="opacity:1" fill="#f1f0ef" d="M 629.5,847.5 C 629.97,848.693 630.97,849.36 632.5,849.5C 638.501,848.226 644.167,848.226 649.5,849.5C 649.666,858.839 649.5,868.173 649,877.5C 648.667,876.5 648.333,875.5 648,874.5C 647.79,876.058 647.29,877.391 646.5,878.5C 646.114,867.111 640.447,859.777 629.5,856.5C 628.888,853.304 628.888,850.304 629.5,847.5 Z"/></g>
<g><path style="opacity:1" fill="#c39d64" d="M 624.5,856.5 C 626.167,856.5 627.833,856.5 629.5,856.5C 640.447,859.777 646.114,867.111 646.5,878.5C 646.201,882.105 645.035,885.439 643,888.5C 640.291,891.378 637.458,894.044 634.5,896.5C 636.58,898.573 638.246,900.907 639.5,903.5C 638.417,903.461 637.417,903.127 636.5,902.5C 635.396,903.631 635.729,904.465 637.5,905C 636.584,905.278 635.918,905.778 635.5,906.5C 633.549,902.549 630.549,899.549 626.5,897.5C 621.419,900.405 618.586,904.739 618,910.5C 611.854,910.485 607.688,913.319 605.5,919C 606.955,923.458 609.955,926.124 614.5,927C 615.333,927.833 616.167,928.667 617,929.5C 617.829,947.671 617.662,965.671 616.5,983.5C 600.497,983.667 584.497,983.5 568.5,983C 570.087,982.138 571.754,981.471 573.5,981C 572.167,980.667 570.833,980.333 569.5,980C 583.673,979.831 597.673,979.331 611.5,978.5C 611.5,962.833 611.5,947.167 611.5,931.5C 599.454,926.567 597.454,919.067 605.5,909C 607.955,907.688 610.455,906.522 613,905.5C 614.318,902.199 616.152,899.199 618.5,896.5C 612.958,892.636 608.958,887.636 606.5,881.5C 605.953,868.206 611.953,859.873 624.5,856.5 Z"/></g>
<g><path style="opacity:1" fill="#f4f4f3" d="M 620.5,863.5 C 636.539,862.03 642.705,869.03 639,884.5C 631.228,893.332 623.228,893.666 615,885.5C 610.384,876.467 612.218,869.133 620.5,863.5 Z"/></g>
<g><path style="opacity:1" fill="#f2f3f2" d="M -0.5,905.5 C 8.83333,905.5 18.1667,905.5 27.5,905.5C 27.5,915.167 27.5,924.833 27.5,934.5C 17.957,934.433 8.62367,934.433 -0.5,934.5C -0.5,924.833 -0.5,915.167 -0.5,905.5 Z"/></g>
<g><path style="opacity:1" fill="#f9f8f8" d="M 677.5,849.5 C 677.5,858.833 677.5,868.167 677.5,877.5C 668.249,877.182 659.083,877.515 650,878.5C 649.5,887.494 649.334,896.494 649.5,905.5C 658.869,906.305 668.202,906.638 677.5,906.5C 677.565,915.653 677.565,924.987 677.5,934.5C 668.145,933.68 658.812,933.68 649.5,934.5C 649.5,943.833 649.5,953.167 649.5,962.5C 658.833,962.5 668.167,962.5 677.5,962.5C 676.859,967.246 677.526,971.913 679.5,976.5C 681.316,975.265 682.983,975.265 684.5,976.5C 670.873,978.482 656.873,979.149 642.5,978.5C 642.167,962.819 642.501,947.152 643.5,931.5C 652.236,927.393 654.736,921.059 651,912.5C 648.374,909.769 645.207,907.936 641.5,907C 640.695,905.887 640.028,904.721 639.5,903.5C 638.246,900.907 636.58,898.573 634.5,896.5C 637.458,894.044 640.291,891.378 643,888.5C 645.035,885.439 646.201,882.105 646.5,878.5C 647.29,877.391 647.79,876.058 648,874.5C 648.333,875.5 648.667,876.5 649,877.5C 649.5,868.173 649.666,858.839 649.5,849.5C 658.677,849.304 668.011,849.304 677.5,849.5 Z"/></g>
<g><path style="opacity:1" fill="#f3f2f2" d="M 282.5,962.5 C 291.833,962.5 301.167,962.5 310.5,962.5C 310.5,971.833 310.5,981.167 310.5,990.5C 301.167,990.5 291.833,990.5 282.5,990.5C 282.5,981.167 282.5,971.833 282.5,962.5 Z"/></g>
<g><path style="opacity:1" fill="#f3f3f2" d="M 734.5,962.5 C 743.833,962.5 753.167,962.5 762.5,962.5C 762.5,971.833 762.5,981.167 762.5,990.5C 753.167,990.5 743.833,990.5 734.5,990.5C 734.5,981.167 734.5,971.833 734.5,962.5 Z"/></g>
<g><path style="opacity:1" fill="#f2f3f2" d="M 1017.5,962.5 C 1026.83,962.5 1036.17,962.5 1045.5,962.5C 1045.5,971.833 1045.5,981.167 1045.5,990.5C 1036.17,990.5 1026.83,990.5 1017.5,990.5C 1017.5,981.167 1017.5,971.833 1017.5,962.5 Z"/></g>
<g><path style="opacity:1" fill="#f2f2f3" d="M 1187.5,962.5 C 1196.83,962.5 1206.17,962.5 1215.5,962.5C 1215.5,971.833 1215.5,981.167 1215.5,990.5C 1206.17,990.5 1196.83,990.5 1187.5,990.5C 1187.5,981.167 1187.5,971.833 1187.5,962.5 Z"/></g>
<g><path style="opacity:1" fill="#c19b5f" d="M 639.5,903.5 C 640.028,904.721 640.695,905.887 641.5,907C 645.207,907.936 648.374,909.769 651,912.5C 654.736,921.059 652.236,927.393 643.5,931.5C 642.501,947.152 642.167,962.819 642.5,978.5C 649.321,979.329 656.321,979.829 663.5,980C 662.106,980.171 661.272,980.671 661,981.5C 662.734,982.249 664.567,982.749 666.5,983C 656.839,983.5 647.172,983.666 637.5,983.5C 636.338,965.338 636.171,947.005 637,928.5C 638.8,926.683 640.966,925.516 643.5,925C 648.833,921 648.833,917 643.5,913C 640.986,911.748 638.32,911.248 635.5,911.5C 635.5,909.833 635.5,908.167 635.5,906.5C 635.918,905.778 636.584,905.278 637.5,905C 635.729,904.465 635.396,903.631 636.5,902.5C 637.417,903.127 638.417,903.461 639.5,903.5 Z"/></g>
<g><path style="opacity:1" fill="#c9ab7b" d="M 564.5,972.5 C 566.033,974.355 567.7,976.188 569.5,978C 583.496,978.5 597.496,978.667 611.5,978.5C 597.673,979.331 583.673,979.831 569.5,980C 570.833,980.333 572.167,980.667 573.5,981C 571.754,981.471 570.087,982.138 568.5,983C 584.497,983.5 600.497,983.667 616.5,983.5C 600.005,984.662 583.338,984.828 566.5,984C 565.281,981.722 563.948,979.555 562.5,977.5C 563.376,977.631 564.043,977.298 564.5,976.5C 563.637,975.274 563.637,973.94 564.5,972.5 Z"/></g>
<g><path style="opacity:1" fill="#c29d66" d="M 705.5,975.5 C 706.148,977.086 706.648,978.753 707,980.5C 712.585,982.926 717.085,986.593 720.5,991.5C 719.244,999.674 714.578,1004.67 706.5,1006.5C 705.956,1010.75 703.956,1014.25 700.5,1017C 697.307,1020.13 693.973,1020.3 690.5,1017.5C 688.334,1015.16 686.334,1012.66 684.5,1010C 679.511,1009.5 674.511,1009.33 669.5,1009.5C 660.5,1009.5 651.5,1009.5 642.5,1009.5C 642.167,1009.5 641.833,1009.5 641.5,1009.5C 640.252,1007.31 638.586,1006.98 636.5,1008.5C 636.5,1006.83 636.5,1005.17 636.5,1003.5C 652.837,1003.33 669.17,1003.5 685.5,1004C 688.938,1007.03 692.271,1010.19 695.5,1013.5C 699.86,1011.11 701.86,1007.45 701.5,1002.5C 718.639,997.207 718.806,991.207 702,984.5C 702.162,979.488 699.996,975.821 695.5,973.5C 691.593,976.239 688.593,979.739 686.5,984C 669.995,984.828 653.661,984.662 637.5,983.5C 647.172,983.666 656.839,983.5 666.5,983C 664.567,982.749 662.734,982.249 661,981.5C 661.272,980.671 662.106,980.171 663.5,980C 656.321,979.829 649.321,979.329 642.5,978.5C 656.873,979.149 670.873,978.482 684.5,976.5C 687.297,974.205 689.964,971.705 692.5,969C 698.054,968.72 702.388,970.887 705.5,975.5 Z"/></g>
<g><path style="opacity:1" fill="#f9f9f8" d="M 598.5,1009.5 C 602.833,1009.5 607.167,1009.5 611.5,1009.5C 611.5,1013.5 611.5,1017.5 611.5,1021.5C 610.507,1029.98 610.174,1038.65 610.5,1047.5C 604.833,1047.5 599.167,1047.5 593.5,1047.5C 593.5,1038.17 593.5,1028.83 593.5,1019.5C 598.899,1019.69 604.233,1019.19 609.5,1018C 608.328,1017.58 607.328,1016.91 606.5,1016C 607.711,1014.89 607.711,1013.72 606.5,1012.5C 607.397,1012.33 608.397,1012 609.5,1011.5C 605.687,1010.83 602.021,1010.17 598.5,1009.5 Z"/></g>
<g><path style="opacity:1" fill="#c39d65" d="M 564.5,972.5 C 563.637,973.94 563.637,975.274 564.5,976.5C 564.043,977.298 563.376,977.631 562.5,977.5C 559.014,973.367 555.847,973.7 553,978.5C 552.503,980.81 552.337,983.143 552.5,985.5C 546.486,985.668 542.153,988.501 539.5,994C 542.016,999.028 546.016,1001.86 551.5,1002.5C 551.627,1007.43 553.794,1011.09 558,1013.5C 561.268,1010.49 564.435,1007.33 567.5,1004C 584.074,1003.18 600.574,1003.34 617,1004.5C 617.831,1049.34 617.665,1094 616.5,1138.5C 616.5,1117.5 616.5,1096.5 616.5,1075.5C 615.178,1075.33 614.011,1075.66 613,1076.5C 612.832,1096.34 612.332,1116 611.5,1135.5C 611.5,1097.5 611.5,1059.5 611.5,1021.5C 611.5,1017.5 611.5,1013.5 611.5,1009.5C 607.167,1009.5 602.833,1009.5 598.5,1009.5C 596.5,1009.5 594.5,1009.5 592.5,1009.5C 584.472,1009.17 576.472,1009.5 568.5,1010.5C 565.611,1015.06 561.611,1018.06 556.5,1019.5C 551.011,1016.87 547.678,1012.53 546.5,1006.5C 542.576,1005.54 539.243,1003.54 536.5,1000.5C 534.957,998.072 533.957,995.406 533.5,992.5C 536.317,987.014 540.65,983.348 546.5,981.5C 547.097,976.216 549.764,972.216 554.5,969.5C 558.708,967.738 562.042,968.738 564.5,972.5 Z"/></g>
<g><path style="opacity:1" fill="#f5f4f3" d="M 635.5,906.5 C 635.5,908.167 635.5,909.833 635.5,911.5C 638.32,911.248 640.986,911.748 643.5,913C 648.833,917 648.833,921 643.5,925C 640.966,925.516 638.8,926.683 637,928.5C 636.171,947.005 636.338,965.338 637.5,983.5C 653.661,984.662 669.995,984.828 686.5,984C 688.593,979.739 691.593,976.239 695.5,973.5C 699.996,975.821 702.162,979.488 702,984.5C 718.806,991.207 718.639,997.207 701.5,1002.5C 701.86,1007.45 699.86,1011.11 695.5,1013.5C 692.271,1010.19 688.938,1007.03 685.5,1004C 669.17,1003.5 652.837,1003.33 636.5,1003.5C 636.5,1005.17 636.5,1006.83 636.5,1008.5C 636.5,1048.5 636.5,1088.5 636.5,1128.5C 636.335,1132.18 636.501,1135.85 637,1139.5C 641.462,1141.63 644.962,1144.8 647.5,1149C 645.603,1154.27 641.936,1157.1 636.5,1157.5C 634.87,1163.07 631.536,1167.4 626.5,1170.5C 621.042,1167.38 618.042,1162.72 617.5,1156.5C 611.336,1157.51 607.336,1155.01 605.5,1149C 608.392,1144.61 612.059,1141.11 616.5,1138.5C 617.665,1094 617.831,1049.34 617,1004.5C 600.574,1003.34 584.074,1003.18 567.5,1004C 564.435,1007.33 561.268,1010.49 558,1013.5C 553.794,1011.09 551.627,1007.43 551.5,1002.5C 546.016,1001.86 542.016,999.028 539.5,994C 542.153,988.501 546.486,985.668 552.5,985.5C 552.337,983.143 552.503,980.81 553,978.5C 555.847,973.7 559.014,973.367 562.5,977.5C 563.948,979.555 565.281,981.722 566.5,984C 583.338,984.828 600.005,984.662 616.5,983.5C 617.662,965.671 617.829,947.671 617,929.5C 616.167,928.667 615.333,927.833 614.5,927C 609.955,926.124 606.955,923.458 605.5,919C 607.688,913.319 611.854,910.485 618,910.5C 618.586,904.739 621.419,900.405 626.5,897.5C 630.549,899.549 633.549,902.549 635.5,906.5 Z"/></g>
<g><path style="opacity:1" fill="#f3f2f2" d="M 1017.5,1075.5 C 1026.83,1075.5 1036.17,1075.5 1045.5,1075.5C 1045.5,1084.83 1045.5,1094.17 1045.5,1103.5C 1036.37,1104.8 1027.04,1104.8 1017.5,1103.5C 1017.5,1094.17 1017.5,1084.83 1017.5,1075.5 Z"/></g>
<g><path style="opacity:1" fill="#c09658" d="M 641.5,1009.5 C 641.667,1049.17 641.5,1088.83 641,1128.5C 639.112,1130.74 637.612,1130.74 636.5,1128.5C 636.5,1088.5 636.5,1048.5 636.5,1008.5C 638.586,1006.98 640.252,1007.31 641.5,1009.5 Z"/></g>
<g><path style="opacity:1" fill="#f2f2f3" d="M 395.5,1132.5 C 404.833,1132.5 414.167,1132.5 423.5,1132.5C 423.5,1141.83 423.5,1151.17 423.5,1160.5C 414.167,1160.5 404.833,1160.5 395.5,1160.5C 395.5,1151.17 395.5,1141.83 395.5,1132.5 Z"/></g>
<g><path style="opacity:1" fill="#f3f3f2" d="M 1017.5,1132.5 C 1026.83,1132.5 1036.17,1132.5 1045.5,1132.5C 1045.5,1141.83 1045.5,1151.17 1045.5,1160.5C 1036.17,1160.5 1026.83,1160.5 1017.5,1160.5C 1017.5,1151.17 1017.5,1141.83 1017.5,1132.5 Z"/></g>
<g><path style="opacity:1" fill="#cbaa79" d="M 641.5,1009.5 C 641.833,1009.5 642.167,1009.5 642.5,1009.5C 642.5,1039.17 642.5,1068.83 642.5,1098.5C 642.168,1111.52 642.501,1124.52 643.5,1137.5C 647.475,1139.64 650.642,1142.64 653,1146.5C 653.251,1149.59 652.751,1152.59 651.5,1155.5C 649.353,1157.74 647.02,1159.74 644.5,1161.5C 643.833,1161.5 643.167,1161.5 642.5,1161.5C 642.799,1160.24 642.799,1159.07 642.5,1158C 640.527,1157.5 638.527,1157.34 636.5,1157.5C 641.936,1157.1 645.603,1154.27 647.5,1149C 644.962,1144.8 641.462,1141.63 637,1139.5C 636.501,1135.85 636.335,1132.18 636.5,1128.5C 637.612,1130.74 639.112,1130.74 641,1128.5C 641.5,1088.83 641.667,1049.17 641.5,1009.5 Z"/></g>
<g><path style="opacity:1" fill="#f9f8f8" d="M 642.5,1161.5 C 643.167,1161.5 643.833,1161.5 644.5,1161.5C 646.086,1162.41 647.586,1162.41 649,1161.5C 649.5,1170.49 649.666,1179.49 649.5,1188.5C 640.167,1188.5 630.833,1188.5 621.5,1188.5C 621.5,1184.83 621.5,1181.17 621.5,1177.5C 622.959,1177.57 624.292,1177.23 625.5,1176.5C 632.415,1174.09 637.249,1169.42 640,1162.5C 640.671,1161.75 641.504,1161.41 642.5,1161.5 Z"/></g>
<g><path style="opacity:1" fill="#be9558" d="M 616.5,1138.5 C 612.059,1141.11 608.392,1144.61 605.5,1149C 607.336,1155.01 611.336,1157.51 617.5,1156.5C 618.042,1162.72 621.042,1167.38 626.5,1170.5C 631.536,1167.4 634.87,1163.07 636.5,1157.5C 638.527,1157.34 640.527,1157.5 642.5,1158C 642.799,1159.07 642.799,1160.24 642.5,1161.5C 641.504,1161.41 640.671,1161.75 640,1162.5C 637.249,1169.42 632.415,1174.09 625.5,1176.5C 619.611,1173.11 615.277,1168.27 612.5,1162C 603.598,1160.03 599.765,1154.53 601,1145.5C 603.738,1141.26 607.238,1137.93 611.5,1135.5C 612.332,1116 612.832,1096.34 613,1076.5C 614.011,1075.66 615.178,1075.33 616.5,1075.5C 616.5,1096.5 616.5,1117.5 616.5,1138.5 Z"/></g>
</svg>
