<?xml version="1.0" encoding="UTF-8"?>
<!DOCTYPE svg PUBLIC "-//W3C//DTD SVG 1.1//EN" "http://www.w3.org/Graphics/SVG/1.1/DTD/svg11.dtd">
<svg xmlns="http://www.w3.org/2000/svg" version="1.1" width="1254px" height="1254px" style="shape-rendering:geometricPrecision; text-rendering:geometricPrecision; image-rendering:optimizeQuality; fill-rule:evenodd; clip-rule:evenodd" xmlns:xlink="http://www.w3.org/1999/xlink">
<g><path style="opacity:1" fill="#faf9f9" d="M 170.5,85.5 C 179.833,85.5 189.167,85.5 198.5,85.5C 198.5,95.1667 198.5,104.833 198.5,114.5C 189.167,114.5 179.833,114.5 170.5,114.5C 170.5,104.833 170.5,95.1667 170.5,85.5 Z"/></g>
<g><path style="opacity:1" fill="#faf9fa" d="M 996.5,114.5 C 987.161,114.666 977.827,114.5 968.5,114C 967.35,104.911 967.183,95.7447 968,86.5C 977.126,85.5432 986.126,85.2098 995,85.5C 996.472,95.0003 996.972,104.667 996.5,114.5 Z"/></g>
<g><path style="opacity:1" fill="#f9f9fa" d="M 483.5,114.5 C 493.167,114.5 502.833,114.5 512.5,114.5C 512.666,123.839 512.5,133.173 512,142.5C 502.917,143.485 493.751,143.818 484.5,143.5C 483.579,133.873 483.245,124.206 483.5,114.5 Z"/></g>
<g><path style="opacity:1" fill="#e8cca3" d="M 622.5,122.5 C 622.56,121.957 622.893,121.624 623.5,121.5C 624.484,124.428 624.817,127.428 624.5,130.5C 623.833,127.833 623.167,125.167 622.5,122.5 Z"/></g>
<g><path style="opacity:1" fill="#cb9e50" d="M 622.5,122.5 C 623.167,125.167 623.833,127.833 624.5,130.5C 624.5,132.833 624.5,135.167 624.5,137.5C 624.5,162.167 624.5,186.833 624.5,211.5C 623.679,214.641 623.179,217.975 623,221.5C 622.5,193.502 622.333,165.502 622.5,137.5C 622.5,132.5 622.5,127.5 622.5,122.5 Z"/></g>
<g><path style="opacity:1" fill="#faf9f9" d="M 1196.5,171.5 C 1196.5,181.167 1196.5,190.833 1196.5,200.5C 1186.83,200.5 1177.17,200.5 1167.5,200.5C 1167.18,191.249 1167.52,182.083 1168.5,173C 1177.84,172.566 1187.18,172.066 1196.5,171.5 Z"/></g>
<g><path style="opacity:1" fill="#e7dbc1" d="M 622.5,137.5 C 622.333,165.502 622.5,193.502 623,221.5C 623.179,217.975 623.679,214.641 624.5,211.5C 624.559,216.781 624.226,221.781 623.5,226.5C 622.304,226.154 622.304,225.654 623.5,225C 622.5,224.667 621.5,224.333 620.5,224C 621.48,216.921 621.813,209.755 621.5,202.5C 621.5,190.833 621.5,179.167 621.5,167.5C 621.173,157.319 621.506,147.319 622.5,137.5 Z"/></g>
<g><path style="opacity:1" fill="#f9f9f7" d="M 768.5,200.5 C 768.5,210.167 768.5,219.833 768.5,229.5C 760.097,230.134 752.097,229.467 744.5,227.5C 749.738,220.032 754.738,212.366 759.5,204.5C 758.645,203.707 757.811,204.04 757,205.5C 737.891,230.61 719.557,256.277 702,282.5C 701.312,283.332 701.479,283.998 702.5,284.5C 705.095,281.612 707.428,278.612 709.5,275.5C 712.432,278.761 713.099,282.428 711.5,286.5C 702.167,286.5 692.833,286.5 683.5,286.5C 683.5,277.167 683.5,267.833 683.5,258.5C 692.844,258.401 702.177,258.068 711.5,257.5C 711.5,248.167 711.5,238.833 711.5,229.5C 719.507,229.666 727.507,229.5 735.5,229C 737.492,228.426 738.992,227.259 740,225.5C 740.5,217.173 740.666,208.84 740.5,200.5C 749.833,200.5 759.167,200.5 768.5,200.5 Z"/></g>
<g><path style="opacity:1" fill="#cda357" d="M 534.5,269.5 C 534.5,270.167 534.167,270.5 533.5,270.5C 529.822,265.794 526.156,261.128 522.5,256.5C 520.075,252.648 517.409,248.981 514.5,245.5C 510.833,240.167 507.167,234.833 503.5,229.5C 497.633,220.941 491.633,212.441 485.5,204C 485.833,203.833 486.167,203.667 486.5,203.5C 503.653,224.655 519.653,246.655 534.5,269.5 Z"/></g>
<g><path style="opacity:1" fill="#cea556" d="M 744.5,227.5 C 732.865,243.476 721.198,259.476 709.5,275.5C 707.428,278.612 705.095,281.612 702.5,284.5C 701.479,283.998 701.312,283.332 702,282.5C 719.557,256.277 737.891,230.61 757,205.5C 757.811,204.04 758.645,203.707 759.5,204.5C 754.738,212.366 749.738,220.032 744.5,227.5 Z"/></g>
<g><path style="opacity:1" fill="#f9f9f8" d="M 522.5,256.5 C 526.156,261.128 529.822,265.794 533.5,270.5C 536.167,274.5 538.833,278.5 541.5,282.5C 540.89,283.391 540.557,284.391 540.5,285.5C 531.25,286.472 521.917,286.805 512.5,286.5C 512.168,277.143 512.502,267.81 513.5,258.5C 516.53,257.831 519.53,257.165 522.5,256.5 Z"/></g>
<g><path style="opacity:1" fill="#d3b072" d="M 534.5,269.5 C 537.645,273.766 540.812,278.099 544,282.5C 544.688,283.332 544.521,283.998 543.5,284.5C 542.818,283.757 542.151,283.091 541.5,282.5C 538.833,278.5 536.167,274.5 533.5,270.5C 534.167,270.5 534.5,270.167 534.5,269.5 Z"/></g>
<g><path style="opacity:1" fill="#faf9f9" d="M 113.5,286.5 C 113.666,295.839 113.5,305.173 113,314.5C 103.667,315.833 94.3333,315.833 85,314.5C 84.8397,305.451 84.673,296.451 84.5,287.5C 94.0838,286.527 103.75,286.194 113.5,286.5 Z"/></g>
<g><path style="opacity:1" fill="#f9f9f8" d="M 609.5,313.5 C 610.222,313.918 610.722,314.584 611,315.5C 616.015,315.348 621.182,315.348 626.5,315.5C 626.5,324.833 626.5,334.167 626.5,343.5C 617.827,343.666 609.16,343.5 600.5,343C 600.833,342.667 601.167,342.333 601.5,342C 600.619,341.292 599.953,340.458 599.5,339.5C 601.633,333.102 603.966,326.768 606.5,320.5C 607.945,318.429 608.945,316.096 609.5,313.5 Z"/></g>
<g><path style="opacity:1" fill="#f3f2f0" d="M 647.5,341.5 C 646.842,342.398 646.176,343.398 645.5,344.5C 639.154,344.556 632.821,344.222 626.5,343.5C 626.5,334.167 626.5,324.833 626.5,315.5C 621.182,315.348 616.015,315.348 611,315.5C 610.722,314.584 610.222,313.918 609.5,313.5C 615.573,297.655 620.073,281.322 623,264.5C 628.67,291.009 636.837,316.675 647.5,341.5 Z"/></g>
<g><path style="opacity:1" fill="#cca359" d="M 624.5,257.5 C 625.088,260.61 625.755,263.61 626.5,266.5C 628.096,273.621 630.096,280.621 632.5,287.5C 639.578,306.735 647.245,325.735 655.5,344.5C 653.951,344.736 652.451,344.736 651,344.5C 650.536,345.094 650.369,345.761 650.5,346.5C 649.263,345.035 648.263,343.368 647.5,341.5C 636.837,316.675 628.67,291.009 623,264.5C 620.073,281.322 615.573,297.655 609.5,313.5C 608.945,316.096 607.945,318.429 606.5,320.5C 606.5,319.167 606.5,317.833 606.5,316.5C 605.041,316.433 603.708,316.766 602.5,317.5C 610.641,298.41 616.974,278.744 621.5,258.5C 622.277,248.813 623.277,248.479 624.5,257.5 Z"/></g>
<g><path style="opacity:1" fill="#cea862" d="M 431.5,330.5 C 445.651,335.728 459.984,340.728 474.5,345.5C 474.833,345.5 475.167,345.5 475.5,345.5C 477.936,346.871 480.603,347.871 483.5,348.5C 493.746,352.36 504.079,356.027 514.5,359.5C 514,359.833 513.5,360.167 513,360.5C 503.882,357.644 494.716,354.977 485.5,352.5C 466.198,345.838 446.864,339.172 427.5,332.5C 426.571,331.685 425.571,330.852 424.5,330C 426.797,329.982 429.131,330.149 431.5,330.5 Z"/></g>
<g><path style="opacity:1" fill="#f9f9fa" d="M 398.5,344.5 C 398.5,353.833 398.5,363.167 398.5,372.5C 389.167,372.5 379.833,372.5 370.5,372.5C 369.456,363.417 369.29,354.417 370,345.5C 372.915,344.623 375.915,343.957 379,343.5C 385.378,344.474 391.878,344.807 398.5,344.5 Z"/></g>
<g><path style="opacity:1" fill="#f9f9f8" d="M 797.5,315.5 C 806.833,315.5 816.167,315.5 825.5,315.5C 825.832,324.857 825.498,334.19 824.5,343.5C 816.202,343.661 807.702,343.661 799,343.5C 797.72,343.613 796.887,344.28 796.5,345.5C 796.621,354.746 796.954,363.746 797.5,372.5C 787.833,372.5 778.167,372.5 768.5,372.5C 768.825,364.981 768.492,357.648 767.5,350.5C 784.875,344.095 802.375,337.761 820,331.5C 821.898,330.648 821.731,329.981 819.5,329.5C 814.047,331.761 808.38,333.427 802.5,334.5C 800.876,334.64 799.71,333.973 799,332.5C 798.667,332.833 798.333,333.167 798,333.5C 797.501,327.509 797.334,321.509 797.5,315.5 Z"/></g>
<g><path style="opacity:1" fill="#faf9f9" d="M 1024.5,200.5 C 1034.17,200.5 1043.83,200.5 1053.5,200.5C 1053.5,210.167 1053.5,219.833 1053.5,229.5C 1044.14,229.832 1034.81,229.498 1025.5,228.5C 1025.47,219.368 1025.13,210.034 1024.5,200.5 Z"/></g>
<g><path style="opacity:1" fill="#cfaa63" d="M 767.5,350.5 C 757.035,352.325 747.035,355.325 737.5,359.5C 735.401,360.231 733.401,360.231 731.5,359.5C 734.703,358.394 737.703,357.061 740.5,355.5C 761.409,349.037 782.076,342.037 802.5,334.5C 808.38,333.427 814.047,331.761 819.5,329.5C 821.731,329.981 821.898,330.648 820,331.5C 802.375,337.761 784.875,344.095 767.5,350.5 Z"/></g>
<g><path style="opacity:1" fill="#f9f8f7" d="M 485.5,352.5 C 494.716,354.977 503.882,357.644 513,360.5C 513.5,360.167 514,359.833 514.5,359.5C 504.079,356.027 493.746,352.36 483.5,348.5C 482.232,347.213 482.565,346.213 484.5,345.5C 493.81,344.502 503.143,344.168 512.5,344.5C 512.793,348.437 512.46,352.27 511.5,356C 512.891,357.02 514.391,357.853 516,358.5C 516.483,359.448 516.649,360.448 516.5,361.5C 515.167,361.5 513.833,361.5 512.5,361.5C 512.5,365.167 512.5,368.833 512.5,372.5C 503.161,372.666 493.827,372.5 484.5,372C 483.167,368.667 483.167,365.333 484.5,362C 483.833,359.333 483.167,356.667 482.5,354C 483.244,352.961 484.244,352.461 485.5,352.5 Z"/></g>
<g><path style="opacity:1" fill="#cba051" d="M 606.5,320.5 C 603.966,326.768 601.633,333.102 599.5,339.5C 588.619,360.636 580.786,382.969 576,406.5C 575.178,414.345 575.344,422.011 576.5,429.5C 576.5,431.5 576.5,433.5 576.5,435.5C 576.663,437.857 576.497,440.19 576,442.5C 574.989,443.337 573.822,443.67 572.5,443.5C 571.402,439.091 570.402,434.758 569.5,430.5C 569.5,421.833 569.5,413.167 569.5,404.5C 571.849,393.758 574.849,383.092 578.5,372.5C 585.191,356.459 591.857,340.459 598.5,324.5C 600.1,322.297 601.433,319.964 602.5,317.5C 603.708,316.766 605.041,316.433 606.5,316.5C 606.5,317.833 606.5,319.167 606.5,320.5 Z"/></g>
<g><path style="opacity:1" fill="#f3f2f0" d="M 599.5,339.5 C 599.953,340.458 600.619,341.292 601.5,342C 601.167,342.333 600.833,342.667 600.5,343C 609.16,343.5 617.827,343.666 626.5,343.5C 626.832,353.19 626.498,362.856 625.5,372.5C 616.596,372.624 607.596,372.624 598.5,372.5C 597.423,381.729 597.423,390.896 598.5,400C 592.311,401.129 585.977,401.963 579.5,402.5C 580.485,404.098 580.651,405.765 580,407.5C 579.259,408.641 578.425,408.641 577.5,407.5C 576.503,414.803 576.169,422.137 576.5,429.5C 575.344,422.011 575.178,414.345 576,406.5C 580.786,382.969 588.619,360.636 599.5,339.5 Z"/></g>
<g><path style="opacity:1" fill="#f9f9f8" d="M 569.5,404.5 C 569.5,413.167 569.5,421.833 569.5,430.5C 569.66,432.199 569.494,433.866 569,435.5C 568.333,433.5 567.667,431.5 567,429.5C 558.626,429.617 550.126,429.617 541.5,429.5C 540.3,420.301 540.3,410.967 541.5,401.5C 547.509,401.666 553.509,401.499 559.5,401C 558.112,400.111 558.278,399.611 560,399.5C 561.722,399.611 561.888,400.111 560.5,401C 561.5,401.167 562.5,401.333 563.5,401.5C 565.605,400.986 567.439,400.653 569,400.5C 569.49,401.793 569.657,403.127 569.5,404.5 Z"/></g>
<g><path style="opacity:1" fill="#faf9fa" d="M 84.5,401.5 C 94.1667,401.5 103.833,401.5 113.5,401.5C 113.5,410.833 113.5,420.167 113.5,429.5C 103.833,429.5 94.1667,429.5 84.5,429.5C 84.5,420.167 84.5,410.833 84.5,401.5 Z"/></g>
<g><path style="opacity:1" fill="#faf9fa" d="M 56.5,429.5 C 65.9819,429.831 75.3152,429.831 84.5,429.5C 84.5,439.167 84.5,448.833 84.5,458.5C 75.1667,458.5 65.8333,458.5 56.5,458.5C 56.5,448.833 56.5,439.167 56.5,429.5 Z"/></g>
<g><path style="opacity:1" fill="#faf9f9" d="M 113.5,429.5 C 122.827,430.668 132.16,430.668 141.5,429.5C 141.5,439.167 141.5,448.833 141.5,458.5C 132.167,458.5 122.833,458.5 113.5,458.5C 113.5,448.833 113.5,439.167 113.5,429.5 Z"/></g>
<g><path style="opacity:1" fill="#faf9f9" d="M 398.5,429.5 C 407.886,430.202 417.22,430.202 426.5,429.5C 426.5,439.167 426.5,448.833 426.5,458.5C 417.167,458.5 407.833,458.5 398.5,458.5C 398.5,448.833 398.5,439.167 398.5,429.5 Z"/></g>
<g><path style="opacity:1" fill="#f8f8f7" d="M 711.5,372.5 C 711.5,382.167 711.5,391.833 711.5,401.5C 702.167,401.5 692.833,401.5 683.5,401.5C 683.566,410.852 683.232,420.185 682.5,429.5C 681.022,429.238 679.689,429.571 678.5,430.5C 680.39,431.424 681.89,432.757 683,434.5C 683.49,433.207 683.657,431.873 683.5,430.5C 692.621,429.394 701.954,429.394 711.5,430.5C 711.5,439.833 711.5,449.167 711.5,458.5C 708.786,458.25 706.119,458.083 703.5,458C 704.759,458.923 706.092,459.757 707.5,460.5C 706.418,460.749 705.085,460.915 703.5,461C 704.833,461.667 706.167,462.333 707.5,463C 706.54,464.419 705.707,465.919 705,467.5C 701.245,468.654 697.412,468.654 693.5,467.5C 697.361,468.598 697.361,469.431 693.5,470C 695.677,471.186 696.677,473.019 696.5,475.5C 697.552,475.351 698.552,475.517 699.5,476C 697.559,476.743 695.726,476.576 694,475.5C 691.28,478.223 688.28,480.557 685,482.5C 683.722,474.763 683.389,467.097 684,459.5C 687.275,459.21 690.775,458.71 694.5,458C 691.774,457.818 689.107,457.318 686.5,456.5C 685.355,453.252 684.521,449.919 684,446.5C 683.417,450.403 682.917,454.07 682.5,457.5C 678.5,458.167 674.5,458.833 670.5,459.5C 670.709,460.086 671.043,460.586 671.5,461C 669.667,462.167 668.167,463.667 667,465.5C 666.536,464.906 666.369,464.239 666.5,463.5C 678.102,437.514 679.602,410.848 671,383.5C 666.853,370.559 662.02,357.892 656.5,345.5C 656.369,344.761 656.536,344.094 657,343.5C 665.632,344.364 674.466,344.697 683.5,344.5C 683.5,353.833 683.5,363.167 683.5,372.5C 692.833,372.5 702.167,372.5 711.5,372.5 Z"/></g>
<g><path style="opacity:1" fill="#f9f9fa" d="M 1167.5,458.5 C 1158.17,458.5 1148.83,458.5 1139.5,458.5C 1139.5,448.833 1139.5,439.167 1139.5,429.5C 1148.75,429.182 1157.92,429.515 1167,430.5C 1167.5,439.827 1167.67,449.161 1167.5,458.5 Z"/></g>
<g><path style="opacity:1" fill="#f7f6f6" d="M 647.5,341.5 C 648.263,343.368 649.263,345.035 650.5,346.5C 656.164,360.328 661.331,374.328 666,388.5C 666.826,391.793 667.326,395.126 667.5,398.5C 667.5,399.5 667.5,400.5 667.5,401.5C 663.167,401.5 658.833,401.5 654.5,401.5C 654.823,410.765 654.823,420.099 654.5,429.5C 649.819,429.669 645.152,430.002 640.5,430.5C 633.46,414.117 627.293,398.117 622,382.5C 618.583,399.326 612.917,415.326 605,430.5C 597.778,449.923 600.945,467.256 614.5,482.5C 614.415,483.995 615.081,484.995 616.5,485.5C 617.661,489.795 617.828,494.129 617,498.5C 616.617,497.944 616.117,497.611 615.5,497.5C 611.148,494.143 606.815,490.809 602.5,487.5C 589.573,472.313 580.906,454.98 576.5,435.5C 576.5,433.5 576.5,431.5 576.5,429.5C 576.169,422.137 576.503,414.803 577.5,407.5C 578.425,408.641 579.259,408.641 580,407.5C 580.651,405.765 580.485,404.098 579.5,402.5C 585.977,401.963 592.311,401.129 598.5,400C 597.423,390.896 597.423,381.729 598.5,372.5C 607.596,372.624 616.596,372.624 625.5,372.5C 626.498,362.856 626.832,353.19 626.5,343.5C 632.821,344.222 639.154,344.556 645.5,344.5C 646.176,343.398 646.842,342.398 647.5,341.5 Z"/></g>
<g><path style="opacity:1" fill="#f4f4f2" d="M 640.5,430.5 C 645.152,430.002 649.819,429.669 654.5,429.5C 654.823,420.099 654.823,410.765 654.5,401.5C 658.833,401.5 663.167,401.5 667.5,401.5C 667.5,400.5 667.5,399.5 667.5,398.5C 672.873,421.735 670.04,444.069 659,465.5C 654.392,473.267 649.225,480.6 643.5,487.5C 639.041,490.787 634.708,494.287 630.5,498C 631.5,498.667 632.5,498.667 633.5,498C 637.597,495.63 641.264,492.797 644.5,489.5C 649.527,485.14 654.194,480.473 658.5,475.5C 657.828,478.342 656.494,480.842 654.5,483C 655.299,485.228 654.299,486.561 651.5,487C 652.448,487.483 653.448,487.649 654.5,487.5C 654.5,490.833 654.5,494.167 654.5,497.5C 652.901,497.232 651.568,497.566 650.5,498.5C 647.813,498.336 645.146,498.503 642.5,499C 647.448,500.05 652.448,500.55 657.5,500.5C 660.287,501.477 663.287,501.81 666.5,501.5C 672.082,502.423 677.749,503.423 683.5,504.5C 682.656,508.099 682.323,511.766 682.5,515.5C 673.5,515.5 664.5,515.5 655.5,515.5C 654.705,511.215 654.372,506.881 654.5,502.5C 653.448,502.351 652.448,502.517 651.5,503C 652.956,503.423 653.456,504.256 653,505.5C 650.697,505.742 648.697,507.075 647,509.5C 646.505,511.473 646.338,513.473 646.5,515.5C 640.477,515.502 634.477,515.835 628.5,516.5C 628.5,521.167 628.5,525.833 628.5,530.5C 627.668,507.67 627.168,484.67 627,461.5C 625.419,458.447 623.086,457.78 620,459.5C 618.621,464.036 618.121,468.703 618.5,473.5C 617.677,476.977 617.177,480.644 617,484.5C 616.292,483.619 615.458,482.953 614.5,482.5C 607.25,470.895 604.417,458.228 606,444.5C 612.433,426.526 618.1,408.192 623,389.5C 628.377,407.255 634.044,424.922 640,442.5C 642.481,457.539 639.314,471.206 630.5,483.5C 630.667,483.833 630.833,484.167 631,484.5C 645.011,468.445 648.178,450.445 640.5,430.5 Z"/></g>
<g><path style="opacity:1" fill="#f9f9f8" d="M 489.5,438.5 C 494.539,438.451 494.705,439.118 490,440.5C 488.044,440.216 485.877,440.216 483.5,440.5C 483.5,446.5 483.5,452.5 483.5,458.5C 474.167,458.5 464.833,458.5 455.5,458.5C 455.5,453.5 455.5,448.5 455.5,443.5C 457.391,443.828 458.891,444.495 460,445.5C 463.043,445.501 463.21,444.668 460.5,443C 462.708,442.809 464.708,442.309 466.5,441.5C 474.085,439.86 481.751,438.86 489.5,438.5 Z"/></g>
<g><path style="opacity:1" fill="#ceab63" d="M 489.5,438.5 C 481.751,438.86 474.085,439.86 466.5,441.5C 459.954,441.674 453.454,442.341 447,443.5C 445.5,443.333 444,443.167 442.5,443C 466.625,437.943 490.958,434.61 515.5,433C 506.871,435.305 498.204,437.138 489.5,438.5 Z"/></g>
<g><path style="opacity:1" fill="#cba153" d="M 655.5,344.5 C 655.5,345.167 655.833,345.5 656.5,345.5C 662.02,357.892 666.853,370.559 671,383.5C 679.602,410.848 678.102,437.514 666.5,463.5C 663.474,467.205 660.808,471.205 658.5,475.5C 654.194,480.473 649.527,485.14 644.5,489.5C 643.662,489.158 643.328,488.492 643.5,487.5C 649.225,480.6 654.392,473.267 659,465.5C 670.04,444.069 672.873,421.735 667.5,398.5C 667.326,395.126 666.826,391.793 666,388.5C 661.331,374.328 656.164,360.328 650.5,346.5C 650.369,345.761 650.536,345.094 651,344.5C 652.451,344.736 653.951,344.736 655.5,344.5 Z"/></g>
<g><path style="opacity:1" fill="#cea45a" d="M 640.5,430.5 C 648.178,450.445 645.011,468.445 631,484.5C 630.833,484.167 630.667,483.833 630.5,483.5C 639.314,471.206 642.481,457.539 640,442.5C 634.044,424.922 628.377,407.255 623,389.5C 618.1,408.192 612.433,426.526 606,444.5C 604.417,458.228 607.25,470.895 614.5,482.5C 600.945,467.256 597.778,449.923 605,430.5C 612.917,415.326 618.583,399.326 622,382.5C 627.293,398.117 633.46,414.117 640.5,430.5 Z"/></g>
<g><path style="opacity:1" fill="#cba35a" d="M 576.5,435.5 C 580.906,454.98 589.573,472.313 602.5,487.5C 602.158,488.338 601.492,488.672 600.5,488.5C 586.356,476.557 577.023,461.557 572.5,443.5C 573.822,443.67 574.989,443.337 576,442.5C 576.497,440.19 576.663,437.857 576.5,435.5 Z"/></g>
<g><path style="opacity:1" fill="#cba250" d="M 628.5,530.5 C 628.496,535.989 625.829,537.822 620.5,536C 619.619,535.292 618.953,534.458 618.5,533.5C 618.5,513.5 618.5,493.5 618.5,473.5C 618.121,468.703 618.621,464.036 620,459.5C 623.086,457.78 625.419,458.447 627,461.5C 627.168,484.67 627.668,507.67 628.5,530.5 Z"/></g>
<g><path style="opacity:1" fill="#f9f9f7" d="M 540.5,487.5 C 541.404,492.533 541.07,497.533 539.5,502.5C 531.767,503.867 524.1,505.534 516.5,507.5C 515.167,507.5 513.833,507.5 512.5,507.5C 511.761,507.631 511.094,507.464 510.5,507C 512.434,500.789 513.101,494.289 512.5,487.5C 522.259,487.318 531.592,487.318 540.5,487.5 Z"/></g>
<g><path style="opacity:1" fill="#ebe4d7" d="M 618.5,473.5 C 618.5,493.5 618.5,513.5 618.5,533.5C 617.511,528.025 617.178,522.358 617.5,516.5C 617.828,511.125 617.495,505.792 616.5,500.5C 615.478,500.145 614.811,499.478 614.5,498.5C 615.167,498.5 615.5,498.167 615.5,497.5C 616.117,497.611 616.617,497.944 617,498.5C 617.828,494.129 617.661,489.795 616.5,485.5C 615.081,484.995 614.415,483.995 614.5,482.5C 615.458,482.953 616.292,483.619 617,484.5C 617.177,480.644 617.677,476.977 618.5,473.5 Z"/></g>
<g><path style="opacity:1" fill="#ceae75" d="M 602.5,487.5 C 606.815,490.809 611.148,494.143 615.5,497.5C 615.5,498.167 615.167,498.5 614.5,498.5C 609.443,495.645 604.777,492.312 600.5,488.5C 601.492,488.672 602.158,488.338 602.5,487.5 Z"/></g>
<g><path style="opacity:1" fill="#d2b476" d="M 643.5,487.5 C 643.328,488.492 643.662,489.158 644.5,489.5C 641.264,492.797 637.597,495.63 633.5,498C 632.5,498.667 631.5,498.667 630.5,498C 634.708,494.287 639.041,490.787 643.5,487.5 Z"/></g>
<g><path style="opacity:1" fill="#ede8dd" d="M 717.5,503.5 C 707.884,502.031 698.217,501.031 688.5,500.5C 688.5,500.167 688.5,499.833 688.5,499.5C 690.857,499.663 693.19,499.497 695.5,499C 694.833,498.667 694.167,498.333 693.5,498C 698.916,497.345 704.083,498.178 709,500.5C 711.359,497.966 712.526,498.633 712.5,502.5C 714.415,502.216 716.081,502.549 717.5,503.5 Z"/></g>
<g><path style="opacity:1" fill="#dec89d" d="M 573.5,499.5 C 583.674,498.177 594.007,498.177 604.5,499.5C 598.872,500.495 593.206,500.829 587.5,500.5C 583.03,499.514 578.363,499.181 573.5,499.5 Z"/></g>
<g><path style="opacity:1" fill="#cb9f52" d="M 666.5,501.5 C 663.287,501.81 660.287,501.477 657.5,500.5C 662.65,499.349 667.984,499.183 673.5,500C 674.167,500.333 674.833,500.667 675.5,501C 672.518,501.498 669.518,501.665 666.5,501.5 Z"/></g>
<g><path style="opacity:1" fill="#d1af6e" d="M 650.5,498.5 C 663.183,498.374 675.85,498.707 688.5,499.5C 688.5,499.833 688.5,500.167 688.5,500.5C 682.792,500.492 682.459,500.992 687.5,502C 686.167,502.333 684.833,502.667 683.5,503C 685.058,503.21 686.391,503.71 687.5,504.5C 686.167,504.5 684.833,504.5 683.5,504.5C 677.749,503.423 672.082,502.423 666.5,501.5C 669.518,501.665 672.518,501.498 675.5,501C 674.833,500.667 674.167,500.333 673.5,500C 667.984,499.183 662.65,499.349 657.5,500.5C 652.448,500.55 647.448,500.05 642.5,499C 645.146,498.503 647.813,498.336 650.5,498.5 Z"/></g>
<g><path style="opacity:1" fill="#cca761" d="M 573.5,499.5 C 578.363,499.181 583.03,499.514 587.5,500.5C 581.167,501.167 574.833,501.833 568.5,502.5C 563.141,503.003 557.807,503.67 552.5,504.5C 552.611,503.883 552.944,503.383 553.5,503C 549.514,502.501 545.514,502.334 541.5,502.5C 551.949,500.759 562.616,499.759 573.5,499.5 Z"/></g>
<g><path style="opacity:1" fill="#e8dbc5" d="M 568.5,502.5 C 562.48,504.669 556.147,505.669 549.5,505.5C 550.209,504.596 551.209,504.263 552.5,504.5C 557.807,503.67 563.141,503.003 568.5,502.5 Z"/></g>
<g><path style="opacity:1" fill="#e3d1ae" d="M 727.5,505.5 C 730.152,505.41 732.485,506.076 734.5,507.5C 731.848,507.59 729.515,506.924 727.5,505.5 Z"/></g>
<g><path style="opacity:1" fill="#c79c4b" d="M 539.5,502.5 C 540.167,502.5 540.833,502.5 541.5,502.5C 545.514,502.334 549.514,502.501 553.5,503C 552.944,503.383 552.611,503.883 552.5,504.5C 551.209,504.263 550.209,504.596 549.5,505.5C 549.167,505.5 548.833,505.5 548.5,505.5C 537.005,507.541 525.671,510.207 514.5,513.5C 514.062,513.565 513.728,513.399 513.5,513C 515.513,512.125 515.513,510.791 513.5,509C 514.737,508.768 515.737,508.268 516.5,507.5C 524.1,505.534 531.767,503.867 539.5,502.5 Z"/></g>
<g><path style="opacity:1" fill="#cba65e" d="M 512.5,507.5 C 513.833,507.5 515.167,507.5 516.5,507.5C 515.737,508.268 514.737,508.768 513.5,509C 515.513,510.791 515.513,512.125 513.5,513C 513.728,513.399 514.062,513.565 514.5,513.5C 511.245,515.959 507.578,517.626 503.5,518.5C 501.608,515.214 498.942,514.214 495.5,515.5C 496.749,513.864 498.416,512.697 500.5,512C 504.837,511.095 508.837,509.595 512.5,507.5 Z"/></g>
<g><path style="opacity:1" fill="#faf9f9" d="M 967.5,515.5 C 967.5,525.167 967.5,534.833 967.5,544.5C 958.167,544.5 948.833,544.5 939.5,544.5C 939.334,535.161 939.5,525.827 940,516.5C 948.883,515.665 958.05,515.332 967.5,515.5 Z"/></g>
<g><path style="opacity:1" fill="#faf9f9" d="M 996.5,544.5 C 996.5,535.167 996.5,525.833 996.5,516.5C 1005.81,515.646 1015.14,515.313 1024.5,515.5C 1024.5,525.167 1024.5,534.833 1024.5,544.5C 1015.17,544.5 1005.83,544.5 996.5,544.5 Z"/></g>
<g><path style="opacity:1" fill="#f6f4f0" d="M 548.5,505.5 C 547.653,506.966 546.32,507.8 544.5,508C 546.868,510.995 549.535,513.495 552.5,515.5C 549.039,516.219 545.372,516.219 541.5,515.5C 541.807,513.554 541.807,511.887 541.5,510.5C 540.548,512.045 540.215,513.712 540.5,515.5C 530.97,515.552 521.636,515.885 512.5,516.5C 512.169,523.863 512.503,531.197 513.5,538.5C 521.594,542.606 529.927,544.772 538.5,545C 536.5,545.333 534.5,545.667 532.5,546C 533.737,546.232 534.737,546.732 535.5,547.5C 522.419,545.084 510.086,540.584 498.5,534C 494.99,532.093 493.824,529.26 495,525.5C 497.416,522.577 500.25,520.243 503.5,518.5C 507.578,517.626 511.245,515.959 514.5,513.5C 525.671,510.207 537.005,507.541 548.5,505.5 Z"/></g>
<g><path style="opacity:1" fill="#caa255" d="M 688.5,500.5 C 698.217,501.031 707.884,502.031 717.5,503.5C 720.589,504.785 723.922,505.451 727.5,505.5C 729.515,506.924 731.848,507.59 734.5,507.5C 735.708,508.234 737.041,508.567 738.5,508.5C 743.7,510.356 748.7,512.69 753.5,515.5C 756.858,517.7 759.358,520.7 761,524.5C 761.167,529.833 761.333,535.167 761.5,540.5C 760.678,585.841 759.678,631.174 758.5,676.5C 757.667,734.665 757.167,792.999 757,851.5C 756.667,852.5 756.333,853.5 756,854.5C 755.5,828.835 755.333,803.169 755.5,777.5C 755.5,760.833 755.5,744.167 755.5,727.5C 756.498,699.338 756.831,671.005 756.5,642.5C 756.785,640.712 756.452,639.045 755.5,637.5C 753.775,639.092 752.775,638.758 752.5,636.5C 752.461,635.244 752.961,634.244 754,633.5C 754.5,608.836 754.667,584.169 754.5,559.5C 754.83,552.468 754.497,545.468 753.5,538.5C 752.893,538.624 752.56,538.957 752.5,539.5C 747.139,542.847 741.472,545.681 735.5,548C 723.194,551.16 710.861,553.993 698.5,556.5C 689.175,557.261 679.842,557.928 670.5,558.5C 669.508,558.672 668.842,558.338 668.5,557.5C 673.605,556.879 678.605,555.879 683.5,554.5C 691.592,552.71 699.592,550.71 707.5,548.5C 708.167,548.5 708.833,548.5 709.5,548.5C 716.845,546.441 724.178,544.275 731.5,542C 738.784,539.464 745.284,535.631 751,530.5C 753,528.5 753,526.5 751,524.5C 748.094,521.963 744.927,519.796 741.5,518C 723.74,512.104 705.74,507.604 687.5,504.5C 686.391,503.71 685.058,503.21 683.5,503C 684.833,502.667 686.167,502.333 687.5,502C 682.459,500.992 682.792,500.492 688.5,500.5 Z"/></g>
<g><path style="opacity:1" fill="#f9f9f8" d="M 683.5,554.5 C 678.605,555.879 673.605,556.879 668.5,557.5C 667.078,557.709 665.745,558.209 664.5,559C 666.473,559.495 668.473,559.662 670.5,559.5C 674.846,559.334 679.179,559.501 683.5,560C 682.533,564.401 682.2,568.901 682.5,573.5C 678.774,573.177 675.107,573.511 671.5,574.5C 670.995,575.919 669.995,576.585 668.5,576.5C 664.737,572.401 660.404,569.067 655.5,566.5C 654.183,559.333 654.183,552.166 655.5,545C 664.494,544.5 673.494,544.334 682.5,544.5C 682.342,547.902 682.676,551.236 683.5,554.5 Z"/></g>
<g><path style="opacity:1" fill="#cfa962" d="M 735.5,432.5 C 744.395,434.037 753.395,435.037 762.5,435.5C 773.7,437.58 785.034,439.58 796.5,441.5C 798.806,441.993 801.139,442.326 803.5,442.5C 802.378,443.156 801.045,443.489 799.5,443.5C 789.155,442.555 778.822,441.555 768.5,440.5C 759.618,438.612 750.618,437.279 741.5,436.5C 737.93,435.615 734.263,434.615 730.5,433.5C 732.045,432.548 733.712,432.215 735.5,432.5 Z"/></g>
<g><path style="opacity:1" fill="#cda85f" d="M 542.5,549.5 C 547.638,550.408 552.638,551.408 557.5,552.5C 553.551,552.693 553.551,553.193 557.5,554C 554.903,554.598 554.236,556.098 555.5,558.5C 546.944,557.356 538.61,555.689 530.5,553.5C 532.857,553.663 535.19,553.497 537.5,553C 538.955,551.374 540.622,550.208 542.5,549.5 Z"/></g>
<g><path style="opacity:1" fill="#d1b47b" d="M 752.5,539.5 C 752.56,538.957 752.893,538.624 753.5,538.5C 754.497,545.468 754.83,552.468 754.5,559.5C 754.167,559.5 753.833,559.5 753.5,559.5C 753.824,552.646 753.491,545.979 752.5,539.5 Z"/></g>
<g><path style="opacity:1" fill="#d6ba83" d="M 556.5,558.5 C 560.489,558.116 564.155,558.783 567.5,560.5C 563.613,560.354 559.946,559.687 556.5,558.5 Z"/></g>
<g><path style="opacity:1" fill="#e5d7b9" d="M 613.5,558.5 C 617.514,558.334 621.514,558.501 625.5,559C 626.737,559.232 627.737,559.732 628.5,560.5C 623.332,560.066 618.332,559.4 613.5,558.5 Z"/></g>
<g><path style="opacity:1" fill="#e3cda2" d="M 668.5,557.5 C 668.842,558.338 669.508,558.672 670.5,558.5C 670.5,558.833 670.5,559.167 670.5,559.5C 668.473,559.662 666.473,559.495 664.5,559C 665.745,558.209 667.078,557.709 668.5,557.5 Z"/></g>
<g><path style="opacity:1" fill="#dabe85" d="M 571.5,560.5 C 577.069,560.376 582.402,561.043 587.5,562.5C 581.916,562.745 576.583,562.078 571.5,560.5 Z"/></g>
<g><path style="opacity:1" fill="#cba257" d="M 557.5,552.5 C 576.076,555.344 594.743,557.344 613.5,558.5C 618.332,559.4 623.332,560.066 628.5,560.5C 637.678,561.735 646.678,563.735 655.5,566.5C 660.404,569.067 664.737,572.401 668.5,576.5C 670.905,579.634 673.072,582.968 675,586.5C 679.003,596.951 681.17,607.617 681.5,618.5C 681.5,630.167 681.5,641.833 681.5,653.5C 680.566,654.568 680.232,655.901 680.5,657.5C 679.833,655.5 679.167,653.5 678.5,651.5C 678.93,641.037 678.264,630.704 676.5,620.5C 676.546,612.137 675.213,604.137 672.5,596.5C 668.661,582.495 659.661,573.662 645.5,570C 639.91,568.581 634.243,567.748 628.5,567.5C 625.275,566.763 621.941,566.097 618.5,565.5C 611.711,564.125 604.711,563.458 597.5,563.5C 593.958,563.813 590.625,563.479 587.5,562.5C 582.402,561.043 577.069,560.376 571.5,560.5C 570.167,560.5 568.833,560.5 567.5,560.5C 564.155,558.783 560.489,558.116 556.5,558.5C 556.167,558.5 555.833,558.5 555.5,558.5C 554.236,556.098 554.903,554.598 557.5,554C 553.551,553.193 553.551,552.693 557.5,552.5 Z"/></g>
<g><path style="opacity:1" fill="#dbc28f" d="M 597.5,563.5 C 604.711,563.458 611.711,564.125 618.5,565.5C 611.826,565.287 605.159,564.954 598.5,564.5C 597.833,564.5 597.5,564.167 597.5,563.5 Z"/></g>
<g><path style="opacity:1" fill="#f8f9f8" d="M 494.5,540.5 C 497.85,542.196 501.183,543.863 504.5,545.5C 505.873,552.538 503.206,554.704 496.5,552C 495.751,550.266 495.251,548.433 495,546.5C 494.5,555.494 494.334,564.494 494.5,573.5C 500.5,573.5 506.5,573.5 512.5,573.5C 512.5,582.833 512.5,592.167 512.5,601.5C 506.824,601.334 501.157,601.501 495.5,602C 494.891,603.948 494.224,605.782 493.5,607.5C 493.169,584.994 493.503,562.66 494.5,540.5 Z"/></g>
<g><path style="opacity:1" fill="#f9f8f7" d="M 628.5,567.5 C 634.243,567.748 639.91,568.581 645.5,570C 659.661,573.662 668.661,582.495 672.5,596.5C 673.008,599.176 673.175,601.843 673,604.5C 671.991,603.342 670.658,602.675 669,602.5C 664.53,601.736 660.03,601.403 655.5,601.5C 654.901,592.512 654.401,583.512 654,574.5C 653.667,574.833 653.333,575.167 653,575.5C 644.763,573.711 636.263,572.878 627.5,573C 626.826,571.249 626.493,569.583 626.5,568C 627.094,567.536 627.761,567.369 628.5,567.5 Z"/></g>
<g><path style="opacity:1" fill="#c99f50" d="M 503.5,518.5 C 500.25,520.243 497.416,522.577 495,525.5C 493.824,529.26 494.99,532.093 498.5,534C 510.086,540.584 522.419,545.084 535.5,547.5C 537.599,548.612 539.933,549.279 542.5,549.5C 540.622,550.208 538.955,551.374 537.5,553C 535.19,553.497 532.857,553.663 530.5,553.5C 528.883,552.962 527.216,552.629 525.5,552.5C 522.916,550.528 519.916,549.528 516.5,549.5C 514.485,548.076 512.152,547.41 509.5,547.5C 507.833,546.833 506.167,546.167 504.5,545.5C 501.183,543.863 497.85,542.196 494.5,540.5C 494.5,539.833 494.167,539.5 493.5,539.5C 493.44,538.957 493.107,538.624 492.5,538.5C 491.168,609.999 491.168,681.332 492.5,752.5C 492.5,796.5 492.5,840.5 492.5,884.5C 491.631,936.915 491.131,989.248 491,1041.5C 491.21,1039.94 491.71,1038.61 492.5,1037.5C 492.5,1044.17 492.5,1050.83 492.5,1057.5C 492.316,1059.92 491.649,1059.92 490.5,1057.5C 490.704,1058.53 490.204,1059.53 489,1060.5C 488.617,1059.94 488.117,1059.61 487.5,1059.5C 486.504,992.571 486.17,925.571 486.5,858.5C 486.781,747.829 486.448,637.162 485.5,526.5C 486.941,521.113 490.275,517.446 495.5,515.5C 498.942,514.214 501.608,515.214 503.5,518.5 Z"/></g>
<g><path style="opacity:1" fill="#dec38f" d="M 516.5,549.5 C 519.916,549.528 522.916,550.528 525.5,552.5C 522.215,552.072 519.215,551.072 516.5,549.5 Z"/></g>
<g><path style="opacity:1" fill="#d9ba89" d="M 509.5,547.5 C 512.152,547.41 514.485,548.076 516.5,549.5C 515.167,549.5 513.833,549.5 512.5,549.5C 511.5,548.833 510.5,548.167 509.5,547.5 Z"/></g>
<g><path style="opacity:1" fill="#f2f1f0" d="M 753.5,559.5 C 753.833,559.5 754.167,559.5 754.5,559.5C 754.667,584.169 754.5,608.836 754,633.5C 752.961,634.244 752.461,635.244 752.5,636.5C 749.378,640.161 747.545,644.495 747,649.5C 746.5,658.16 746.334,666.827 746.5,675.5C 746.5,676.833 746.5,678.167 746.5,679.5C 745.517,685.692 742.517,690.859 737.5,695C 732.563,696.369 728.396,695.203 725,691.5C 721.139,684.029 718.972,676.029 718.5,667.5C 719.222,667.918 719.722,668.584 720,669.5C 720.167,669 720.333,668.5 720.5,668C 720.492,665.332 720.159,662.498 719.5,659.5C 726.159,659.046 732.826,658.713 739.5,658.5C 739.818,649.106 739.818,639.772 739.5,630.5C 730.167,630.5 720.833,630.5 711.5,630.5C 711.5,620.833 711.5,611.167 711.5,601.5C 720.5,601.5 729.5,601.5 738.5,601.5C 738.504,573.539 739.17,573.539 740.5,601.5C 744.5,601.5 748.5,601.5 752.5,601.5C 753.553,592.861 753.886,578.861 753.5,559.5 Z"/></g>
<g><path style="opacity:1" fill="#faf9fa" d="M 932.5,601.5 C 934.607,602.468 936.941,602.802 939.5,602.5C 939.5,611.833 939.5,621.167 939.5,630.5C 929.833,630.5 920.167,630.5 910.5,630.5C 910.334,621.161 910.5,611.827 911,602.5C 918.079,601.52 925.245,601.187 932.5,601.5 Z"/></g>
<g><path style="opacity:1" fill="#faf9fa" d="M 1053.5,630.5 C 1043.83,630.5 1034.17,630.5 1024.5,630.5C 1024.62,621.292 1024.62,611.959 1024.5,602.5C 1034.13,601.983 1043.79,601.983 1053.5,602.5C 1053.5,611.833 1053.5,621.167 1053.5,630.5 Z"/></g>
<g><path style="opacity:1" fill="#cdac67" d="M 493.5,539.5 C 492.501,610.331 492.167,681.331 492.5,752.5C 491.168,681.332 491.168,609.999 492.5,538.5C 493.107,538.624 493.44,538.957 493.5,539.5 Z"/></g>
<g><path style="opacity:1" fill="#f9f9f8" d="M 711.5,630.5 C 720.833,630.5 730.167,630.5 739.5,630.5C 739.818,639.772 739.818,649.106 739.5,658.5C 732.826,658.713 726.159,659.046 719.5,659.5C 720.159,662.498 720.492,665.332 720.5,668C 720.333,668.5 720.167,669 720,669.5C 719.722,668.584 719.222,667.918 718.5,667.5C 717.699,665.958 717.366,664.292 717.5,662.5C 717.81,659.287 717.477,656.287 716.5,653.5C 716.5,652.5 716.5,651.5 716.5,650.5C 716.817,647.428 716.484,644.428 715.5,641.5C 714.295,642.577 713.628,643.91 713.5,645.5C 713.068,646.71 712.401,647.71 711.5,648.5C 710.938,642.645 710.938,636.645 711.5,630.5 Z"/></g>
<g><path style="opacity:1" fill="#faf9f9" d="M 825.5,630.5 C 834.833,630.5 844.167,630.5 853.5,630.5C 853.666,639.839 853.5,649.173 853,658.5C 844.197,659.822 835.363,659.822 826.5,658.5C 825.502,649.19 825.168,639.857 825.5,630.5 Z"/></g>
<g><path style="opacity:1" fill="#faf9f9" d="M 1110.5,630.5 C 1119.83,630.5 1129.17,630.5 1138.5,630.5C 1138.32,635.866 1138.66,641.2 1139.5,646.5C 1139.05,650.538 1138.38,654.538 1137.5,658.5C 1128.64,659.822 1119.8,659.822 1111,658.5C 1110.5,649.173 1110.33,639.839 1110.5,630.5 Z"/></g>
<g><path style="opacity:1" fill="#ecd8b9" d="M 716.5,650.5 C 715.691,648.708 715.191,646.708 715,644.5C 714.617,645.056 714.117,645.389 713.5,645.5C 713.628,643.91 714.295,642.577 715.5,641.5C 716.484,644.428 716.817,647.428 716.5,650.5 Z"/></g>
<g><path style="opacity:1" fill="#e9e2d2" d="M 756.5,642.5 C 756.831,671.005 756.498,699.338 755.5,727.5C 755.667,703.164 755.5,678.831 755,654.5C 752.939,659.328 751.606,659.328 751,654.5C 750.828,660.681 750.328,666.681 749.5,672.5C 749.5,665.167 749.5,657.833 749.5,650.5C 750.298,646.562 751.964,642.895 754.5,639.5C 755.176,640.602 755.842,641.602 756.5,642.5 Z"/></g>
<g><path style="opacity:1" fill="#d0b173" d="M 752.5,636.5 C 752.775,638.758 753.775,639.092 755.5,637.5C 756.452,639.045 756.785,640.712 756.5,642.5C 755.842,641.602 755.176,640.602 754.5,639.5C 751.964,642.895 750.298,646.562 749.5,650.5C 749.307,646.551 748.807,646.551 748,650.5C 747.829,659.01 747.329,667.343 746.5,675.5C 746.334,666.827 746.5,658.16 747,649.5C 747.545,644.495 749.378,640.161 752.5,636.5 Z"/></g>
<g><path style="opacity:1" fill="#c8a25f" d="M 678.5,651.5 C 679.167,653.5 679.833,655.5 680.5,657.5C 680.721,669.193 680.388,680.86 679.5,692.5C 678.509,686.021 678.176,679.354 678.5,672.5C 678.5,665.5 678.5,658.5 678.5,651.5 Z"/></g>
<g><path style="opacity:1" fill="#d4b980" d="M 716.5,653.5 C 717.477,656.287 717.81,659.287 717.5,662.5C 716.523,665.287 716.19,668.287 716.5,671.5C 715.518,668.038 715.185,664.371 715.5,660.5C 716.468,658.393 716.802,656.059 716.5,653.5 Z"/></g>
<g><path style="opacity:1" fill="#c39948" d="M 749.5,650.5 C 749.5,657.833 749.5,665.167 749.5,672.5C 749.212,675.939 748.546,679.272 747.5,682.5C 746.596,681.791 746.263,680.791 746.5,679.5C 746.5,678.167 746.5,676.833 746.5,675.5C 747.329,667.343 747.829,659.01 748,650.5C 748.807,646.551 749.307,646.551 749.5,650.5 Z"/></g>
<g><path style="opacity:1" fill="#f9f8f7" d="M 676.5,620.5 C 678.264,630.704 678.93,641.037 678.5,651.5C 678.5,658.5 678.5,665.5 678.5,672.5C 677.507,680.65 677.174,688.983 677.5,697.5C 676.637,703.127 675.97,708.794 675.5,714.5C 674.691,712.708 674.191,710.708 674,708.5C 672.691,710.686 672.524,712.853 673.5,715C 667.621,716.41 661.621,716.91 655.5,716.5C 654.675,706.857 654.342,697.191 654.5,687.5C 661.755,687.187 668.921,687.52 676,688.5C 676.5,678.839 676.666,669.172 676.5,659.5C 669.354,659.64 662.354,659.307 655.5,658.5C 655.18,649.148 654.846,639.815 654.5,630.5C 661.5,630.5 668.5,630.5 675.5,630.5C 675.187,626.958 675.521,623.625 676.5,620.5 Z"/></g>
<g><path style="opacity:1" fill="#d4b885" d="M 678.5,672.5 C 678.176,679.354 678.509,686.021 679.5,692.5C 679.81,695.713 679.477,698.713 678.5,701.5C 678.768,699.901 678.434,698.568 677.5,697.5C 677.174,688.983 677.507,680.65 678.5,672.5 Z"/></g>
<g><path style="opacity:1" fill="#f5f4f3" d="M 715.5,660.5 C 715.185,664.371 715.518,668.038 716.5,671.5C 715.944,681.631 719.277,690.131 726.5,697C 738.558,699.63 745.558,694.796 747.5,682.5C 748.546,679.272 749.212,675.939 749.5,672.5C 750.328,666.681 750.828,660.681 751,654.5C 751.606,659.328 752.939,659.328 755,654.5C 755.5,678.831 755.667,703.164 755.5,727.5C 755.5,744.167 755.5,760.833 755.5,777.5C 754.539,779.265 754.205,781.265 754.5,783.5C 753.698,782.048 753.198,780.382 753,778.5C 752.667,778.833 752.333,779.167 752,779.5C 751.333,785.833 751.333,792.167 752,798.5C 752.333,795.5 752.667,792.5 753,789.5C 753.499,793.821 753.666,798.154 753.5,802.5C 749.167,802.5 744.833,802.5 740.5,802.5C 740.666,792.494 740.5,782.494 740,772.5C 733.215,773.263 726.382,773.93 719.5,774.5C 719.75,779.58 719.25,784.58 718,789.5C 717.51,788.207 717.343,786.873 717.5,785.5C 717.825,777.981 717.492,770.648 716.5,763.5C 715.122,747.609 712.455,731.942 708.5,716.5C 707.752,708.846 707.085,701.179 706.5,693.5C 705.975,679.296 708.309,665.63 713.5,652.5C 714.795,655.012 715.461,657.679 715.5,660.5 Z"/></g>
<g><path style="opacity:1" fill="#cda75e" d="M 717.5,662.5 C 717.366,664.292 717.699,665.958 718.5,667.5C 718.972,676.029 721.139,684.029 725,691.5C 728.396,695.203 732.563,696.369 737.5,695C 742.517,690.859 745.517,685.692 746.5,679.5C 746.263,680.791 746.596,681.791 747.5,682.5C 745.558,694.796 738.558,699.63 726.5,697C 719.277,690.131 715.944,681.631 716.5,671.5C 716.19,668.287 716.523,665.287 717.5,662.5 Z"/></g>
<g><path style="opacity:1" fill="#cda560" d="M 716.5,650.5 C 716.5,651.5 716.5,652.5 716.5,653.5C 716.802,656.059 716.468,658.393 715.5,660.5C 715.461,657.679 714.795,655.012 713.5,652.5C 708.309,665.63 705.975,679.296 706.5,693.5C 707.085,701.179 707.752,708.846 708.5,716.5C 705.828,718.391 704.828,721.058 705.5,724.5C 703.868,712.372 703.201,700.039 703.5,687.5C 704.509,679.114 705.842,670.78 707.5,662.5C 709.733,658.258 711.066,653.591 711.5,648.5C 712.401,647.71 713.068,646.71 713.5,645.5C 714.117,645.389 714.617,645.056 715,644.5C 715.191,646.708 715.691,648.708 716.5,650.5 Z"/></g>
<g><path style="opacity:1" fill="#cda663" d="M 677.5,697.5 C 678.434,698.568 678.768,699.901 678.5,701.5C 678.215,720.717 676.882,739.717 674.5,758.5C 674.737,754.727 674.237,751.06 673,747.5C 672.038,752.012 670.871,756.345 669.5,760.5C 672.144,745.256 674.144,729.922 675.5,714.5C 675.97,708.794 676.637,703.127 677.5,697.5 Z"/></g>
<g><path style="opacity:1" fill="#c99e4c" d="M 708.5,716.5 C 712.455,731.942 715.122,747.609 716.5,763.5C 716.508,769.208 716.008,769.541 715,764.5C 714.667,765.5 714.333,766.5 714,767.5C 712.855,766.316 711.688,766.316 710.5,767.5C 709.62,758.824 708.62,750.158 707.5,741.5C 707.283,737.295 706.617,733.295 705.5,729.5C 705.5,727.833 705.5,726.167 705.5,724.5C 704.828,721.058 705.828,718.391 708.5,716.5 Z"/></g>
<g><path style="opacity:1" fill="#e9dab9" d="M 705.5,729.5 C 706.617,733.295 707.283,737.295 707.5,741.5C 707.167,741.5 706.833,741.5 706.5,741.5C 705.838,737.534 705.505,733.534 705.5,729.5 Z"/></g>
<g><path style="opacity:1" fill="#f2f2f0" d="M 681.5,653.5 C 681.532,659.493 682.532,665.326 684.5,671C 683.57,676.45 683.237,681.95 683.5,687.5C 689.5,687.5 695.5,687.5 701.5,687.5C 701.351,686.448 701.517,685.448 702,684.5C 702.232,685.737 702.732,686.737 703.5,687.5C 703.201,700.039 703.868,712.372 705.5,724.5C 705.5,726.167 705.5,727.833 705.5,729.5C 704.005,729.585 703.005,728.919 702.5,727.5C 703.687,725.79 703.354,724.29 701.5,723C 702.736,721.144 702.736,719.311 701.5,717.5C 695.863,716.337 690.196,716.17 684.5,717C 683.515,726.417 683.182,735.917 683.5,745.5C 687.879,745.708 692.213,745.375 696.5,744.5C 698.187,744.76 699.687,745.427 701,746.5C 702.401,744.808 704.234,744.141 706.5,744.5C 706.5,743.5 706.5,742.5 706.5,741.5C 706.833,741.5 707.167,741.5 707.5,741.5C 708.62,750.158 709.62,758.824 710.5,767.5C 710.817,771.702 710.483,775.702 709.5,779.5C 709.666,775.154 709.499,770.821 709,766.5C 708.667,769.167 708.333,771.833 708,774.5C 699.927,774.195 691.76,774.195 683.5,774.5C 684.085,782.772 683.418,790.772 681.5,798.5C 678.919,795.68 677.086,792.346 676,788.5C 674.669,778.55 674.169,768.55 674.5,758.5C 676.882,739.717 678.215,720.717 678.5,701.5C 679.477,698.713 679.81,695.713 679.5,692.5C 680.388,680.86 680.721,669.193 680.5,657.5C 680.232,655.901 680.566,654.568 681.5,653.5 Z"/></g>
<g><path style="opacity:1" fill="#efe8d6" d="M 493.5,539.5 C 494.167,539.5 494.5,539.833 494.5,540.5C 493.503,562.66 493.169,584.994 493.5,607.5C 493.5,609.833 493.5,612.167 493.5,614.5C 493.5,634.833 493.5,655.167 493.5,675.5C 493.5,676.833 493.5,678.167 493.5,679.5C 493.5,693.167 493.5,706.833 493.5,720.5C 493.5,724.833 493.5,729.167 493.5,733.5C 493.5,752.167 493.5,770.833 493.5,789.5C 493.5,790.5 493.5,791.5 493.5,792.5C 493.5,831.833 493.5,871.167 493.5,910.5C 493.5,912.5 493.5,914.5 493.5,916.5C 493.5,927.833 493.5,939.167 493.5,950.5C 493.5,951.833 493.5,953.167 493.5,954.5C 493.5,970.833 493.5,987.167 493.5,1003.5C 493.5,1005.83 493.5,1008.17 493.5,1010.5C 493.5,1026.17 493.5,1041.83 493.5,1057.5C 493.167,1057.5 492.833,1057.5 492.5,1057.5C 492.5,1050.83 492.5,1044.17 492.5,1037.5C 492.5,986.5 492.5,935.5 492.5,884.5C 492.5,840.5 492.5,796.5 492.5,752.5C 492.167,681.331 492.501,610.331 493.5,539.5 Z"/></g>
<g><path style="opacity:1" fill="#cba254" d="M 674.5,758.5 C 674.169,768.55 674.669,778.55 676,788.5C 677.086,792.346 678.919,795.68 681.5,798.5C 684.105,801.884 687.605,803.551 692,803.5C 699.007,803.164 704.007,799.831 707,793.5C 708.373,788.928 709.206,784.261 709.5,779.5C 710.483,775.702 710.817,771.702 710.5,767.5C 711.688,766.316 712.855,766.316 714,767.5C 714.333,766.5 714.667,765.5 715,764.5C 716.008,769.541 716.508,769.208 716.5,763.5C 717.492,770.648 717.825,777.981 717.5,785.5C 716.427,791.083 714.427,796.416 711.5,801.5C 704.977,809.062 696.643,812.228 686.5,811C 685.473,810.487 684.473,809.987 683.5,809.5C 680.19,807.518 677.19,805.185 674.5,802.5C 669.213,794.369 666.879,785.369 667.5,775.5C 667.65,770.419 668.317,765.419 669.5,760.5C 670.871,756.345 672.038,752.012 673,747.5C 674.237,751.06 674.737,754.727 674.5,758.5 Z"/></g>
<g><path style="opacity:1" fill="#f9f8f7" d="M 709.5,779.5 C 709.206,784.261 708.373,788.928 707,793.5C 704.007,799.831 699.007,803.164 692,803.5C 687.605,803.551 684.105,801.884 681.5,798.5C 683.418,790.772 684.085,782.772 683.5,774.5C 691.76,774.195 699.927,774.195 708,774.5C 708.333,771.833 708.667,769.167 709,766.5C 709.499,770.821 709.666,775.154 709.5,779.5 Z"/></g>
<g><path style="opacity:1" fill="#faf9f9" d="M 28.5,802.5 C 37.8333,802.5 47.1667,802.5 56.5,802.5C 56.5,811.833 56.5,821.167 56.5,830.5C 47.1484,830.71 37.8151,830.71 28.5,830.5C 28.5,821.167 28.5,811.833 28.5,802.5 Z"/></g>
<g><path style="opacity:1" fill="#faf9f9" d="M 227.5,802.5 C 227.5,811.833 227.5,821.167 227.5,830.5C 217.655,831.577 207.988,831.577 198.5,830.5C 198.5,821.833 198.5,813.167 198.5,804.5C 198.611,803.883 198.944,803.383 199.5,803C 208.827,802.5 218.161,802.334 227.5,802.5 Z"/></g>
<g><path style="opacity:1" fill="#f2f2f1" d="M 504.5,545.5 C 506.167,546.167 507.833,546.833 509.5,547.5C 510.5,548.167 511.5,548.833 512.5,549.5C 512.185,557.42 512.518,565.253 513.5,573C 522.744,573.181 531.911,573.681 541,574.5C 541.5,583.494 541.666,592.494 541.5,601.5C 550.833,601.5 560.167,601.5 569.5,601.5C 569.5,611.167 569.5,620.833 569.5,630.5C 560.167,630.5 550.833,630.5 541.5,630.5C 541.5,640.167 541.5,649.833 541.5,659.5C 550.833,659.5 560.167,659.5 569.5,659.5C 569.5,668.833 569.5,678.167 569.5,687.5C 578.833,687.5 588.167,687.5 597.5,687.5C 597.334,696.839 597.5,706.173 598,715.5C 607.417,716.485 616.917,716.818 626.5,716.5C 626.5,706.833 626.5,697.167 626.5,687.5C 635.833,687.5 645.167,687.5 654.5,687.5C 654.342,697.191 654.675,706.857 655.5,716.5C 661.621,716.91 667.621,716.41 673.5,715C 672.524,712.853 672.691,710.686 674,708.5C 674.191,710.708 674.691,712.708 675.5,714.5C 674.144,729.922 672.144,745.256 669.5,760.5C 668.317,765.419 667.65,770.419 667.5,775.5C 666.879,785.369 669.213,794.369 674.5,802.5C 668.044,802.597 661.377,802.597 654.5,802.5C 655.565,810.829 655.565,818.996 654.5,827C 655.167,828.333 655.833,829.667 656.5,831C 665.192,830.769 673.858,830.769 682.5,831C 682.929,823.857 683.262,816.691 683.5,809.5C 684.473,809.987 685.473,810.487 686.5,811C 696.643,812.228 704.977,809.062 711.5,801.5C 714.427,796.416 716.427,791.083 717.5,785.5C 717.343,786.873 717.51,788.207 718,789.5C 719.25,784.58 719.75,779.58 719.5,774.5C 726.382,773.93 733.215,773.263 740,772.5C 740.5,782.494 740.666,792.494 740.5,802.5C 744.833,802.5 749.167,802.5 753.5,802.5C 753.666,798.154 753.499,793.821 753,789.5C 752.667,792.5 752.333,795.5 752,798.5C 751.333,792.167 751.333,785.833 752,779.5C 752.333,779.167 752.667,778.833 753,778.5C 753.198,780.382 753.698,782.048 754.5,783.5C 754.5,815.167 754.5,846.833 754.5,878.5C 754.5,883.833 754.5,889.167 754.5,894.5C 754.167,894.5 753.833,894.5 753.5,894.5C 753.739,892.533 753.406,890.699 752.5,889C 748.514,888.501 744.514,888.334 740.5,888.5C 740.5,898.167 740.5,907.833 740.5,917.5C 730.833,917.5 721.167,917.5 711.5,917.5C 711.5,926.833 711.5,936.167 711.5,945.5C 724.675,945.9 737.675,945.234 750.5,943.5C 750.674,935.527 751.174,935.527 752,943.5C 752.17,934.324 752.67,925.324 753.5,916.5C 753.5,930.833 753.5,945.167 753.5,959.5C 753.83,977.008 753.497,994.341 752.5,1011.5C 752.833,989.49 752.5,967.49 751.5,945.5C 748.099,944.24 744.432,944.24 740.5,945.5C 740.5,955.167 740.5,964.833 740.5,974.5C 730.833,974.5 721.167,974.5 711.5,974.5C 711.5,983.833 711.5,993.167 711.5,1002.5C 727.907,1001.93 737.574,1002.26 740.5,1003.5C 740.128,1012.76 740.128,1022.09 740.5,1031.5C 743.833,1031.5 747.167,1031.5 750.5,1031.5C 750.334,1036.18 750.501,1040.85 751,1045.5C 751.171,1038.32 751.671,1031.32 752.5,1024.5C 752.666,1033.84 752.5,1043.17 752,1052.5C 751.275,1054.95 750.275,1057.28 749,1059.5C 734.962,1071.1 719.129,1079.44 701.5,1084.5C 700.737,1083.73 699.737,1083.23 698.5,1083C 702.668,1080.91 707.002,1079.41 711.5,1078.5C 711.5,1072.5 711.5,1066.5 711.5,1060.5C 702.167,1060.5 692.833,1060.5 683.5,1060.5C 683.5,1069.83 683.5,1079.17 683.5,1088.5C 679.098,1088.77 674.765,1088.44 670.5,1087.5C 665.887,1088.28 661.22,1088.78 656.5,1089C 654.963,1090.11 654.297,1091.61 654.5,1093.5C 652.473,1093.34 650.473,1093.5 648.5,1094C 649.448,1094.48 650.448,1094.65 651.5,1094.5C 635.703,1096.25 619.703,1096.92 603.5,1096.5C 601.167,1096.5 598.833,1096.5 596.5,1096.5C 591.071,1094.99 585.404,1094.32 579.5,1094.5C 574.452,1094.16 569.452,1093.49 564.5,1092.5C 560.574,1091.45 556.574,1090.78 552.5,1090.5C 548.959,1088.76 545.293,1087.43 541.5,1086.5C 540.701,1077.86 540.368,1069.19 540.5,1060.5C 531.167,1060.5 521.833,1060.5 512.5,1060.5C 512.5,1050.83 512.5,1041.17 512.5,1031.5C 506.5,1031.5 500.5,1031.5 494.5,1031.5C 494.825,1024.31 494.491,1017.31 493.5,1010.5C 493.5,1008.17 493.5,1005.83 493.5,1003.5C 499.533,1002.7 505.866,1002.37 512.5,1002.5C 512.5,993.167 512.5,983.833 512.5,974.5C 506.5,974.5 500.5,974.5 494.5,974.5C 494.824,967.646 494.491,960.979 493.5,954.5C 493.5,953.167 493.5,951.833 493.5,950.5C 494.451,949.081 494.784,947.415 494.5,945.5C 500.5,945.5 506.5,945.5 512.5,945.5C 512.5,936.167 512.5,926.833 512.5,917.5C 505.866,917.632 499.533,917.299 493.5,916.5C 493.5,914.5 493.5,912.5 493.5,910.5C 494.492,903.352 494.825,896.019 494.5,888.5C 500.176,888.666 505.843,888.499 511.5,888C 512.833,878.667 512.833,869.333 511.5,860C 505.796,859.313 500.13,859.479 494.5,860.5C 494.5,850.5 494.5,840.5 494.5,830.5C 500.555,831.044 506.555,831.044 512.5,830.5C 512.5,821.167 512.5,811.833 512.5,802.5C 506.5,802.5 500.5,802.5 494.5,802.5C 494.813,798.958 494.479,795.625 493.5,792.5C 493.5,791.5 493.5,790.5 493.5,789.5C 494.488,784.36 494.821,779.026 494.5,773.5C 500.5,773.5 506.5,773.5 512.5,773.5C 512.5,764.167 512.5,754.833 512.5,745.5C 506.58,745.153 500.58,745.153 494.5,745.5C 494.817,741.298 494.483,737.298 493.5,733.5C 493.5,729.167 493.5,724.833 493.5,720.5C 494.434,719.432 494.768,718.099 494.5,716.5C 500.425,716.808 506.259,716.475 512,715.5C 512.5,706.173 512.666,696.839 512.5,687.5C 506.575,687.192 500.741,687.525 495,688.5C 494.819,685.305 494.319,682.305 493.5,679.5C 493.5,678.167 493.5,676.833 493.5,675.5C 494.327,670.015 494.827,664.348 495,658.5C 500.789,659.721 506.622,659.721 512.5,658.5C 512.5,649.167 512.5,639.833 512.5,630.5C 506.5,630.5 500.5,630.5 494.5,630.5C 494.821,624.974 494.488,619.64 493.5,614.5C 493.5,612.167 493.5,609.833 493.5,607.5C 494.224,605.782 494.891,603.948 495.5,602C 501.157,601.501 506.824,601.334 512.5,601.5C 512.5,592.167 512.5,582.833 512.5,573.5C 506.5,573.5 500.5,573.5 494.5,573.5C 494.334,564.494 494.5,555.494 495,546.5C 495.251,548.433 495.751,550.266 496.5,552C 503.206,554.704 505.873,552.538 504.5,545.5 Z"/></g>
<g><path style="opacity:1" fill="#faf9f9" d="M 569.5,802.5 C 569.666,811.839 569.5,821.173 569,830.5C 567.938,831.097 566.772,831.43 565.5,831.5C 557.45,830.43 549.616,830.43 542,831.5C 541.5,821.839 541.334,812.172 541.5,802.5C 550.833,802.5 560.167,802.5 569.5,802.5 Z"/></g>
<g><path style="opacity:1" fill="#faf9f9" d="M 825.5,802.5 C 834.833,802.5 844.167,802.5 853.5,802.5C 854.1,812.428 853.433,822.095 851.5,831.5C 842.762,831.196 834.096,831.196 825.5,831.5C 825.5,821.833 825.5,812.167 825.5,802.5 Z"/></g>
<g><path style="opacity:1" fill="#faf9f9" d="M 967.5,802.5 C 967.5,811.833 967.5,821.167 967.5,830.5C 958.527,831.549 949.527,831.716 940.5,831C 939.515,821.583 939.182,812.083 939.5,802.5C 948.833,802.5 958.167,802.5 967.5,802.5 Z"/></g>
<g><path style="opacity:1" fill="#f9f9fa" d="M 939.5,859.5 C 929.833,859.5 920.167,859.5 910.5,859.5C 910.182,850.249 910.515,841.083 911.5,832C 920.827,831.5 930.161,831.334 939.5,831.5C 939.5,840.833 939.5,850.167 939.5,859.5 Z"/></g>
<g><path style="opacity:1" fill="#faf9f9" d="M 113.5,888.5 C 104.167,888.5 94.8333,888.5 85.5,888.5C 84.7768,879.241 84.4435,870.241 84.5,861.5C 84.7093,860.914 85.0426,860.414 85.5,860C 94.7447,859.183 103.911,859.35 113,860.5C 113.5,869.827 113.666,879.161 113.5,888.5 Z"/></g>
<g><path style="opacity:1" fill="#faf9fa" d="M 1053.5,859.5 C 1062.83,859.5 1072.17,859.5 1081.5,859.5C 1081.5,869.167 1081.5,878.833 1081.5,888.5C 1072.17,888.5 1062.83,888.5 1053.5,888.5C 1053.5,878.833 1053.5,869.167 1053.5,859.5 Z"/></g>
<g><path style="opacity:1" fill="#f9f9fa" d="M 1081.5,888.5 C 1091.17,888.5 1100.83,888.5 1110.5,888.5C 1110.5,897.833 1110.5,907.167 1110.5,916.5C 1101.16,917.751 1091.83,917.751 1082.5,916.5C 1082.76,907.079 1082.43,897.746 1081.5,888.5 Z"/></g>
<g><path style="opacity:1" fill="#d2b272" d="M 758.5,676.5 C 758.5,802.167 758.5,927.833 758.5,1053.5C 758.5,1054.17 758.167,1054.5 757.5,1054.5C 757.667,989.166 757.5,923.832 757,858.5C 755.904,860.459 755.404,862.625 755.5,865C 755.743,868.176 756.077,871.343 756.5,874.5C 756.415,876.333 755.748,877.666 754.5,878.5C 754.5,846.833 754.5,815.167 754.5,783.5C 754.205,781.265 754.539,779.265 755.5,777.5C 755.333,803.169 755.5,828.835 756,854.5C 756.333,853.5 756.667,852.5 757,851.5C 757.167,792.999 757.667,734.665 758.5,676.5 Z"/></g>
<g><path style="opacity:1" fill="#faf9f9" d="M 626.5,917.5 C 626.5,926.833 626.5,936.167 626.5,945.5C 617.161,945.666 607.827,945.5 598.5,945C 597.515,935.917 597.182,926.751 597.5,917.5C 607.167,917.5 616.833,917.5 626.5,917.5 Z"/></g>
<g><path style="opacity:1" fill="#cca560" d="M 753.5,894.5 C 753.833,894.5 754.167,894.5 754.5,894.5C 754.333,905.505 754.5,916.505 755,927.5C 755.333,919.167 755.667,910.833 756,902.5C 756.667,920.833 756.667,939.167 756,957.5C 755.667,950.167 755.333,942.833 755,935.5C 754.829,943.677 754.329,951.677 753.5,959.5C 753.5,945.167 753.5,930.833 753.5,916.5C 753.5,909.167 753.5,901.833 753.5,894.5 Z"/></g>
<g><path style="opacity:1" fill="#f9f9fa" d="M 939.5,974.5 C 930.161,974.666 920.827,974.5 911.5,974C 910.35,964.911 910.183,955.745 911,946.5C 920.089,945.35 929.255,945.183 938.5,946C 939.485,955.417 939.818,964.917 939.5,974.5 Z"/></g>
<g><path style="opacity:1" fill="#cdac66" d="M 492.5,884.5 C 492.5,935.5 492.5,986.5 492.5,1037.5C 491.71,1038.61 491.21,1039.94 491,1041.5C 491.131,989.248 491.631,936.915 492.5,884.5 Z"/></g>
<g><path style="opacity:1" fill="#faf9f9" d="M 654.5,1060.5 C 655.539,1051.16 655.705,1041.83 655,1032.5C 664.107,1031.18 673.273,1031.18 682.5,1032.5C 683.639,1041.45 683.805,1050.45 683,1059.5C 673.583,1060.49 664.083,1060.82 654.5,1060.5 Z"/></g>
<g><path style="opacity:1" fill="#f9f9f8" d="M 756.5,1058.5 C 757.151,1059.09 757.818,1059.76 758.5,1060.5C 761.652,1060.29 764.985,1060.29 768.5,1060.5C 768.5,1069.83 768.5,1079.17 768.5,1088.5C 759.167,1088.5 749.833,1088.5 740.5,1088.5C 740.229,1084.28 739.562,1079.95 738.5,1075.5C 745.761,1071.24 751.761,1065.57 756.5,1058.5 Z"/></g>
<g><path style="opacity:1" fill="#f8f8f7" d="M 493.5,1010.5 C 494.491,1017.31 494.825,1024.31 494.5,1031.5C 500.5,1031.5 506.5,1031.5 512.5,1031.5C 512.5,1041.17 512.5,1050.83 512.5,1060.5C 521.833,1060.5 531.167,1060.5 540.5,1060.5C 540.368,1069.19 540.701,1077.86 541.5,1086.5C 525.084,1082.31 510.251,1074.98 497,1064.5C 495.295,1062.42 494.128,1060.09 493.5,1057.5C 493.5,1041.83 493.5,1026.17 493.5,1010.5 Z"/></g>
<g><path style="opacity:1" fill="#f9f9f8" d="M 711.5,1060.5 C 711.5,1066.5 711.5,1072.5 711.5,1078.5C 707.002,1079.41 702.668,1080.91 698.5,1083C 699.737,1083.23 700.737,1083.73 701.5,1084.5C 691.796,1087.43 682.129,1090.1 672.5,1092.5C 672.167,1092.5 671.833,1092.5 671.5,1092.5C 664.885,1093.64 658.218,1094.3 651.5,1094.5C 650.448,1094.65 649.448,1094.48 648.5,1094C 650.473,1093.5 652.473,1093.34 654.5,1093.5C 654.297,1091.61 654.963,1090.11 656.5,1089C 661.22,1088.78 665.887,1088.28 670.5,1087.5C 674.765,1088.44 679.098,1088.77 683.5,1088.5C 683.5,1079.17 683.5,1069.83 683.5,1060.5C 692.833,1060.5 702.167,1060.5 711.5,1060.5 Z"/></g>
<g><path style="opacity:1" fill="#cca35a" d="M 492.5,1057.5 C 492.833,1057.5 493.167,1057.5 493.5,1057.5C 494.128,1060.09 495.295,1062.42 497,1064.5C 510.251,1074.98 525.084,1082.31 541.5,1086.5C 545.293,1087.43 548.959,1088.76 552.5,1090.5C 549.887,1091.1 549.887,1091.93 552.5,1093C 551.833,1093.33 551.167,1093.67 550.5,1094C 551.737,1094.23 552.737,1094.73 553.5,1095.5C 540.59,1093.08 528.256,1089.08 516.5,1083.5C 508.256,1079.7 500.589,1074.87 493.5,1069C 490.854,1066.2 488.854,1063.03 487.5,1059.5C 488.117,1059.61 488.617,1059.94 489,1060.5C 490.204,1059.53 490.704,1058.53 490.5,1057.5C 491.649,1059.92 492.316,1059.92 492.5,1057.5 Z"/></g>
<g><path style="opacity:1" fill="#cba256" d="M 757.5,1054.5 C 757.167,1055.83 756.833,1057.17 756.5,1058.5C 751.761,1065.57 745.761,1071.24 738.5,1075.5C 721.058,1084.54 702.724,1091.2 683.5,1095.5C 683.372,1093.91 682.705,1092.58 681.5,1091.5C 678.579,1092.41 675.579,1092.74 672.5,1092.5C 682.129,1090.1 691.796,1087.43 701.5,1084.5C 719.129,1079.44 734.962,1071.1 749,1059.5C 750.275,1057.28 751.275,1054.95 752,1052.5C 752.5,1043.17 752.666,1033.84 752.5,1024.5C 752.5,1020.17 752.5,1015.83 752.5,1011.5C 753.497,994.341 753.83,977.008 753.5,959.5C 754.329,951.677 754.829,943.677 755,935.5C 755.333,942.833 755.667,950.167 756,957.5C 756.667,939.167 756.667,920.833 756,902.5C 755.667,910.833 755.333,919.167 755,927.5C 754.5,916.505 754.333,905.505 754.5,894.5C 754.5,889.167 754.5,883.833 754.5,878.5C 755.748,877.666 756.415,876.333 756.5,874.5C 756.077,871.343 755.743,868.176 755.5,865C 755.404,862.625 755.904,860.459 757,858.5C 757.5,923.832 757.667,989.166 757.5,1054.5 Z"/></g>
<g><path style="opacity:1" fill="#c89b44" d="M 552.5,1090.5 C 556.574,1090.78 560.574,1091.45 564.5,1092.5C 565.602,1094.09 564.935,1094.93 562.5,1095C 563.167,1095.33 563.833,1095.67 564.5,1096C 562.527,1096.5 560.527,1096.66 558.5,1096.5C 556.784,1096.37 555.117,1096.04 553.5,1095.5C 552.737,1094.73 551.737,1094.23 550.5,1094C 551.167,1093.67 551.833,1093.33 552.5,1093C 549.887,1091.93 549.887,1091.1 552.5,1090.5 Z"/></g>
<g><path style="opacity:1" fill="#c79948" d="M 683.5,1095.5 C 682.209,1095.26 681.209,1095.6 680.5,1096.5C 678.139,1096.67 675.806,1097.01 673.5,1097.5C 671.169,1097.5 669.169,1096.67 667.5,1095C 668.858,1094.07 670.192,1093.23 671.5,1092.5C 671.833,1092.5 672.167,1092.5 672.5,1092.5C 675.579,1092.74 678.579,1092.41 681.5,1091.5C 682.705,1092.58 683.372,1093.91 683.5,1095.5 Z"/></g>
<g><path style="opacity:1" fill="#f2f1f0" d="M 738.5,1075.5 C 739.562,1079.95 740.229,1084.28 740.5,1088.5C 734.488,1089.5 728.488,1089.5 722.5,1088.5C 719.558,1088.85 716.725,1089.52 714,1090.5C 713.667,1090.17 713.333,1089.83 713,1089.5C 711.614,1098.77 711.114,1108.1 711.5,1117.5C 702.167,1117.5 692.833,1117.5 683.5,1117.5C 683.5,1110.5 683.5,1103.5 683.5,1096.5C 682.5,1096.5 681.5,1096.5 680.5,1096.5C 681.209,1095.6 682.209,1095.26 683.5,1095.5C 702.724,1091.2 721.058,1084.54 738.5,1075.5 Z"/></g>
<g><path style="opacity:1" fill="#f9f9f8" d="M 516.5,1083.5 C 528.256,1089.08 540.59,1093.08 553.5,1095.5C 555.117,1096.04 556.784,1096.37 558.5,1096.5C 563.911,1098.24 569.578,1099.24 575.5,1099.5C 575.918,1100.22 576.584,1100.72 577.5,1101C 574.805,1101.25 572.305,1101.42 570,1101.5C 569.501,1106.82 569.334,1112.16 569.5,1117.5C 560.167,1117.5 550.833,1117.5 541.5,1117.5C 541.951,1110.36 541.284,1103.36 539.5,1096.5C 535.748,1094.25 531.415,1091.75 526.5,1089C 521.763,1089.3 517.43,1089.13 513.5,1088.5C 513.714,1086.86 513.38,1085.36 512.5,1084C 513.793,1083.51 515.127,1083.34 516.5,1083.5 Z"/></g>
<g><path style="opacity:1" fill="#dfcca8" d="M 579.5,1094.5 C 585.404,1094.32 591.071,1094.99 596.5,1096.5C 590.627,1096.4 584.96,1095.74 579.5,1094.5 Z"/></g>
<g><path style="opacity:1" fill="#d1ac66" d="M 671.5,1092.5 C 670.192,1093.23 668.858,1094.07 667.5,1095C 669.169,1096.67 671.169,1097.5 673.5,1097.5C 657.481,1100.93 641.147,1102.59 624.5,1102.5C 624.36,1100.88 625.027,1099.71 626.5,1099C 626.167,1098.67 625.833,1098.33 625.5,1098C 617.989,1097.83 610.655,1097.33 603.5,1096.5C 619.703,1096.92 635.703,1096.25 651.5,1094.5C 658.218,1094.3 664.885,1093.64 671.5,1092.5 Z"/></g>
<g><path style="opacity:1" fill="#f2f2f1" d="M 575.5,1099.5 C 581.349,1100.2 587.016,1101.2 592.5,1102.5C 591.127,1102.34 589.793,1102.51 588.5,1103C 591.478,1103.7 594.478,1104.2 597.5,1104.5C 597.467,1108.87 597.8,1113.2 598.5,1117.5C 607.833,1117.5 617.167,1117.5 626.5,1117.5C 626.5,1127.17 626.5,1136.83 626.5,1146.5C 616.833,1146.5 607.167,1146.5 597.5,1146.5C 597.5,1136.83 597.5,1127.17 597.5,1117.5C 588.167,1117.5 578.833,1117.5 569.5,1117.5C 569.334,1112.16 569.501,1106.82 570,1101.5C 572.305,1101.42 574.805,1101.25 577.5,1101C 576.584,1100.72 575.918,1100.22 575.5,1099.5 Z"/></g>
<g><path style="opacity:1" fill="#caa153" d="M 564.5,1092.5 C 569.452,1093.49 574.452,1094.16 579.5,1094.5C 584.96,1095.74 590.627,1096.4 596.5,1096.5C 598.833,1096.5 601.167,1096.5 603.5,1096.5C 610.655,1097.33 617.989,1097.83 625.5,1098C 625.833,1098.33 626.167,1098.67 626.5,1099C 625.027,1099.71 624.36,1100.88 624.5,1102.5C 613.833,1102.5 603.167,1102.5 592.5,1102.5C 587.016,1101.2 581.349,1100.2 575.5,1099.5C 569.578,1099.24 563.911,1098.24 558.5,1096.5C 560.527,1096.66 562.527,1096.5 564.5,1096C 563.833,1095.67 563.167,1095.33 562.5,1095C 564.935,1094.93 565.602,1094.09 564.5,1092.5 Z"/></g>
<g><path style="opacity:1" fill="#f7f6f6" d="M 680.5,1096.5 C 681.5,1096.5 682.5,1096.5 683.5,1096.5C 683.5,1103.5 683.5,1110.5 683.5,1117.5C 673.737,1118.12 664.237,1117.46 655,1115.5C 654.667,1125.5 654.333,1135.5 654,1145.5C 644.917,1146.48 635.751,1146.82 626.5,1146.5C 626.5,1136.83 626.5,1127.17 626.5,1117.5C 617.167,1117.5 607.833,1117.5 598.5,1117.5C 597.8,1113.2 597.467,1108.87 597.5,1104.5C 594.478,1104.2 591.478,1103.7 588.5,1103C 589.793,1102.51 591.127,1102.34 592.5,1102.5C 603.167,1102.5 613.833,1102.5 624.5,1102.5C 641.147,1102.59 657.481,1100.93 673.5,1097.5C 675.806,1097.01 678.139,1096.67 680.5,1096.5 Z"/></g>
<g><path style="opacity:1" fill="#f9f9fa" d="M 1053.5,1117.5 C 1053.83,1126.86 1053.5,1136.19 1052.5,1145.5C 1043.09,1146.12 1033.75,1146.45 1024.5,1146.5C 1024.19,1137.11 1024.53,1127.78 1025.5,1118.5C 1034.81,1117.5 1044.14,1117.17 1053.5,1117.5 Z"/></g>
<g><path style="opacity:1" fill="#faf9f9" d="M 711.5,1203.5 C 720.839,1203.33 730.173,1203.5 739.5,1204C 740.377,1212.93 740.71,1221.93 740.5,1231C 731,1232.47 721.333,1232.97 711.5,1232.5C 711.5,1222.83 711.5,1213.17 711.5,1203.5 Z"/></g>
</svg>
