<?xml version="1.0" encoding="UTF-8"?>
<!DOCTYPE svg PUBLIC "-//W3C//DTD SVG 1.1//EN" "http://www.w3.org/Graphics/SVG/1.1/DTD/svg11.dtd">
<svg xmlns="http://www.w3.org/2000/svg" version="1.1" width="1024px" height="1024px" style="shape-rendering:geometricPrecision; text-rendering:geometricPrecision; image-rendering:optimizeQuality; fill-rule:evenodd; clip-rule:evenodd" xmlns:xlink="http://www.w3.org/1999/xlink">
<g><path style="opacity:1" fill="#f9f5de" d="M 497.5,193.5 C 496.85,193.804 496.183,194.137 495.5,194.5C 491.365,192.597 487.032,191.597 482.5,191.5C 481.737,190.732 480.737,190.232 479.5,190C 471.472,189.302 463.472,189.468 455.5,190.5C 459.951,189.173 464.784,188.506 470,188.5C 479.674,188.118 488.84,189.785 497.5,193.5 Z"/></g>
<g><path style="opacity:1" fill="#e4c795" d="M 482.5,191.5 C 473.479,190.079 464.479,190.246 455.5,192C 447.241,195.148 438.907,197.981 430.5,200.5C 437.54,194.257 445.874,190.924 455.5,190.5C 463.472,189.468 471.472,189.302 479.5,190C 480.737,190.232 481.737,190.732 482.5,191.5 Z"/></g>
<g><path style="opacity:1" fill="#d49e41" d="M 482.5,191.5 C 487.032,191.597 491.365,192.597 495.5,194.5C 496.183,194.137 496.85,193.804 497.5,193.5C 500.529,194.676 503.196,196.343 505.5,198.5C 512.721,204.377 519.721,210.71 526.5,217.5C 528.719,218.828 530.052,220.828 530.5,223.5C 533.212,229.857 535.878,236.191 538.5,242.5C 539.167,242.5 539.5,242.833 539.5,243.5C 539.954,254.666 539.454,265.999 538,277.5C 535.479,288.158 530.979,297.824 524.5,306.5C 519.427,311.244 514.427,315.911 509.5,320.5C 507.973,323.068 505.639,324.401 502.5,324.5C 495.745,327.379 488.745,329.379 481.5,330.5C 474.159,330.666 466.826,330.5 459.5,330C 453.252,328.288 446.918,327.122 440.5,326.5C 432.466,321.318 424.799,315.485 417.5,309C 403.219,292.498 396.553,273.331 397.5,251.5C 398.234,250.292 398.567,248.959 398.5,247.5C 400.347,243.776 401.68,239.776 402.5,235.5C 405.809,230.572 408.142,225.572 409.5,220.5C 411.491,216.18 414.491,212.847 418.5,210.5C 419.766,209.91 421.099,209.41 422.5,209C 424.695,205.641 427.362,202.807 430.5,200.5C 438.907,197.981 447.241,195.148 455.5,192C 464.479,190.246 473.479,190.079 482.5,191.5 Z M 483.5,216.5 C 488.251,219.379 493.251,222.046 498.5,224.5C 515.183,241.197 518.85,260.53 509.5,282.5C 507.482,286.551 504.982,290.217 502,293.5C 499.354,294.365 497.52,296.032 496.5,298.5C 490.715,301.146 484.715,303.48 478.5,305.5C 465.731,306.973 453.731,304.639 442.5,298.5C 437.768,293.109 433.101,287.776 428.5,282.5C 428.024,278.962 426.691,275.962 424.5,273.5C 422.436,258.575 425.436,244.909 433.5,232.5C 436.399,229.096 439.733,226.263 443.5,224C 444.823,223.184 445.489,222.017 445.5,220.5C 451.724,218.211 458.057,216.378 464.5,215C 470.853,215.035 477.187,215.535 483.5,216.5 Z"/></g>
<g><path style="opacity:1" fill="#f7ebcf" d="M 505.5,198.5 C 513.287,202.272 519.954,207.605 525.5,214.5C 526.386,215.325 526.719,216.325 526.5,217.5C 519.721,210.71 512.721,204.377 505.5,198.5 Z"/></g>
<g><path style="opacity:1" fill="#e9d09f" d="M 430.5,200.5 C 427.362,202.807 424.695,205.641 422.5,209C 421.099,209.41 419.766,209.91 418.5,210.5C 419.893,207.765 421.893,205.432 424.5,203.5C 426.289,201.967 428.289,200.967 430.5,200.5 Z"/></g>
<g><path style="opacity:1" fill="#efd3b8" d="M 483.5,216.5 C 477.187,215.535 470.853,215.035 464.5,215C 458.057,216.378 451.724,218.211 445.5,220.5C 454.422,214.213 464.422,212.046 475.5,214C 478.379,214.546 481.046,215.379 483.5,216.5 Z"/></g>
<g><path style="opacity:1" fill="#f8dfc5" d="M 483.5,216.5 C 489.547,217.355 494.547,220.022 498.5,224.5C 493.251,222.046 488.251,219.379 483.5,216.5 Z"/></g>
<g><path style="opacity:1" fill="#f7e9cc" d="M 409.5,220.5 C 408.142,225.572 405.809,230.572 402.5,235.5C 403.504,229.829 405.837,224.829 409.5,220.5 Z"/></g>
<g><path style="opacity:1" fill="#faddbf" d="M 445.5,220.5 C 445.489,222.017 444.823,223.184 443.5,224C 439.733,226.263 436.399,229.096 433.5,232.5C 425.436,244.909 422.436,258.575 424.5,273.5C 418.62,250.657 425.62,232.99 445.5,220.5 Z"/></g>
<g><path style="opacity:1" fill="#f9f0d7" d="M 402.5,235.5 C 401.68,239.776 400.347,243.776 398.5,247.5C 398.309,242.806 399.643,238.806 402.5,235.5 Z"/></g>
<g><path style="opacity:1" fill="#f4dbb6" d="M 530.5,223.5 C 535.41,228.77 538.077,235.104 538.5,242.5C 535.878,236.191 533.212,229.857 530.5,223.5 Z"/></g>
<g><path style="opacity:1" fill="#efd6af" d="M 498.5,224.5 C 501.878,227.524 505.545,229.357 509.5,230C 509.043,230.414 508.709,230.914 508.5,231.5C 519.483,251.782 518.983,271.782 507,291.5C 504.243,295.104 500.743,297.437 496.5,298.5C 497.52,296.032 499.354,294.365 502,293.5C 504.982,290.217 507.482,286.551 509.5,282.5C 518.85,260.53 515.183,241.197 498.5,224.5 Z"/></g>
<g><path style="opacity:1" fill="#f7e9c3" d="M 424.5,273.5 C 426.691,275.962 428.024,278.962 428.5,282.5C 426.026,280.102 424.692,277.102 424.5,273.5 Z"/></g>
<g><path style="opacity:1" fill="#f3e0c2" d="M 397.5,251.5 C 396.553,273.331 403.219,292.498 417.5,309C 424.799,315.485 432.466,321.318 440.5,326.5C 433.266,324.018 426.6,320.352 420.5,315.5C 402.648,297.597 394.981,276.263 397.5,251.5 Z"/></g>
<g><path style="opacity:1" fill="#f3e2c5" d="M 539.5,243.5 C 544.644,265.449 540.644,285.782 527.5,304.5C 526.735,305.612 525.735,306.279 524.5,306.5C 530.979,297.824 535.479,288.158 538,277.5C 539.454,265.999 539.954,254.666 539.5,243.5 Z"/></g>
<g><path style="opacity:1" fill="#f6ecd3" d="M 428.5,282.5 C 433.101,287.776 437.768,293.109 442.5,298.5C 436.034,294.703 431.367,289.37 428.5,282.5 Z"/></g>
<g><path style="opacity:1" fill="#f2dfc1" d="M 442.5,298.5 C 453.731,304.639 465.731,306.973 478.5,305.5C 484.715,303.48 490.715,301.146 496.5,298.5C 488.973,305.176 480.14,308.176 470,307.5C 465.833,307.333 461.667,307.167 457.5,307C 454.544,304.707 451.21,303.373 447.5,303C 445.382,301.951 443.716,300.451 442.5,298.5 Z"/></g>
<g><path style="opacity:1" fill="#f8d6b2" d="M 524.5,306.5 C 523.493,309.358 521.827,311.858 519.5,314C 516.245,316.449 512.911,318.616 509.5,320.5C 514.427,315.911 519.427,311.244 524.5,306.5 Z"/></g>
<g><path style="opacity:1" fill="#dbb273" d="M 440.5,326.5 C 446.918,327.122 453.252,328.288 459.5,330C 466.826,330.5 474.159,330.666 481.5,330.5C 472.433,331.437 463.433,331.77 454.5,331.5C 449.331,330.749 444.664,329.082 440.5,326.5 Z"/></g>
<g><path style="opacity:1" fill="#f4e3c9" d="M 502.5,324.5 C 497.849,327.813 492.515,330.146 486.5,331.5C 475.674,332.823 465.007,332.823 454.5,331.5C 463.433,331.77 472.433,331.437 481.5,330.5C 488.745,329.379 495.745,327.379 502.5,324.5 Z"/></g>
<g><path style="opacity:1" fill="#67faf9" d="M 480.5,336.5 C 483.668,337.864 487.001,338.697 490.5,339C 487.833,339.667 485.167,339.667 482.5,339C 481.244,338.583 480.577,337.75 480.5,336.5 Z"/></g>
<g><path style="opacity:1" fill="#ecd8b4" d="M 524.5,370.5 C 506.396,351.964 484.396,344.464 458.5,348C 450.823,350.233 443.156,352.4 435.5,354.5C 436.335,353.057 437.668,352.057 439.5,351.5C 470.751,338.986 498.751,343.986 523.5,366.5C 524.429,367.689 524.762,369.022 524.5,370.5 Z"/></g>
<g><path style="opacity:1" fill="#d39d40" d="M 524.5,370.5 C 525.833,370.5 526.5,371.167 526.5,372.5C 532.158,381.111 536.825,390.111 540.5,399.5C 540.976,403.993 541.642,408.327 542.5,412.5C 542.5,417.833 542.5,423.167 542.5,428.5C 542.333,454.835 542.5,481.169 543,507.5C 543.232,508.737 543.732,509.737 544.5,510.5C 545.103,512.679 545.77,514.846 546.5,517C 549.128,518.626 551.461,520.626 553.5,523C 555.927,524.591 558.593,525.425 561.5,525.5C 581.062,526.062 600.729,527.062 620.5,528.5C 627.82,531.892 635.153,535.392 642.5,539C 648.962,543.628 654.962,548.795 660.5,554.5C 665.463,562.112 670.129,569.779 674.5,577.5C 676.495,589.252 678.161,600.919 679.5,612.5C 627.167,612.5 574.833,612.5 522.5,612.5C 521.5,610.833 520.167,609.5 518.5,608.5C 515.199,602.874 511.199,597.874 506.5,593.5C 508.39,593.703 509.89,593.037 511,591.5C 514.554,595.624 518.72,598.957 523.5,601.5C 527.09,599.183 528.423,595.849 527.5,591.5C 569.317,590.861 610.984,590.194 652.5,589.5C 652.768,587.901 652.434,586.568 651.5,585.5C 647.034,575.035 640.034,566.701 630.5,560.5C 625.252,556.341 619.252,553.674 612.5,552.5C 612.167,552.5 611.833,552.5 611.5,552.5C 611.5,552.167 611.5,551.833 611.5,551.5C 610.737,550.732 609.737,550.232 608.5,550C 589.833,549.667 571.167,549.333 552.5,549C 548.808,547.485 545.142,545.985 541.5,544.5C 535.568,540.403 530.401,535.403 526,529.5C 524.39,526.15 522.89,522.816 521.5,519.5C 519.746,483.567 518.913,447.567 519,411.5C 518.768,410.263 518.268,409.263 517.5,408.5C 517.982,405.169 516.982,402.503 514.5,400.5C 510.927,390.606 504.594,383.273 495.5,378.5C 478.481,368.039 461.148,367.873 443.5,378C 432.702,385.618 425.702,395.785 422.5,408.5C 422.631,407.761 422.464,407.094 422,406.5C 419.791,407.92 417.791,409.587 416,411.5C 415.667,410.833 415.333,410.167 415,409.5C 411.506,411.377 407.673,412.044 403.5,411.5C 403.5,410.167 403.5,408.833 403.5,407.5C 407.392,406.777 407.892,405.443 405,403.5C 403.89,405.037 402.39,405.703 400.5,405.5C 400.5,404.167 400.5,402.833 400.5,401.5C 401.257,398.209 401.924,394.876 402.5,391.5C 403.794,390.71 404.961,389.71 406,388.5C 409.996,378.658 415.829,369.991 423.5,362.5C 427.777,360.218 431.777,357.551 435.5,354.5C 443.156,352.4 450.823,350.233 458.5,348C 484.396,344.464 506.396,351.964 524.5,370.5 Z"/></g>
<g><path style="opacity:1" fill="#f4e0cf" d="M 435.5,354.5 C 431.777,357.551 427.777,360.218 423.5,362.5C 423.721,361.265 424.388,360.265 425.5,359.5C 428.464,356.96 431.797,355.293 435.5,354.5 Z"/></g>
<g><path style="opacity:1" fill="#f5e2c8" d="M 495.5,378.5 C 478.313,370.209 461.313,370.542 444.5,379.5C 430.353,390.13 423.353,404.464 423.5,422.5C 422.518,419.038 422.185,415.371 422.5,411.5C 422.5,410.5 422.5,409.5 422.5,408.5C 425.702,395.785 432.702,385.618 443.5,378C 461.148,367.873 478.481,368.039 495.5,378.5 Z"/></g>
<g><path style="opacity:1" fill="#f1dcb2" d="M 423.5,362.5 C 415.829,369.991 409.996,378.658 406,388.5C 404.961,389.71 403.794,390.71 402.5,391.5C 406.378,380.925 412.378,371.592 420.5,363.5C 421.325,362.614 422.325,362.281 423.5,362.5 Z"/></g>
<g><path style="opacity:1" fill="#f7e4c8" d="M 495.5,378.5 C 504.594,383.273 510.927,390.606 514.5,400.5C 511.784,398.095 509.784,395.095 508.5,391.5C 504.081,387.081 499.748,382.748 495.5,378.5 Z"/></g>
<g><path style="opacity:1" fill="#f8e9cd" d="M 526.5,372.5 C 529.486,374.454 531.819,377.121 533.5,380.5C 537.129,386.404 539.463,392.737 540.5,399.5C 536.825,390.111 532.158,381.111 526.5,372.5 Z"/></g>
<g><path style="opacity:1" fill="#f7efd5" d="M 540.5,399.5 C 542.43,403.373 543.097,407.706 542.5,412.5C 541.642,408.327 540.976,403.993 540.5,399.5 Z"/></g>
<g><path style="opacity:1" fill="#ddba7c" d="M 402.5,391.5 C 401.924,394.876 401.257,398.209 400.5,401.5C 399.679,404.641 399.179,407.975 399,411.5C 398.5,459.166 398.333,506.832 398.5,554.5C 407.017,554.174 415.35,554.507 423.5,555.5C 414.833,555.5 406.167,555.5 397.5,555.5C 397.169,505.928 397.503,456.428 398.5,407C 397.906,406.536 397.239,406.369 396.5,406.5C 397.825,401.141 399.825,396.141 402.5,391.5 Z"/></g>
<g><path style="opacity:1" fill="#f9f6e0" d="M 396.5,406.5 C 397.239,406.369 397.906,406.536 398.5,407C 397.503,456.428 397.169,505.928 397.5,555.5C 406.167,555.5 414.833,555.5 423.5,555.5C 425.5,555.5 427.5,555.5 429.5,555.5C 429.5,555.833 429.5,556.167 429.5,556.5C 418.5,556.5 407.5,556.5 396.5,556.5C 396.5,506.5 396.5,456.5 396.5,406.5 Z"/></g>
<g><path style="opacity:1" fill="#d7af70" d="M 517.5,408.5 C 518.268,409.263 518.768,410.263 519,411.5C 518.913,447.567 519.746,483.567 521.5,519.5C 521.167,519.5 520.833,519.5 520.5,519.5C 519.883,519.389 519.383,519.056 519,518.5C 518.741,515.413 518.241,512.413 517.5,509.5C 518.809,475.98 518.809,442.313 517.5,408.5 Z"/></g>
<g><path style="opacity:1" fill="#dabc8f" d="M 422.5,411.5 C 422.185,415.371 422.518,419.038 423.5,422.5C 422.522,456.883 422.189,491.217 422.5,525.5C 422.986,527.304 423.653,528.971 424.5,530.5C 424.5,530.833 424.5,531.167 424.5,531.5C 423.5,531.5 422.5,531.5 421.5,531.5C 421.168,491.33 421.501,451.33 422.5,411.5 Z"/></g>
<g><path style="opacity:1" fill="#f5e4c4" d="M 514.5,400.5 C 516.982,402.503 517.982,405.169 517.5,408.5C 518.809,442.313 518.809,475.98 517.5,509.5C 517.062,473.283 516.062,436.949 514.5,400.5 Z"/></g>
<g><path style="opacity:1" fill="#fbdec3" d="M 542.5,428.5 C 543.309,430.292 543.809,432.292 544,434.5C 544.5,459.831 544.667,485.164 544.5,510.5C 543.732,509.737 543.232,508.737 543,507.5C 542.5,481.169 542.333,454.835 542.5,428.5 Z"/></g>
<g><path style="opacity:1" fill="#f8f2dc" d="M 544.5,510.5 C 546.874,513.724 549.54,516.891 552.5,520C 554.336,521.419 556.336,522.586 558.5,523.5C 576.662,524.167 594.662,524.833 612.5,525.5C 595.701,525.581 578.701,525.581 561.5,525.5C 558.593,525.425 555.927,524.591 553.5,523C 551.461,520.626 549.128,518.626 546.5,517C 545.77,514.846 545.103,512.679 544.5,510.5 Z"/></g>
<g><path style="opacity:1" fill="#e5c993" d="M 561.5,525.5 C 578.701,525.581 595.701,525.581 612.5,525.5C 615.618,525.768 618.284,526.768 620.5,528.5C 600.729,527.062 581.062,526.062 561.5,525.5 Z"/></g>
<g><path style="opacity:1" fill="#f7e4c9" d="M 520.5,519.5 C 520.833,519.5 521.167,519.5 521.5,519.5C 522.89,522.816 524.39,526.15 526,529.5C 530.401,535.403 535.568,540.403 541.5,544.5C 533.705,541.382 527.705,536.049 523.5,528.5C 521.664,525.748 520.664,522.748 520.5,519.5 Z"/></g>
<g><path style="opacity:1" fill="#d39f41" d="M 400.5,401.5 C 400.5,402.833 400.5,404.167 400.5,405.5C 402.39,405.703 403.89,405.037 405,403.5C 407.892,405.443 407.392,406.777 403.5,407.5C 403.5,408.833 403.5,410.167 403.5,411.5C 407.673,412.044 411.506,411.377 415,409.5C 415.333,410.167 415.667,410.833 416,411.5C 417.791,409.587 419.791,407.92 422,406.5C 422.464,407.094 422.631,407.761 422.5,408.5C 422.5,409.5 422.5,410.5 422.5,411.5C 421.501,451.33 421.168,491.33 421.5,531.5C 422.5,531.5 423.5,531.5 424.5,531.5C 468.885,535.692 505.552,554.692 534.5,588.5C 573.663,589.499 612.996,589.832 652.5,589.5C 610.984,590.194 569.317,590.861 527.5,591.5C 528.423,595.849 527.09,599.183 523.5,601.5C 518.72,598.957 514.554,595.624 511,591.5C 509.89,593.037 508.39,593.703 506.5,593.5C 502.065,590.9 498.398,587.4 495.5,583C 494.207,582.51 492.873,582.343 491.5,582.5C 485.022,575.664 477.355,570.997 468.5,568.5C 467.972,567.279 467.305,566.113 466.5,565C 461.412,563.292 456.412,561.292 451.5,559C 444.34,556.788 437.007,555.621 429.5,555.5C 427.5,555.5 425.5,555.5 423.5,555.5C 415.35,554.507 407.017,554.174 398.5,554.5C 398.333,506.832 398.5,459.166 399,411.5C 399.179,407.975 399.679,404.641 400.5,401.5 Z"/></g>
<g><path style="opacity:1" fill="#f1e3c3" d="M 620.5,528.5 C 636.185,531.923 649.352,539.59 660,551.5C 660.483,552.448 660.649,553.448 660.5,554.5C 654.962,548.795 648.962,543.628 642.5,539C 635.153,535.392 627.82,531.892 620.5,528.5 Z"/></g>
<g><path style="opacity:1" fill="#d8bb8f" d="M 541.5,544.5 C 545.142,545.985 548.808,547.485 552.5,549C 571.167,549.333 589.833,549.667 608.5,550C 609.737,550.232 610.737,550.732 611.5,551.5C 593.861,550.555 576.194,550.222 558.5,550.5C 555.813,550.664 553.146,550.497 550.5,550C 546.846,549.055 543.846,547.222 541.5,544.5 Z"/></g>
<g><path style="opacity:1" fill="#f5d7c8" d="M 558.5,550.5 C 576.194,550.222 593.861,550.555 611.5,551.5C 611.5,551.833 611.5,552.167 611.5,552.5C 594.163,552.667 576.83,552.5 559.5,552C 558.944,551.617 558.611,551.117 558.5,550.5 Z"/></g>
<g><path style="opacity:1" fill="#f6eace" d="M 424.5,531.5 C 424.5,531.167 424.5,530.833 424.5,530.5C 468.77,533.736 505.103,552.236 533.5,586C 534.448,586.483 535.448,586.649 536.5,586.5C 536.5,587.833 535.833,588.5 534.5,588.5C 505.552,554.692 468.885,535.692 424.5,531.5 Z"/></g>
<g><path style="opacity:1" fill="#f9faf9" d="M 396.5,556.5 C 395.833,557.167 395.833,557.167 396.5,556.5 Z"/></g>
<g><path style="opacity:1" fill="#e3c28b" d="M 429.5,556.5 C 429.5,556.167 429.5,555.833 429.5,555.5C 437.007,555.621 444.34,556.788 451.5,559C 456.412,561.292 461.412,563.292 466.5,565C 467.305,566.113 467.972,567.279 468.5,568.5C 455.821,563.565 442.821,559.565 429.5,556.5 Z"/></g>
<g><path style="opacity:1" fill="#f1dfb8" d="M 612.5,552.5 C 619.252,553.674 625.252,556.341 630.5,560.5C 624.127,558.306 618.127,555.639 612.5,552.5 Z"/></g>
<g><path style="opacity:1" fill="#f7e7c8" d="M 660.5,554.5 C 662.417,555.406 664.083,556.739 665.5,558.5C 668.167,563.167 670.833,567.833 673.5,572.5C 674.452,574.045 674.785,575.712 674.5,577.5C 670.129,569.779 665.463,562.112 660.5,554.5 Z"/></g>
<g><path style="opacity:1" fill="#f9faf9" d="M 409.5,561.5 C 410.833,562.167 410.833,562.167 409.5,561.5 Z"/></g>
<g><path style="opacity:1" fill="#7dfb4b" d="M 440.5,567.5 C 443.289,566.353 445.956,566.853 448.5,569C 445.502,569.891 442.836,569.391 440.5,567.5 Z"/></g>
<g><path style="opacity:1" fill="#00faf9" d="M 454.5,571.5 C 453.833,570.167 453.833,570.167 454.5,571.5 Z"/></g>
<g><path style="opacity:1" fill="#f9faf9" d="M 454.5,571.5 C 455.239,571.369 455.906,571.536 456.5,572C 455.563,572.692 454.897,572.525 454.5,571.5 Z"/></g>
<g><path style="opacity:1" fill="#d4ad67" d="M 423.5,573.5 C 408.051,573.064 392.718,574.064 377.5,576.5C 379.167,575.833 380.833,575.167 382.5,574.5C 391.941,573.072 401.441,572.072 411,571.5C 415.427,571.394 419.594,572.06 423.5,573.5 Z"/></g>
<g><path style="opacity:1" fill="#d49d41" d="M 423.5,573.5 C 437.438,574.278 450.438,577.945 462.5,584.5C 457.084,585.639 452.418,584.639 448.5,581.5C 447.513,584.768 447.18,588.102 447.5,591.5C 444.833,591.5 442.167,591.5 439.5,591.5C 439.279,594.279 439.612,596.946 440.5,599.5C 433.501,598.32 426.501,597.32 419.5,596.5C 409.098,595.074 398.598,595.407 388,597.5C 385.917,598.231 384.084,599.231 382.5,600.5C 380.447,600.402 378.78,601.069 377.5,602.5C 377.167,602.5 376.833,602.5 376.5,602.5C 367.673,605.055 359.673,609.222 352.5,615C 351.262,615.69 351.262,616.19 352.5,616.5C 352.672,617.492 352.338,618.158 351.5,618.5C 351.44,617.957 351.107,617.624 350.5,617.5C 343.452,622.548 337.452,628.548 332.5,635.5C 330.221,636.445 328.554,638.112 327.5,640.5C 326.5,639.833 325.5,639.167 324.5,638.5C 323.15,639.95 321.484,640.617 319.5,640.5C 319.793,636.563 319.46,632.73 318.5,629C 320.968,627.412 321.134,625.578 319,623.5C 316.979,625.709 315.812,628.376 315.5,631.5C 314.675,632.386 313.675,632.719 312.5,632.5C 312.934,635.166 311.934,636.333 309.5,636C 310.45,633.568 310.45,631.068 309.5,628.5C 312.001,623.494 315.001,618.827 318.5,614.5C 321.995,612.422 323.995,609.756 324.5,606.5C 324.833,605.5 325.5,604.833 326.5,604.5C 332.007,603.324 336.34,599.99 339.5,594.5C 343.785,589.68 349.119,586.347 355.5,584.5C 363.326,582.908 370.659,580.242 377.5,576.5C 392.718,574.064 408.051,573.064 423.5,573.5 Z"/></g>
<g><path style="opacity:1" fill="#f6e8cd" d="M 502.5,616.5 C 491.213,603.207 477.88,592.54 462.5,584.5C 450.438,577.945 437.438,574.278 423.5,573.5C 419.594,572.06 415.427,571.394 411,571.5C 401.441,572.072 391.941,573.072 382.5,574.5C 429.4,564.028 469.233,577.028 502,613.5C 502.483,614.448 502.649,615.448 502.5,616.5 Z"/></g>
<g><path style="opacity:1" fill="#edd2a6" d="M 468.5,568.5 C 477.355,570.997 485.022,575.664 491.5,582.5C 483.238,578.522 475.572,573.855 468.5,568.5 Z"/></g>
<g><path style="opacity:1" fill="#f9faf9" d="M 465.5,575.5 C 467.337,575.639 467.67,576.306 466.5,577.5C 465.702,577.043 465.369,576.376 465.5,575.5 Z"/></g>
<g><path style="opacity:1" fill="#f9fa00" d="M 639.5,579.5 C 640.675,579.281 641.675,579.614 642.5,580.5C 640.948,581.798 639.948,581.465 639.5,579.5 Z"/></g>
<g><path style="opacity:1" fill="#e4c395" d="M 382.5,574.5 C 380.833,575.167 379.167,575.833 377.5,576.5C 370.659,580.242 363.326,582.908 355.5,584.5C 363.419,578.669 372.419,575.336 382.5,574.5 Z"/></g>
<g><path style="opacity:1" fill="#f9faf9" d="M 478.5,583.5 C 479.525,583.897 479.692,584.563 479,585.5C 478.536,584.906 478.369,584.239 478.5,583.5 Z"/></g>
<g><path style="opacity:1" fill="#fae8d3" d="M 630.5,560.5 C 640.034,566.701 647.034,575.035 651.5,585.5C 651.5,586.5 651.5,587.5 651.5,588.5C 613.996,588.832 576.663,588.498 539.5,587.5C 576.336,586.833 613.336,586.167 650.5,585.5C 644.884,576.229 638.217,567.895 630.5,560.5 Z"/></g>
<g><path style="opacity:1" fill="#dbbe8d" d="M 651.5,585.5 C 652.434,586.568 652.768,587.901 652.5,589.5C 612.996,589.832 573.663,589.499 534.5,588.5C 535.833,588.5 536.5,587.833 536.5,586.5C 537.391,587.11 538.391,587.443 539.5,587.5C 576.663,588.498 613.996,588.832 651.5,588.5C 651.5,587.5 651.5,586.5 651.5,585.5 Z"/></g>
<g><path style="opacity:1" fill="#f5e5ba" d="M 491.5,582.5 C 492.873,582.343 494.207,582.51 495.5,583C 498.398,587.4 502.065,590.9 506.5,593.5C 511.199,597.874 515.199,602.874 518.5,608.5C 509.708,599.607 500.708,590.94 491.5,582.5 Z"/></g>
<g><path style="opacity:1" fill="#dabc8d" d="M 419.5,596.5 C 409.935,596.063 400.602,596.73 391.5,598.5C 388.838,600.268 385.838,600.935 382.5,600.5C 384.084,599.231 385.917,598.231 388,597.5C 398.598,595.407 409.098,595.074 419.5,596.5 Z"/></g>
<g><path style="opacity:1" fill="#f3e3ce" d="M 419.5,596.5 C 426.501,597.32 433.501,598.32 440.5,599.5C 441.551,600.222 442.218,601.222 442.5,602.5C 437.96,601.341 433.293,600.341 428.5,599.5C 416.185,598.501 403.851,598.168 391.5,598.5C 400.602,596.73 409.935,596.063 419.5,596.5 Z"/></g>
<g><path style="opacity:1" fill="#e9cc9d" d="M 339.5,594.5 C 336.34,599.99 332.007,603.324 326.5,604.5C 327.105,602.974 328.271,601.974 330,601.5C 330.483,600.552 330.649,599.552 330.5,598.5C 333.714,597.612 336.714,596.279 339.5,594.5 Z"/></g>
<g><path style="opacity:1" fill="#f9f1d9" d="M 382.5,600.5 C 381.448,602.256 379.781,602.923 377.5,602.5C 378.78,601.069 380.447,600.402 382.5,600.5 Z"/></g>
<g><path style="opacity:1" fill="#f3e4c9" d="M 442.5,602.5 C 446.066,602.792 449.066,604.126 451.5,606.5C 447.962,606.024 444.962,604.691 442.5,602.5 Z"/></g>
<g><path style="opacity:1" fill="#f2e0c9" d="M 376.5,602.5 C 368.325,606.597 360.325,611.264 352.5,616.5C 351.262,616.19 351.262,615.69 352.5,615C 359.673,609.222 367.673,605.055 376.5,602.5 Z"/></g>
<g><path style="opacity:1" fill="#f1dfb9" d="M 451.5,606.5 C 454.479,607.654 457.479,608.82 460.5,610C 461.252,610.671 461.586,611.504 461.5,612.5C 457.465,611.49 454.132,609.49 451.5,606.5 Z"/></g>
<g><path style="opacity:1" fill="#f7e8cb" d="M 518.5,608.5 C 520.167,609.5 521.5,610.833 522.5,612.5C 519.5,612.833 518.167,611.5 518.5,608.5 Z"/></g>
<g><path style="opacity:1" fill="#f5e3bd" d="M 324.5,606.5 C 323.995,609.756 321.995,612.422 318.5,614.5C 318.5,613.167 318.5,611.833 318.5,610.5C 319.552,610.649 320.552,610.483 321.5,610C 321.974,608.271 322.974,607.105 324.5,606.5 Z"/></g>
<g><path style="opacity:1" fill="#d49e42" d="M 462.5,584.5 C 477.88,592.54 491.213,603.207 502.5,616.5C 504.929,617.265 506.262,618.931 506.5,621.5C 508.976,627.599 511.643,633.599 514.5,639.5C 515.325,640.386 516.325,640.719 517.5,640.5C 520.789,649.658 523.456,658.991 525.5,668.5C 526.435,680.154 526.602,691.821 526,703.5C 524.608,710.069 523.608,716.736 523,723.5C 522.029,727.9 520.529,732.066 518.5,736C 518.57,736.765 518.903,737.265 519.5,737.5C 519.201,739.455 518.201,740.789 516.5,741.5C 510.419,751.327 504.086,760.994 497.5,770.5C 497.5,771.167 497.167,771.5 496.5,771.5C 492.914,772.75 490.248,775.084 488.5,778.5C 487.833,780.5 486.5,781.833 484.5,782.5C 479.396,785.37 474.729,788.704 470.5,792.5C 470.672,793.492 470.338,794.158 469.5,794.5C 463.907,794.506 458.907,796.506 454.5,800.5C 453.082,802.308 451.082,802.975 448.5,802.5C 443.772,802.886 439.439,804.219 435.5,806.5C 435.167,806.5 434.833,806.5 434.5,806.5C 430.382,806.759 427.049,807.425 424.5,808.5C 424.167,809.5 423.5,810.167 422.5,810.5C 414.567,808.532 406.234,807.865 397.5,808.5C 396.5,808.5 395.5,808.5 394.5,808.5C 388.751,806.662 382.751,805.329 376.5,804.5C 374.58,803.935 372.913,802.935 371.5,801.5C 369.701,800.73 368.368,799.397 367.5,797.5C 369.948,797.729 372.448,797.729 375,797.5C 375.617,796.551 375.451,795.718 374.5,795C 368.465,793.978 368.131,792.311 373.5,790C 373.167,789.667 372.833,789.333 372.5,789C 369.023,789.116 365.523,789.616 362,790.5C 359.141,788.49 355.975,787.157 352.5,786.5C 351.614,785.675 351.281,784.675 351.5,783.5C 354.167,783.5 356.833,783.5 359.5,783.5C 359.337,781.143 359.503,778.81 360,776.5C 361.986,780.68 365.153,783.013 369.5,783.5C 369.67,782.178 369.337,781.011 368.5,780C 369.5,779.333 370.5,779.333 371.5,780C 371.167,780.333 370.833,780.667 370.5,781C 373.868,781.543 377.201,781.376 380.5,780.5C 395.924,784.413 411.59,785.413 427.5,783.5C 434.345,783.164 440.845,781.497 447,778.5C 448.03,778.164 448.53,777.497 448.5,776.5C 454.206,773.653 459.539,770.32 464.5,766.5C 471.979,761.177 478.812,755.177 485,748.5C 487.533,745.147 489.367,741.481 490.5,737.5C 491.467,736.194 492.801,735.527 494.5,735.5C 496.818,727.934 498.818,720.267 500.5,712.5C 500.5,712.167 500.5,711.833 500.5,711.5C 501.124,709.166 501.957,706.833 503,704.5C 503.824,695.657 503.657,686.99 502.5,678.5C 501.833,678.5 501.5,678.167 501.5,677.5C 502.443,671.12 501.61,664.787 499,658.5C 495.667,651.833 492.333,645.167 489,638.5C 485.708,634.2 482.208,630.2 478.5,626.5C 477.971,624.417 476.971,622.583 475.5,621C 470.687,618.343 466.021,615.51 461.5,612.5C 461.586,611.504 461.252,610.671 460.5,610C 457.479,608.82 454.479,607.654 451.5,606.5C 449.066,604.126 446.066,602.792 442.5,602.5C 442.218,601.222 441.551,600.222 440.5,599.5C 439.612,596.946 439.279,594.279 439.5,591.5C 442.167,591.5 444.833,591.5 447.5,591.5C 447.18,588.102 447.513,584.768 448.5,581.5C 452.418,584.639 457.084,585.639 462.5,584.5 Z"/></g>
<g><path style="opacity:1" fill="#d5ae68" d="M 674.5,577.5 C 677.357,580.806 678.691,584.806 678.5,589.5C 680.018,597.419 680.685,605.419 680.5,613.5C 627.833,613.5 575.167,613.5 522.5,613.5C 522.5,613.167 522.5,612.833 522.5,612.5C 574.833,612.5 627.167,612.5 679.5,612.5C 678.161,600.919 676.495,589.252 674.5,577.5 Z"/></g>
<g><path style="opacity:1" fill="#f4e5cd" d="M 678.5,589.5 C 679.117,589.611 679.617,589.944 680,590.5C 682.138,598.945 682.971,607.611 682.5,616.5C 629.108,614.858 575.775,613.858 522.5,613.5C 575.167,613.5 627.833,613.5 680.5,613.5C 680.685,605.419 680.018,597.419 678.5,589.5 Z"/></g>
<g><path style="opacity:1" fill="#f3dfbc" d="M 461.5,612.5 C 466.021,615.51 470.687,618.343 475.5,621C 476.971,622.583 477.971,624.417 478.5,626.5C 472.272,622.548 466.606,617.881 461.5,612.5 Z"/></g>
<g><path style="opacity:1" fill="#f9faf9" d="M 682.5,616.5 C 683.833,617.167 683.833,617.167 682.5,616.5 Z"/></g>
<g><path style="opacity:1" fill="#fbf7f1" d="M 681.5,618.5 C 684.575,622.304 683.575,624.804 678.5,626C 676.833,626.667 675.167,626.667 673.5,626C 672.5,624.333 671.167,623 669.5,622C 673.114,621.055 676.781,620.388 680.5,620C 681.056,619.617 681.389,619.117 681.5,618.5 Z"/></g>
<g><path style="opacity:1" fill="#e2faf9" d="M 663.5,619.5 C 665.308,619.491 666.975,619.991 668.5,621C 666.167,621.667 663.833,621.667 661.5,621C 662.416,620.722 663.082,620.222 663.5,619.5 Z"/></g>
<g><path style="opacity:1" fill="#00faf9" d="M 657.5,622.5 C 658.251,621.427 659.251,621.26 660.5,622C 659.552,622.483 658.552,622.649 657.5,622.5 Z"/></g>
<g><path style="opacity:1" fill="#f7e9c9" d="M 318.5,614.5 C 315.001,618.827 312.001,623.494 309.5,628.5C 308.272,629.306 307.272,630.306 306.5,631.5C 308.7,624.531 312.7,618.865 318.5,614.5 Z"/></g>
<g><path style="opacity:1" fill="#f9faf9" d="M 683.5,628.5 C 683.897,627.475 684.563,627.308 685.5,628C 684.906,628.464 684.239,628.631 683.5,628.5 Z"/></g>
<g><path style="opacity:1" fill="#d39d41" d="M 702.5,650.5 C 704.5,651.167 705.833,652.5 706.5,654.5C 708.817,658.146 711.484,661.48 714.5,664.5C 715.176,666.859 716.009,669.192 717,671.5C 720.457,676.737 723.623,682.07 726.5,687.5C 727.167,687.5 727.5,687.833 727.5,688.5C 726.903,688.735 726.57,689.235 726.5,690C 729.025,702.365 730.025,714.865 729.5,727.5C 729.425,734.643 728.425,741.643 726.5,748.5C 726.843,750.483 726.176,751.817 724.5,752.5C 722.8,754.9 721.467,757.566 720.5,760.5C 715.866,767.143 711.199,773.81 706.5,780.5C 705.833,782.5 704.5,783.833 702.5,784.5C 675.686,807.866 645.019,814.699 610.5,805C 609.944,804.617 609.611,804.117 609.5,803.5C 607.197,801.745 604.53,800.578 601.5,800C 602.766,799.691 603.933,799.191 605,798.5C 605.333,793.5 605.667,788.5 606,783.5C 607.264,781.393 609.097,780.393 611.5,780.5C 613.799,781.211 615.965,782.211 618,783.5C 619.03,783.164 619.53,782.497 619.5,781.5C 620.167,781.5 620.5,781.833 620.5,782.5C 623.503,784.262 626.837,785.428 630.5,786C 636.167,786.667 641.833,786.667 647.5,786C 648.416,785.722 649.082,785.222 649.5,784.5C 649.328,783.508 649.662,782.842 650.5,782.5C 650.47,783.497 650.97,784.164 652,784.5C 656.296,784.163 660.13,782.83 663.5,780.5C 663.5,779.833 663.833,779.5 664.5,779.5C 664.435,779.938 664.601,780.272 665,780.5C 670.065,778.72 674.565,776.053 678.5,772.5C 684.167,768.833 688.833,764.167 692.5,758.5C 696.092,756.573 698.092,753.573 698.5,749.5C 700.625,746.912 701.958,743.912 702.5,740.5C 710.001,718.276 707.334,697.276 694.5,677.5C 693.148,676.476 691.815,675.476 690.5,674.5C 688.719,670.93 686.052,668.263 682.5,666.5C 673.166,657.155 661.833,651.821 648.5,650.5C 640.962,649.218 633.295,649.218 625.5,650.5C 621.307,649.104 617.307,649.437 613.5,651.5C 610.833,650.5 610.833,649.5 613.5,648.5C 611.157,647.275 609.323,647.941 608,650.5C 607.505,652.473 607.338,654.473 607.5,656.5C 600.877,655.62 594.211,655.287 587.5,655.5C 587.5,656.833 587.5,658.167 587.5,659.5C 584.813,659.664 582.146,659.497 579.5,659C 583.307,656.934 583.307,654.767 579.5,652.5C 580.025,651.808 580.692,651.308 581.5,651C 580.748,650.329 580.414,649.496 580.5,648.5C 586.33,643.658 592.33,638.992 598.5,634.5C 598.5,633.833 598.833,633.5 599.5,633.5C 599.56,634.043 599.893,634.376 600.5,634.5C 605.611,632.47 610.611,630.47 615.5,628.5C 615.5,627.833 615.833,627.5 616.5,627.5C 616.917,628.124 617.584,628.457 618.5,628.5C 639.635,624.563 659.968,626.73 679.5,635C 687.3,639.966 694.967,645.133 702.5,650.5 Z"/></g>
<g><path style="opacity:1" fill="#fae6ce" d="M 615.5,628.5 C 610.611,630.47 605.611,632.47 600.5,634.5C 599.893,634.376 599.56,634.043 599.5,633.5C 604.498,630.832 609.831,629.165 615.5,628.5 Z"/></g>
<g><path style="opacity:1" fill="#d49d42" d="M 332.5,635.5 C 328.375,642.084 325.042,649.084 322.5,656.5C 321.262,658.214 320.595,660.214 320.5,662.5C 317.147,665.267 315.647,668.934 316,673.5C 315.333,683.5 315.333,693.5 316,703.5C 316.21,705.058 316.71,706.391 317.5,707.5C 318.466,713.621 319.966,719.621 322,725.5C 322.708,726.381 323.542,727.047 324.5,727.5C 325.167,728.167 325.833,728.833 326.5,729.5C 325.624,729.369 324.957,729.702 324.5,730.5C 327.531,737.254 331.531,743.254 336.5,748.5C 348.018,763.583 362.685,774.25 380.5,780.5C 377.201,781.376 373.868,781.543 370.5,781C 370.833,780.667 371.167,780.333 371.5,780C 370.5,779.333 369.5,779.333 368.5,780C 369.337,781.011 369.67,782.178 369.5,783.5C 365.153,783.013 361.986,780.68 360,776.5C 359.503,778.81 359.337,781.143 359.5,783.5C 356.833,783.5 354.167,783.5 351.5,783.5C 351.281,784.675 351.614,785.675 352.5,786.5C 355.975,787.157 359.141,788.49 362,790.5C 365.523,789.616 369.023,789.116 372.5,789C 372.833,789.333 373.167,789.667 373.5,790C 368.131,792.311 368.465,793.978 374.5,795C 375.451,795.718 375.617,796.551 375,797.5C 372.448,797.729 369.948,797.729 367.5,797.5C 368.368,799.397 369.701,800.73 371.5,801.5C 366.167,799.833 360.833,798.167 355.5,796.5C 354.448,796.649 353.448,796.483 352.5,796C 350.681,795.26 349.348,794.093 348.5,792.5C 343.685,788.53 338.685,784.697 333.5,781C 323.448,772.625 315.281,762.792 309,751.5C 308.329,750.748 307.496,750.414 306.5,750.5C 305.833,750.5 305.5,750.167 305.5,749.5C 306.043,749.44 306.376,749.107 306.5,748.5C 303.485,742.804 301.318,736.804 300,730.5C 298.45,729.409 297.283,728.076 296.5,726.5C 290.782,705.494 290.116,684.327 294.5,663C 294.43,662.235 294.097,661.735 293.5,661.5C 293.833,660.833 294.167,660.167 294.5,659.5C 297.071,654.464 299.071,649.13 300.5,643.5C 302.992,639.849 304.992,635.849 306.5,631.5C 307.272,630.306 308.272,629.306 309.5,628.5C 310.45,631.068 310.45,633.568 309.5,636C 311.934,636.333 312.934,635.166 312.5,632.5C 313.675,632.719 314.675,632.386 315.5,631.5C 315.812,628.376 316.979,625.709 319,623.5C 321.134,625.578 320.968,627.412 318.5,629C 319.46,632.73 319.793,636.563 319.5,640.5C 321.484,640.617 323.15,639.95 324.5,638.5C 325.5,639.167 326.5,639.833 327.5,640.5C 328.554,638.112 330.221,636.445 332.5,635.5 Z"/></g>
<g><path style="opacity:1" fill="#f5ddc2" d="M 351.5,618.5 C 339.093,629.219 329.426,641.886 322.5,656.5C 325.042,649.084 328.375,642.084 332.5,635.5C 337.452,628.548 343.452,622.548 350.5,617.5C 351.107,617.624 351.44,617.957 351.5,618.5 Z"/></g>
<g><path style="opacity:1" fill="#f6e6ce" d="M 702.5,650.5 C 694.967,645.133 687.3,639.966 679.5,635C 659.968,626.73 639.635,624.563 618.5,628.5C 617.584,628.457 616.917,628.124 616.5,627.5C 645.474,620.603 672.141,625.936 696.5,643.5C 698.92,645.578 700.92,647.912 702.5,650.5 Z"/></g>
<g><path style="opacity:1" fill="#f8e7cc" d="M 306.5,631.5 C 304.992,635.849 302.992,639.849 300.5,643.5C 300.947,638.605 302.947,634.605 306.5,631.5 Z"/></g>
<g><path style="opacity:1" fill="#f6e7cc" d="M 300.5,643.5 C 299.071,649.13 297.071,654.464 294.5,659.5C 294.201,657.396 294.534,655.396 295.5,653.5C 296.666,649.71 298.333,646.377 300.5,643.5 Z"/></g>
<g><path style="opacity:1" fill="#f1d9b5" d="M 506.5,621.5 C 517.683,635.119 524.35,650.785 526.5,668.5C 526.167,668.5 525.833,668.5 525.5,668.5C 523.456,658.991 520.789,649.658 517.5,640.5C 516.325,640.719 515.325,640.386 514.5,639.5C 511.643,633.599 508.976,627.599 506.5,621.5 Z"/></g>
<g><path style="opacity:1" fill="#f1d5b1" d="M 598.5,634.5 C 592.33,638.992 586.33,643.658 580.5,648.5C 577.732,650.087 575.065,651.92 572.5,654C 571.002,656.664 569.002,658.83 566.5,660.5C 569.023,655.301 572.69,650.968 577.5,647.5C 583.892,642.013 590.892,637.679 598.5,634.5 Z"/></g>
<g><path style="opacity:1" fill="#dfa87b" d="M 648.5,650.5 C 646.901,650.232 645.568,650.566 644.5,651.5C 641.642,650.115 638.976,650.448 636.5,652.5C 635.666,651.252 634.333,650.585 632.5,650.5C 630.142,650.753 627.808,651.086 625.5,651.5C 625.5,651.167 625.5,650.833 625.5,650.5C 633.295,649.218 640.962,649.218 648.5,650.5 Z"/></g>
<g><path style="opacity:1" fill="#f6e6cc" d="M 478.5,626.5 C 482.208,630.2 485.708,634.2 489,638.5C 492.333,645.167 495.667,651.833 499,658.5C 501.61,664.787 502.443,671.12 501.5,677.5C 499.959,668.686 497.459,660.019 494,651.5C 489.323,642.803 484.157,634.47 478.5,626.5 Z"/></g>
<g><path style="opacity:1" fill="#efd6b4" d="M 648.5,650.5 C 661.833,651.821 673.166,657.155 682.5,666.5C 674.461,661.147 665.795,656.814 656.5,653.5C 652.353,652.833 648.353,652.166 644.5,651.5C 645.568,650.566 646.901,650.232 648.5,650.5 Z"/></g>
<g><path style="opacity:1" fill="#f2ddc2" d="M 636.5,652.5 C 618.177,652.67 602.844,659.336 590.5,672.5C 589.475,672.103 589.308,671.437 590,670.5C 599.578,659.921 611.412,653.588 625.5,651.5C 627.808,651.086 630.142,650.753 632.5,650.5C 634.333,650.585 635.666,651.252 636.5,652.5 Z"/></g>
<g><path style="opacity:1" fill="#f7e7c5" d="M 706.5,654.5 C 710.605,656.655 713.272,659.988 714.5,664.5C 711.484,661.48 708.817,658.146 706.5,654.5 Z"/></g>
<g><path style="opacity:1" fill="#f8ecd6" d="M 322.5,656.5 C 322.975,659.082 322.308,661.082 320.5,662.5C 320.595,660.214 321.262,658.214 322.5,656.5 Z"/></g>
<g><path style="opacity:1" fill="#d49e42" d="M 625.5,650.5 C 625.5,650.833 625.5,651.167 625.5,651.5C 611.412,653.588 599.578,659.921 590,670.5C 589.308,671.437 589.475,672.103 590.5,672.5C 590.167,673.5 589.5,674.167 588.5,674.5C 588.103,673.475 587.437,673.308 586.5,674C 580.778,680.944 576.778,688.778 574.5,697.5C 573.531,699.663 572.698,701.996 572,704.5C 571.333,713.5 571.333,722.5 572,731.5C 572.757,733.315 573.59,734.981 574.5,736.5C 574.5,737.167 574.5,737.833 574.5,738.5C 575.74,745.779 578.906,752.112 584,757.5C 584.949,762.282 587.782,765.282 592.5,766.5C 594.5,767.167 595.833,768.5 596.5,770.5C 600.998,774.679 605.998,778.012 611.5,780.5C 609.097,780.393 607.264,781.393 606,783.5C 605.667,788.5 605.333,793.5 605,798.5C 603.933,799.191 602.766,799.691 601.5,800C 604.53,800.578 607.197,801.745 609.5,803.5C 605.63,802.256 601.63,801.256 597.5,800.5C 597.5,799.5 597.5,798.5 597.5,797.5C 593.512,795.356 589.178,794.022 584.5,793.5C 583.833,793.5 583.5,793.167 583.5,792.5C 576.181,785.309 569.014,777.309 562,768.5C 555.672,757.548 551.006,745.881 548,733.5C 547.559,721.59 547.392,709.924 547.5,698.5C 547.5,697.833 547.833,697.5 548.5,697.5C 551.134,686.446 555.801,676.279 562.5,667C 562.272,666.601 561.938,666.435 561.5,666.5C 562.19,663.623 563.857,661.623 566.5,660.5C 569.002,658.83 571.002,656.664 572.5,654C 575.065,651.92 577.732,650.087 580.5,648.5C 580.414,649.496 580.748,650.329 581.5,651C 580.692,651.308 580.025,651.808 579.5,652.5C 583.307,654.767 583.307,656.934 579.5,659C 582.146,659.497 584.813,659.664 587.5,659.5C 587.5,658.167 587.5,656.833 587.5,655.5C 594.211,655.287 600.877,655.62 607.5,656.5C 607.338,654.473 607.505,652.473 608,650.5C 609.323,647.941 611.157,647.275 613.5,648.5C 610.833,649.5 610.833,650.5 613.5,651.5C 617.307,649.437 621.307,649.104 625.5,650.5 Z"/></g>
<g><path style="opacity:1" fill="#f6e5d1" d="M 682.5,666.5 C 686.052,668.263 688.719,670.93 690.5,674.5C 687.167,672.5 684.5,669.833 682.5,666.5 Z"/></g>
<g><path style="opacity:1" fill="#f0dfbc" d="M 714.5,664.5 C 715.735,664.721 716.735,665.388 717.5,666.5C 721.356,673.204 724.356,680.204 726.5,687.5C 723.623,682.07 720.457,676.737 717,671.5C 716.009,669.192 715.176,666.859 714.5,664.5 Z"/></g>
<g><path style="opacity:1" fill="#f8edd0" d="M 318.5,671.5 C 318.333,684.504 318.5,697.504 319,710.5C 320.726,716.178 322.559,721.844 324.5,727.5C 323.542,727.047 322.708,726.381 322,725.5C 319.966,719.621 318.466,713.621 317.5,707.5C 317.056,700.844 316.723,694.177 316.5,687.5C 316.276,681.902 316.943,676.569 318.5,671.5 Z"/></g>
<g><path style="opacity:1" fill="#f4e9cd" d="M 561.5,666.5 C 561.938,666.435 562.272,666.601 562.5,667C 555.801,676.279 551.134,686.446 548.5,697.5C 549.547,685.712 553.881,675.379 561.5,666.5 Z"/></g>
<g><path style="opacity:1" fill="#f9e0cc" d="M 588.5,674.5 C 587.257,676.753 585.59,678.753 583.5,680.5C 580.348,686.27 577.348,691.937 574.5,697.5C 576.778,688.778 580.778,680.944 586.5,674C 587.437,673.308 588.103,673.475 588.5,674.5 Z"/></g>
<g><path style="opacity:1" fill="#f7ead2" d="M 293.5,661.5 C 294.097,661.735 294.43,662.235 294.5,663C 290.116,684.327 290.782,705.494 296.5,726.5C 294.964,724.975 293.964,722.975 293.5,720.5C 289.55,700.789 289.55,681.123 293.5,661.5 Z"/></g>
<g><path style="opacity:1" fill="#dfbb88" d="M 320.5,662.5 C 320.935,665.838 320.268,668.838 318.5,671.5C 316.943,676.569 316.276,681.902 316.5,687.5C 316.723,694.177 317.056,700.844 317.5,707.5C 316.71,706.391 316.21,705.058 316,703.5C 315.333,693.5 315.333,683.5 316,673.5C 315.647,668.934 317.147,665.267 320.5,662.5 Z"/></g>
<g><path style="opacity:1" fill="#f5ecd6" d="M 502.5,678.5 C 503.657,686.99 503.824,695.657 503,704.5C 501.957,706.833 501.124,709.166 500.5,711.5C 501.994,700.565 502.661,689.565 502.5,678.5 Z"/></g>
<g><path style="opacity:1" fill="#debd8d" d="M 727.5,688.5 C 729.777,694.159 730.777,700.159 730.5,706.5C 730.825,713.687 730.491,720.687 729.5,727.5C 730.025,714.865 729.025,702.365 726.5,690C 726.57,689.235 726.903,688.735 727.5,688.5 Z"/></g>
<g><path style="opacity:1" fill="#e8c999" d="M 525.5,668.5 C 525.833,668.5 526.167,668.5 526.5,668.5C 528.232,674.556 529.065,680.889 529,687.5C 531,689.167 531,690.833 529,692.5C 528.816,708.263 525.649,723.263 519.5,737.5C 518.903,737.265 518.57,736.765 518.5,736C 520.529,732.066 522.029,727.9 523,723.5C 523.608,716.736 524.608,710.069 526,703.5C 526.602,691.821 526.435,680.154 525.5,668.5 Z"/></g>
<g><path style="opacity:1" fill="#f8efd5" d="M 574.5,697.5 C 573.803,704.314 573.137,711.147 572.5,718C 573.011,724.204 573.678,730.371 574.5,736.5C 573.59,734.981 572.757,733.315 572,731.5C 571.333,722.5 571.333,713.5 572,704.5C 572.698,701.996 573.531,699.663 574.5,697.5 Z"/></g>
<g><path style="opacity:1" fill="#f7e9d1" d="M 690.5,674.5 C 691.815,675.476 693.148,676.476 694.5,677.5C 707.334,697.276 710.001,718.276 702.5,740.5C 703.989,733.018 704.655,725.352 704.5,717.5C 705.248,702.361 700.748,689.028 691,677.5C 690.517,676.552 690.351,675.552 690.5,674.5 Z"/></g>
<g><path style="opacity:1" fill="#f8e5cb" d="M 730.5,706.5 C 731.117,706.611 731.617,706.944 732,707.5C 733.078,719.072 732.245,730.405 729.5,741.5C 729.062,744.295 728.062,746.628 726.5,748.5C 728.425,741.643 729.425,734.643 729.5,727.5C 730.491,720.687 730.825,713.687 730.5,706.5 Z"/></g>
<g><path style="opacity:1" fill="#ebcda0" d="M 500.5,712.5 C 498.818,720.267 496.818,727.934 494.5,735.5C 492.801,735.527 491.467,736.194 490.5,737.5C 493.643,728.976 496.976,720.643 500.5,712.5 Z"/></g>
<g><path style="opacity:1" fill="#f7e8d1" d="M 326.5,729.5 C 329.079,736.24 332.412,742.573 336.5,748.5C 331.531,743.254 327.531,737.254 324.5,730.5C 324.957,729.702 325.624,729.369 326.5,729.5 Z"/></g>
<g><path style="opacity:1" fill="#f2e0bf" d="M 296.5,726.5 C 297.283,728.076 298.45,729.409 300,730.5C 301.318,736.804 303.485,742.804 306.5,748.5C 306.376,749.107 306.043,749.44 305.5,749.5C 301.023,742.473 298.023,734.806 296.5,726.5 Z"/></g>
<g><path style="opacity:1" fill="#f7eed6" d="M 702.5,740.5 C 701.958,743.912 700.625,746.912 698.5,749.5C 698.534,745.777 699.867,742.777 702.5,740.5 Z"/></g>
<g><path style="opacity:1" fill="#f1e1bd" d="M 490.5,737.5 C 489.367,741.481 487.533,745.147 485,748.5C 478.812,755.177 471.979,761.177 464.5,766.5C 467.153,763.016 470.319,760.016 474,757.5C 474.483,756.552 474.649,755.552 474.5,754.5C 475.822,754.67 476.989,754.337 478,753.5C 482.093,748.111 486.26,742.778 490.5,737.5 Z"/></g>
<g><path style="opacity:1" fill="#f2dfba" d="M 698.5,749.5 C 698.092,753.573 696.092,756.573 692.5,758.5C 693.613,754.83 695.613,751.83 698.5,749.5 Z"/></g>
<g><path style="opacity:1" fill="#f5e2d1" d="M 724.5,752.5 C 724.688,756.052 723.355,758.719 720.5,760.5C 721.467,757.566 722.8,754.9 724.5,752.5 Z"/></g>
<g><path style="opacity:1" fill="#f4e2bc" d="M 574.5,738.5 C 579.207,748.545 585.207,757.878 592.5,766.5C 587.782,765.282 584.949,762.282 584,757.5C 578.906,752.112 575.74,745.779 574.5,738.5 Z"/></g>
<g><path style="opacity:1" fill="#f6dac1" d="M 516.5,741.5 C 512.442,752.604 506.109,762.27 497.5,770.5C 504.086,760.994 510.419,751.327 516.5,741.5 Z"/></g>
<g><path style="opacity:1" fill="#f9e7cc" d="M 692.5,758.5 C 688.833,764.167 684.167,768.833 678.5,772.5C 682.833,767.5 687.5,762.833 692.5,758.5 Z"/></g>
<g><path style="opacity:1" fill="#f9e6d2" d="M 464.5,766.5 C 459.539,770.32 454.206,773.653 448.5,776.5C 447.833,776.5 447.167,776.5 446.5,776.5C 451.366,773.384 456.366,770.218 461.5,767C 462.448,766.517 463.448,766.351 464.5,766.5 Z"/></g>
<g><path style="opacity:1" fill="#f5e6cb" d="M 336.5,748.5 C 342.276,753.438 347.943,758.605 353.5,764C 378.027,781.134 405.027,786.634 434.5,780.5C 432.025,781.131 429.691,782.131 427.5,783.5C 411.59,785.413 395.924,784.413 380.5,780.5C 362.685,774.25 348.018,763.583 336.5,748.5 Z"/></g>
<g><path style="opacity:1" fill="#ecd2ae" d="M 496.5,771.5 C 494.431,774.573 491.764,776.906 488.5,778.5C 490.248,775.084 492.914,772.75 496.5,771.5 Z"/></g>
<g><path style="opacity:1" fill="#f5e4c7" d="M 547.5,698.5 C 547.392,709.924 547.559,721.59 548,733.5C 551.006,745.881 555.672,757.548 562,768.5C 569.014,777.309 576.181,785.309 583.5,792.5C 564.175,778.594 552.008,759.927 547,736.5C 546.173,723.66 546.34,710.993 547.5,698.5 Z"/></g>
<g><path style="opacity:1" fill="#f4dec3" d="M 720.5,760.5 C 718.141,768.847 713.474,775.513 706.5,780.5C 711.199,773.81 715.866,767.143 720.5,760.5 Z"/></g>
<g><path style="opacity:1" fill="#f5e0ca" d="M 678.5,772.5 C 674.565,776.053 670.065,778.72 665,780.5C 664.601,780.272 664.435,779.938 664.5,779.5C 668.888,776.691 673.555,774.358 678.5,772.5 Z"/></g>
<g><path style="opacity:1" fill="#dfba82" d="M 446.5,776.5 C 447.167,776.5 447.833,776.5 448.5,776.5C 448.53,777.497 448.03,778.164 447,778.5C 440.845,781.497 434.345,783.164 427.5,783.5C 429.691,782.131 432.025,781.131 434.5,780.5C 434.611,779.883 434.944,779.383 435.5,779C 439.168,778.052 442.835,777.219 446.5,776.5 Z"/></g>
<g><path style="opacity:1" fill="#f1e4c3" d="M 596.5,770.5 C 604.122,774.479 611.789,778.146 619.5,781.5C 619.53,782.497 619.03,783.164 618,783.5C 615.965,782.211 613.799,781.211 611.5,780.5C 605.998,778.012 600.998,774.679 596.5,770.5 Z"/></g>
<g><path style="opacity:1" fill="#f7eadb" d="M 663.5,780.5 C 660.13,782.83 656.296,784.163 652,784.5C 650.97,784.164 650.47,783.497 650.5,782.5C 654.923,782.31 659.256,781.643 663.5,780.5 Z"/></g>
<g><path style="opacity:1" fill="#f5e3ca" d="M 306.5,750.5 C 307.496,750.414 308.329,750.748 309,751.5C 315.281,762.792 323.448,772.625 333.5,781C 338.685,784.697 343.685,788.53 348.5,792.5C 330.217,782.884 316.217,768.884 306.5,750.5 Z"/></g>
<g><path style="opacity:1" fill="#f5e7ce" d="M 620.5,782.5 C 629.974,784.282 639.641,784.949 649.5,784.5C 649.082,785.222 648.416,785.722 647.5,786C 641.833,786.667 636.167,786.667 630.5,786C 626.837,785.428 623.503,784.262 620.5,782.5 Z"/></g>
<g><path style="opacity:1" fill="#f5dec7" d="M 484.5,782.5 C 480.837,787.082 476.17,790.415 470.5,792.5C 474.729,788.704 479.396,785.37 484.5,782.5 Z"/></g>
<g><path style="opacity:1" fill="#f1dbbf" d="M 702.5,784.5 C 700.92,787.088 698.92,789.422 696.5,791.5C 668.998,811.154 638.998,815.82 606.5,805.5C 602.917,804.55 599.917,802.883 597.5,800.5C 601.63,801.256 605.63,802.256 609.5,803.5C 609.611,804.117 609.944,804.617 610.5,805C 645.019,814.699 675.686,807.866 702.5,784.5 Z"/></g>
<g><path style="opacity:1" fill="#e6c795" d="M 584.5,793.5 C 589.178,794.022 593.512,795.356 597.5,797.5C 597.5,798.5 597.5,799.5 597.5,800.5C 596.022,800.762 594.689,800.429 593.5,799.5C 590.248,797.72 587.248,795.72 584.5,793.5 Z"/></g>
<g><path style="opacity:1" fill="#f6dfc4" d="M 469.5,794.5 C 464.628,796.863 459.628,798.863 454.5,800.5C 458.907,796.506 463.907,794.506 469.5,794.5 Z"/></g>
<g><path style="opacity:1" fill="#ecd1b7" d="M 355.5,796.5 C 360.833,798.167 366.167,799.833 371.5,801.5C 372.913,802.935 374.58,803.935 376.5,804.5C 368.623,803.55 361.623,800.884 355.5,796.5 Z"/></g>
<g><path style="opacity:1" fill="#f5e2cc" d="M 448.5,802.5 C 444.876,805.5 440.543,806.833 435.5,806.5C 439.439,804.219 443.772,802.886 448.5,802.5 Z"/></g>
<g><path style="opacity:1" fill="#f6e7d7" d="M 376.5,804.5 C 382.751,805.329 388.751,806.662 394.5,808.5C 391.15,808.665 387.817,808.498 384.5,808C 381.497,807.251 378.831,806.085 376.5,804.5 Z"/></g>
<g><path style="opacity:1" fill="#f8f0d8" d="M 434.5,806.5 C 431.663,808.402 428.329,809.069 424.5,808.5C 427.049,807.425 430.382,806.759 434.5,806.5 Z"/></g>
<g><path style="opacity:1" fill="#f9edd5" d="M 397.5,808.5 C 406.234,807.865 414.567,808.532 422.5,810.5C 413.766,811.135 405.433,810.468 397.5,808.5 Z"/></g>
<g><path style="opacity:1" fill="#f9faf9" d="M 1023.5,1020.5 C 1023.5,1021.5 1023.5,1022.5 1023.5,1023.5C 1022.17,1023.5 1020.83,1023.5 1019.5,1023.5C 1020.26,1021.74 1021.6,1020.74 1023.5,1020.5 Z"/></g>
</svg>
