<?xml version="1.0" encoding="utf-8" ?><svg xmlns="http://www.w3.org/2000/svg" xmlns:xlink="http://www.w3.org/1999/xlink" width="1024" height="1024" viewBox="0 0 1024 1024"><path fill="#1C6B0E" d="M501.347 345.793C511.628 344.809 527.918 345.621 537.912 347.106C582.265 353.729 622.072 377.961 648.323 414.32C673.993 449.254 684.922 492.87 678.761 535.782C671.924 580.011 647.778 619.706 611.645 646.115C573.835 673.969 528.947 682.24 483.1 675.348C463.184 671.77 455.539 668.04 437.21 660.891L378.642 673.795C367.185 676.296 354.557 679.356 343.082 681.383C351.527 652.178 358.509 622.234 366.987 592.989C354.495 567.85 348.03 549.914 346.401 521.311C343.608 477.206 358.659 433.829 388.168 400.931C417.191 368.404 457.844 348.598 501.347 345.793ZM404.065 582.766C400.354 595.559 396.53 608.319 392.593 621.044C391.095 625.994 387.951 635.533 387.131 640.269C400.006 638.491 417.547 632.926 430.681 629.965C436.863 628.572 443.272 626.243 449.666 625.611C464.221 632.889 474.954 637.273 491.384 639.89C529.453 644.69 562.01 638.567 592.944 614.611C620.689 593.465 638.763 562.049 643.098 527.435C646.956 493.47 637.449 459.336 616.589 432.255C594.465 404.2 562.013 386.19 526.501 382.258C520.632 381.581 510.719 381.112 504.608 381.704C405 390.16 348.497 497.465 404.065 582.766Z"/><path fill="#1C6B0E" d="M504.508 398.177C510.588 397.785 516.691 397.91 522.75 398.55C530.951 399.439 538.873 400.781 546.761 403.253C598.891 419.589 633.091 469.881 626.748 524.404C623.458 554.339 608.22 581.677 584.491 600.22C561.008 618.7 530.743 628.505 500.88 624.88C479.503 622.564 469.504 617.326 451.157 607.487C438.269 610.931 423.706 615.299 410.828 618.036C413.953 605.935 418.527 592.442 422.392 580.431C409.432 562.497 402.184 546.898 399.544 524.375C396.013 495.059 404.305 465.545 422.586 442.357C444.405 415.035 470.088 402.089 504.508 398.177ZM574.157 570.382C582.534 562.605 582.755 554.778 581.791 544.202L581.208 543.913C572.266 539.586 559.316 535.514 549.806 530.707C539.25 525.371 539.609 551.386 521.858 544.659C501.935 537.108 489.422 524.078 478.386 506.172C473.613 498.153 483.987 490.948 485.619 484.308C487.441 476.895 480.649 466.076 478.43 459.025C475.042 449.296 477.117 446.101 465.791 445.682C458.519 446.503 454.528 447.638 449.583 453.777C442.464 462.496 439.177 473.726 440.472 484.908C443.291 508.594 470.225 540.06 488.953 554.135C510.442 570.285 549.656 590.704 574.157 570.382Z"/></svg>